<?xml version="1.0" encoding="UTF-8" standalone="no"?>
<!-- Created with Inkscape (http://www.inkscape.org/) -->

<svg
   width="210mm"
   height="297mm"
   viewBox="0 0 210 297"
   version="1.1"
   id="svg1"
   inkscape:version="1.4.3 (0d15f75, 2025-12-25)"
   sodipodi:docname="AED.svg"
   xmlns:inkscape="http://www.inkscape.org/namespaces/inkscape"
   xmlns:sodipodi="http://sodipodi.sourceforge.net/DTD/sodipodi-0.dtd"
   xmlns="http://www.w3.org/2000/svg"
   xmlns:svg="http://www.w3.org/2000/svg">
  <sodipodi:namedview
     id="namedview1"
     pagecolor="#ffffff"
     bordercolor="#000000"
     borderopacity="0.25"
     inkscape:showpageshadow="2"
     inkscape:pageopacity="0.0"
     inkscape:pagecheckerboard="0"
     inkscape:deskcolor="#d1d1d1"
     inkscape:document-units="mm"
     inkscape:zoom="1.4342733"
     inkscape:cx="292.48261"
     inkscape:cy="289.69374"
     inkscape:window-width="1920"
     inkscape:window-height="1001"
     inkscape:window-x="-9"
     inkscape:window-y="-9"
     inkscape:window-maximized="1"
     inkscape:current-layer="svg1" />
  <defs
     id="defs1" />
  <path
     style="fill:#eeeeee;fill-opacity:0;stroke:#828282;stroke-width:1.01119;stroke-linejoin:round;stroke-dasharray:none;stroke-opacity:1"
     d="m 156.2644,91.247473 c 0.78253,8.804297 -2.08673,9.738087 -5.73851,12.272657 -3.65178,2.53458 -4.82558,2.80137 -14.21588,-0.26679 -9.39029,-3.06817 -25.95374,-9.071101 -29.08384,-14.407041 -3.1301,-5.33594 -7.30357,-18.408991 -7.30357,-18.408991 v 0"
     id="path4" />
  <path
     style="fill:#eeeeee;fill-opacity:0;stroke:#828282;stroke-width:1;stroke-linejoin:round;stroke-dasharray:none;stroke-opacity:1"
     d="m 116.22332,56.611583 c -1.95662,9.783109 -4.43501,11.739729 -7.30472,12.652819 -2.86971,0.91309 -8.60914,0 -8.60914,0 v 0"
     id="path3" />
  <g
     inkscape:label="Layer 1"
     inkscape:groupmode="layer"
     id="layer1">
    <g
       id="g2"
       transform="matrix(0.48368888,0,0,0.49094652,15.935355,12.449341)"
       style="stroke-width:2.05210631;stroke-dasharray:none">
      <path
         id="rect2"
         style="fill:#ff8f29;fill-opacity:1;stroke:#211f7c;stroke-width:2.05210631;stroke-linejoin:round;stroke-dasharray:none;stroke-opacity:1"
         d="m 133.59918,24.9596 -1.73332,0.0074 c -0.21601,9.4e-4 -0.42815,0.01734 -0.63663,0.04821 H 73.805419 C 73.62234,24.99324 73.43627,24.98198 73.248281,24.9828 l -1.732611,0.0076 c -2.878914,0.01255 -5.153059,2.7615 -5.09865,6.162758 l 0.422777,26.417408 c 0.05441,3.40126 2.415999,6.12956 5.294913,6.117042 l 1.732613,-0.0084 c 2.878914,-0.01255 5.153057,-2.760668 5.098649,-6.161927 L 78.667706,38.863628 h 48.224014 l 0.29827,18.682787 c 0.0545,3.401261 2.41599,6.129559 5.29492,6.117043 l 1.7333,-0.0076 c 2.87893,-0.01255 5.15236,-2.760669 5.09795,-6.161929 L 138.8941,31.076522 c -0.0545,-3.401259 -2.41601,-6.129558 -5.29492,-6.117041 z" />
      <path
         id="path1"
         style="fill:#ff8f29;fill-opacity:1;stroke:#211f7c;stroke-width:2.05210631;stroke-linejoin:round;stroke-dasharray:none"
         d="M 102.86659,47.068445 A 55.774822,25.152462 0 0 0 50.413977,63.669499 35.787575,71.759628 0 0 0 31.36036,127.10129 35.787575,71.759628 0 0 0 52.770939,192.81562 55.774822,25.152462 0 0 0 102.86659,206.90985 55.774822,25.152462 0 0 0 152.95914,192.8182 35.787575,71.759628 0 0 0 174.37282,127.10129 35.787575,71.759628 0 0 0 155.3192,63.670015 55.774822,25.152462 0 0 0 102.86659,47.068445 Z" />
      <text
         xml:space="preserve"
         style="font-size:43.6885px;writing-mode:lr-tb;direction:ltr;fill:#ffffff;fill-opacity:1;stroke:#ffffff;stroke-width:0;stroke-linejoin:round;stroke-dasharray:none;stroke-opacity:1"
         x="71.766899"
         y="163.64252"
         id="text2"
         transform="scale(0.88418417,1.1309861)"><tspan
           sodipodi:role="line"
           id="tspan2"
           style="fill:#ffffff;fill-opacity:1;stroke:#ffffff;stroke-width:0;stroke-dasharray:none;stroke-opacity:1"
           x="71.766899"
           y="163.64252">AED</tspan></text>
    </g>
    <rect
       style="fill:#eeeeee;fill-opacity:1;stroke:#211f7c;stroke-width:1;stroke-linejoin:round;stroke-dasharray:none;stroke-opacity:1"
       id="rect3"
       width="24.783873"
       height="30.00153"
       x="112.975"
       y="2.6256926"
       ry="3.689441"
       transform="rotate(12.000013)" />
    <rect
       style="fill:#eeeeee;fill-opacity:1;stroke:#211f7c;stroke-width:1;stroke-linejoin:round;stroke-dasharray:none;stroke-opacity:1"
       id="rect3-2"
       width="24.783873"
       height="30.00153"
       x="130.8625"
       y="79.362854"
       ry="3.689441"
       transform="rotate(-6.9684738)" />
  </g>
</svg>
