<?xml version="1.0" encoding="UTF-8" standalone="no"?>
<!-- Created with Inkscape (http://www.inkscape.org/) -->

<svg
   width="85.495995mm"
   height="186.34476mm"
   viewBox="0 0 85.495995 186.34476"
   version="1.1"
   id="svg1"
   inkscape:version="1.4.3 (0d15f75, 2025-12-25)"
   sodipodi:docname="chusha_doku.svg"
   xmlns:inkscape="http://www.inkscape.org/namespaces/inkscape"
   xmlns:sodipodi="http://sodipodi.sourceforge.net/DTD/sodipodi-0.dtd"
   xmlns="http://www.w3.org/2000/svg"
   xmlns:svg="http://www.w3.org/2000/svg">
  <sodipodi:namedview
     id="namedview1"
     pagecolor="#ffffff"
     bordercolor="#000000"
     borderopacity="0.25"
     inkscape:showpageshadow="2"
     inkscape:pageopacity="0.0"
     inkscape:pagecheckerboard="0"
     inkscape:deskcolor="#d1d1d1"
     inkscape:document-units="mm"
     inkscape:zoom="1.0141844"
     inkscape:cx="-281.01399"
     inkscape:cy="337.70979"
     inkscape:window-width="1920"
     inkscape:window-height="1001"
     inkscape:window-x="-9"
     inkscape:window-y="-9"
     inkscape:window-maximized="1"
     inkscape:current-layer="layer1" />
  <defs
     id="defs1" />
  <g
     inkscape:label="Layer 1"
     inkscape:groupmode="layer"
     id="layer1"
     transform="translate(-81.099371,-60.862793)">
    <path
       id="rect10"
       style="fill:#b1b1b1;fill-opacity:1;stroke:#211f7c;stroke-width:1;stroke-linejoin:round;stroke-dasharray:none;stroke-opacity:1"
       d="m 144.96565,198.9329 -2.97976,0.86629 10.04551,31.42713 4.46062,7.3537 z"
       sodipodi:nodetypes="ccccc" />
    <rect
       style="fill:#8200e6;fill-opacity:1;stroke:#000000;stroke-width:0;stroke-linejoin:round;stroke-dasharray:none;stroke-opacity:1"
       id="rect9"
       width="34.865219"
       height="71.759628"
       x="-100.07192"
       y="158.24149"
       ry="3.689441"
       transform="matrix(-0.96024298,0.27916558,0.27916558,0.96024298,0,0)" />
    <rect
       style="fill:#e9e9e9;fill-opacity:0.314465;stroke:#211f7c;stroke-width:1;stroke-linejoin:round"
       id="rect1"
       width="38.370186"
       height="111.79005"
       x="-101.82441"
       y="119.76427"
       ry="3.689441"
       transform="matrix(-0.96024298,0.27916558,0.27916558,0.96024298,0,0)" />
    <rect
       style="fill:#e9e9e9;fill-opacity:0.314465;stroke:#211f7c;stroke-width:1;stroke-linejoin:round"
       id="rect2"
       width="10.699379"
       height="12.913043"
       x="-87.989006"
       y="106.77379"
       ry="0"
       transform="matrix(-0.96024298,0.27916558,0.27916558,0.96024298,0,0)" />
    <rect
       style="fill:#e9e9e9;fill-opacity:0.314465;stroke:#211f7c;stroke-width:1;stroke-linejoin:round;stroke-dasharray:none"
       id="rect3"
       width="51.327141"
       height="11.827356"
       x="-108.30288"
       y="95.008896"
       ry="1.5255769"
       transform="matrix(-0.96024298,0.27916558,0.27916558,0.96024298,0,0)" />
    <rect
       style="fill:#000000;fill-opacity:1;stroke:#000000;stroke-width:0;stroke-linejoin:round;stroke-dasharray:none;stroke-opacity:1"
       id="rect4"
       width="13.63113"
       height="1.5000765"
       x="-101.31503"
       y="206.85701"
       ry="0"
       transform="matrix(-0.96024298,0.27916558,0.27916558,0.96024298,0,0)" />
    <rect
       style="fill:#000000;fill-opacity:1;stroke:#000000;stroke-width:0;stroke-linejoin:round;stroke-dasharray:none;stroke-opacity:1"
       id="rect5"
       width="13.63113"
       height="1.5000765"
       x="-101.31503"
       y="193.36342"
       ry="0"
       transform="matrix(-0.96024298,0.27916558,0.27916558,0.96024298,0,0)" />
    <rect
       style="fill:#000000;fill-opacity:1;stroke:#000000;stroke-width:0;stroke-linejoin:round;stroke-dasharray:none;stroke-opacity:1"
       id="rect6"
       width="13.63113"
       height="1.5000765"
       x="-101.31503"
       y="179.86984"
       ry="0"
       transform="matrix(-0.96024298,0.27916558,0.27916558,0.96024298,0,0)" />
    <rect
       style="fill:#000000;fill-opacity:1;stroke:#000000;stroke-width:0;stroke-linejoin:round;stroke-dasharray:none;stroke-opacity:1"
       id="rect7"
       width="13.63113"
       height="1.5000765"
       x="-101.31503"
       y="166.37625"
       ry="0"
       transform="matrix(-0.96024298,0.27916558,0.27916558,0.96024298,0,0)" />
    <rect
       style="fill:#000000;fill-opacity:1;stroke:#000000;stroke-width:0;stroke-linejoin:round;stroke-dasharray:none;stroke-opacity:1"
       id="rect8"
       width="13.63113"
       height="1.5000765"
       x="-101.31503"
       y="152.88266"
       ry="0"
       transform="matrix(-0.96024298,0.27916558,0.27916558,0.96024298,0,0)" />
    <g
       id="g1"
       transform="matrix(-0.99995269,-0.00972746,-0.00972746,0.99995269,272.78753,-2.652524)"
       style="fill:#faff00;fill-opacity:1">
      <path
         sodipodi:type="star"
         style="fill:#faff00;fill-opacity:1;stroke:#211f7c;stroke-width:1;stroke-linejoin:round;stroke-dasharray:none"
         id="path11"
         inkscape:flatsided="false"
         sodipodi:sides="4"
         sodipodi:cx="40.436848"
         sodipodi:cy="222.5331"
         sodipodi:r1="20.350536"
         sodipodi:r2="4.2804904"
         sodipodi:arg1="0.01281981"
         sodipodi:arg2="0.79821797"
         inkscape:rounded="0.041541091"
         inkscape:randomized="0"
         d="m 60.785712,222.79398 c -0.0094,0.73049 -16.837994,2.29452 -17.361151,2.80443 -0.523156,0.50991 -2.518106,17.29292 -3.248596,17.28355 -0.73049,-0.009 -2.294522,-16.83799 -2.804434,-17.36115 -0.509912,-0.52316 -17.292913,-2.51811 -17.283547,-3.2486 0.0094,-0.73049 16.837994,-2.29452 17.36115,-2.80443 0.523157,-0.50991 2.518107,-17.29291 3.248597,-17.28355 0.730489,0.009 2.294521,16.838 2.804433,17.36115 0.509912,0.52316 17.292913,2.51811 17.283548,3.2486 z"
         transform="matrix(0.47445227,0,0,0.47445227,94.559582,135.50406)" />
    </g>
  </g>
</svg>
