<?xml version="1.0" encoding="UTF-8" standalone="no"?>
<!-- Created with Inkscape (http://www.inkscape.org/) -->

<svg
   width="170.37349mm"
   height="94.833374mm"
   viewBox="0 0 170.37349 94.833374"
   version="1.1"
   id="svg1"
   inkscape:version="1.4.3 (0d15f75, 2025-12-25)"
   sodipodi:docname="furaipan.svg"
   xmlns:inkscape="http://www.inkscape.org/namespaces/inkscape"
   xmlns:sodipodi="http://sodipodi.sourceforge.net/DTD/sodipodi-0.dtd"
   xmlns="http://www.w3.org/2000/svg"
   xmlns:svg="http://www.w3.org/2000/svg">
  <sodipodi:namedview
     id="namedview1"
     pagecolor="#ffffff"
     bordercolor="#000000"
     borderopacity="0.25"
     inkscape:showpageshadow="2"
     inkscape:pageopacity="0.0"
     inkscape:pagecheckerboard="0"
     inkscape:deskcolor="#d1d1d1"
     inkscape:document-units="mm"
     inkscape:zoom="1.0141844"
     inkscape:cx="-10.846154"
     inkscape:cy="260.8007"
     inkscape:window-width="1920"
     inkscape:window-height="1001"
     inkscape:window-x="-9"
     inkscape:window-y="-9"
     inkscape:window-maximized="1"
     inkscape:current-layer="svg1" />
  <defs
     id="defs1" />
  <path
     id="rect4"
     style="fill:#d14343;stroke:#211f7c;stroke-linejoin:round"
     d="m 100.51199,40.737616 67.33231,0.184472 2.02919,18.631677 H 96.822553 Z"
     sodipodi:nodetypes="ccccc" />
  <rect
     style="fill:#d14343;fill-opacity:1;stroke:#211f7c;stroke-width:1.02576;stroke-linejoin:round"
     id="rect5"
     width="66.499374"
     height="4.9310141"
     x="103.25604"
     y="59.441368"
     ry="0" />
  <ellipse
     style="fill:#d14343;fill-opacity:1;stroke:#211f7c;stroke-width:1.2368;stroke-linejoin:round"
     id="ellipse4"
     cx="54.199467"
     cy="49.189465"
     rx="54.117462"
     ry="45.746429"
     transform="matrix(0.99991151,-0.01330301,0.01095383,0.99994001,0,0)" />
  <ellipse
     style="fill:#545454;fill-opacity:1;stroke:#211f7c;stroke-width:1.17878;stroke-linejoin:round"
     id="ellipse3"
     cx="54.220947"
     cy="42.782654"
     rx="54.14563"
     ry="41.533394"
     transform="rotate(-0.69165845)" />
  <path
     id="ellipse2"
     style="fill:#888888;fill-opacity:1;stroke:#211f7c;stroke-width:1.17878;stroke-linejoin:round"
     d="M 54.23209,0.59474508 A 41.533394,54.14563 89.308342 0 0 0.5919531,42.778734 41.533394,54.14563 89.308342 0 0 12.931769,68.730641 45.93354,35.234161 0 0 1 8.7997212,54.126361 45.93354,35.234161 0 0 1 54.733351,18.891819 45.93354,35.234161 0 0 1 100.66698,54.126361 45.93354,35.234161 0 0 1 97.055831,67.819578 41.533394,54.14563 89.308342 0 0 108.87526,41.47132 41.533394,54.14563 89.308342 0 0 54.23209,0.59474508 Z" />
  <g
     inkscape:label="Layer 1"
     inkscape:groupmode="layer"
     id="layer1"
     transform="translate(-32.676817,-40.750535)" />
</svg>
