<?xml version="1.0" encoding="UTF-8" standalone="no"?>
<!-- Created with Inkscape (http://www.inkscape.org/) -->

<svg
   width="210mm"
   height="297mm"
   viewBox="0 0 210 297"
   version="1.1"
   id="svg1"
   inkscape:version="1.4.3 (0d15f75, 2025-12-25)"
   sodipodi:docname="furaipan.svg"
   xmlns:inkscape="http://www.inkscape.org/namespaces/inkscape"
   xmlns:sodipodi="http://sodipodi.sourceforge.net/DTD/sodipodi-0.dtd"
   xmlns="http://www.w3.org/2000/svg"
   xmlns:svg="http://www.w3.org/2000/svg">
  <sodipodi:namedview
     id="namedview1"
     pagecolor="#ffffff"
     bordercolor="#000000"
     borderopacity="0.25"
     inkscape:showpageshadow="2"
     inkscape:pageopacity="0.0"
     inkscape:pagecheckerboard="0"
     inkscape:deskcolor="#d1d1d1"
     inkscape:document-units="mm"
     inkscape:zoom="1.0141844"
     inkscape:cx="111.91259"
     inkscape:cy="413.63288"
     inkscape:window-width="1920"
     inkscape:window-height="1001"
     inkscape:window-x="-9"
     inkscape:window-y="-9"
     inkscape:window-maximized="1"
     inkscape:current-layer="svg1" />
  <defs
     id="defs1" />
  <path
     id="rect4"
     style="fill:#d14343;stroke:#211f7c;stroke-linejoin:round"
     d="m 133.18881,81.488151 67.33231,0.184472 2.02919,18.631677 h -73.05094 z"
     sodipodi:nodetypes="ccccc" />
  <rect
     style="fill:#d14343;fill-opacity:1;stroke:#211f7c;stroke-width:1.02576;stroke-linejoin:round"
     id="rect5"
     width="66.499374"
     height="4.9310141"
     x="135.93286"
     y="100.1919"
     ry="0" />
  <ellipse
     style="fill:#d14343;fill-opacity:1;stroke:#211f7c;stroke-width:1.2368;stroke-linejoin:round"
     id="ellipse4"
     cx="86.42804"
     cy="90.371208"
     rx="54.117462"
     ry="45.746429"
     transform="matrix(0.99991151,-0.01330301,0.01095383,0.99994001,0,0)" />
  <ellipse
     style="fill:#545454;fill-opacity:1;stroke:#211f7c;stroke-width:1.17878;stroke-linejoin:round"
     id="ellipse3"
     cx="86.403465"
     cy="83.924675"
     rx="54.14563"
     ry="41.533394"
     transform="rotate(-0.69165845)" />
  <path
     id="ellipse2"
     style="fill:#888888;fill-opacity:1;stroke:#211f7c;stroke-width:1.17878;stroke-linejoin:round"
     d="M 86.403478 42.391382 A 54.14563 41.533394 5.7763581e-14 0 0 32.258029 83.924784 A 54.14563 41.533394 5.7763581e-14 0 0 44.283669 110.02376 A 45.93354 35.234161 0.69165845 0 1 40.328217 95.370664 A 45.93354 35.234161 0.69165845 0 1 86.683831 60.693174 A 45.93354 35.234161 0.69165845 0 1 132.18878 96.479633 A 45.93354 35.234161 0.69165845 0 1 128.4126 110.12826 A 54.14563 41.533394 5.7763581e-14 0 0 140.54923 83.924599 A 54.14563 41.533394 5.7763581e-14 0 0 86.403478 42.391382 z "
     transform="rotate(-0.69165845)" />
  <g
     inkscape:label="Layer 1"
     inkscape:groupmode="layer"
     id="layer1" />
</svg>
