<?xml version="1.0" encoding="UTF-8" standalone="no"?>
<!-- Created with Inkscape (http://www.inkscape.org/) -->

<svg
   width="88.493599mm"
   height="96.82579mm"
   viewBox="0 0 88.493599 96.82579"
   version="1.1"
   id="svg1"
   xml:space="preserve"
   sodipodi:docname="gomibako_gomi.svg"
   inkscape:version="1.4.3 (0d15f75, 2025-12-25)"
   xmlns:inkscape="http://www.inkscape.org/namespaces/inkscape"
   xmlns:sodipodi="http://sodipodi.sourceforge.net/DTD/sodipodi-0.dtd"
   xmlns="http://www.w3.org/2000/svg"
   xmlns:svg="http://www.w3.org/2000/svg"><sodipodi:namedview
     id="namedview1"
     pagecolor="#ffffff"
     bordercolor="#000000"
     borderopacity="0.25"
     inkscape:showpageshadow="2"
     inkscape:pageopacity="0.0"
     inkscape:pagecheckerboard="0"
     inkscape:deskcolor="#d1d1d1"
     inkscape:document-units="mm"
     inkscape:zoom="1.4342733"
     inkscape:cx="287.25348"
     inkscape:cy="153.03917"
     inkscape:window-width="1920"
     inkscape:window-height="1001"
     inkscape:window-x="-9"
     inkscape:window-y="-9"
     inkscape:window-maximized="1"
     inkscape:current-layer="layer1"
     showguides="true" /><defs
     id="defs1" /><g
     inkscape:label="Layer 1"
     inkscape:groupmode="layer"
     id="layer1"
     transform="translate(-43.458761,-93.803103)"><path
       id="rect1"
       style="fill:#45c2dc;stroke:#211f7c;stroke-width:0.898181;stroke-linejoin:round"
       d="m 44.039317,111.11038 21.937392,71.651 0.135583,0.001 a 21.787519,7.4533362 0 0 0 5.52e-4,0.0227 21.787519,7.4533362 0 0 0 21.872356,7.39466 21.787519,7.4533362 0 0 0 21.66844,-7.06945 h 0.001 l 0.007,-0.0239 21.73291,-71.97621 z" /><ellipse
       style="fill:#229ab4;fill-opacity:1;stroke:#211f7c;stroke-width:0.902799;stroke-linejoin:round;stroke-opacity:1"
       id="path1"
       cx="87.705559"
       cy="109.58826"
       rx="43.795399"
       ry="15.333755" /><path
       id="path12"
       style="fill:#cacaca;fill-opacity:1;stroke:#211f7c;stroke-width:0.8;stroke-linejoin:round;stroke-dasharray:none;stroke-opacity:1"
       d="m 70.87061,123.74387 a 43.795399,15.333755 0 0 0 16.308565,1.17719 c 0.115551,-0.16833 0.204811,-0.3645 0.260449,-0.58705 0.182608,-0.73044 -2.766756,-1.90747 -2.766756,-2.76675 0,-1.4303 0.162109,-3.28443 -0.36897,-4.61212 -0.07167,-0.17918 -0.535624,-0.33327 -0.553454,-0.36897 -0.055,-0.11 0.03889,-0.2523 0,-0.36897 -0.107529,-0.32259 -1.035004,-0.66104 -1.291395,-0.73794 -0.743347,-0.223 -1.777827,-0.63681 -2.582788,-0.73743 -0.305078,-0.0381 -0.705021,0.2174 -0.922424,0 -0.04348,-0.0435 0.0275,-0.12948 0,-0.18448 -0.181737,-0.36348 -0.57997,-0.73832 -0.737939,-1.10691 -0.153196,-0.35746 -0.168364,-0.77343 -0.368453,-1.10691 -0.178964,-0.29828 -0.520643,-0.46632 -0.73794,-0.73794 -0.03841,-0.048 0.05833,-0.16508 0,-0.18448 -0.810257,-0.27008 -2.447367,0.68505 -2.951758,0.92242 -0.33927,0.15965 -2.275243,0.97508 -2.767273,1.29139 -0.517247,0.33251 -0.963729,0.76582 -1.475362,1.10691 -0.234444,0.1563 -0.582375,-0.44975 -0.737939,-0.55345 -0.492967,-0.32865 -0.714872,-0.75332 -1.291394,-0.36897 -0.440123,0.29342 -0.91736,0.54839 -1.291394,0.92242 -0.08696,0.087 0,0.24599 0,0.36897 0,1.88212 0.616718,1.60188 1.291394,2.95124 0.12785,0.2557 -0.623082,0.84848 -0.73794,1.10691 -1.323536,2.97796 -0.511156,2.8701 2.029334,3.50522 0.793141,0.19827 1.427981,0.47045 2.213301,0.18396 -0.169759,0.29709 -0.35092,0.58822 -0.519864,0.88574 z" /><path
       style="fill:#cacaca;fill-opacity:1;stroke:#211f7c;stroke-width:0.8;stroke-linejoin:round;stroke-dasharray:none;stroke-opacity:1"
       d="m 52.616626,114.23241 c -0.78532,0.28649 -1.420524,0.0138 -2.213665,-0.18447 -2.54049,-0.63512 -3.352729,-0.52701 -2.029193,-3.50497 0.114858,-0.25843 0.865738,-0.85113 0.737888,-1.10683 -0.674676,-1.34936 -1.291304,-1.06943 -1.291304,-2.95155 0,-0.12298 -0.08696,-0.28199 0,-0.36895 0.374034,-0.37403 0.851181,-0.62894 1.291304,-0.92236 0.576522,-0.38435 0.798338,0.0403 1.291305,0.36895 0.155564,0.1037 0.503444,0.70971 0.737888,0.55341 0.511633,-0.34109 0.95853,-0.77432 1.475777,-1.10683 0.49203,-0.31631 2.427812,-1.13165 2.767082,-1.2913 0.504391,-0.23737 2.141294,-1.19245 2.951551,-0.92237 0.05833,0.0194 -0.03841,0.13646 0,0.18448 0.217297,0.27162 0.558924,0.43961 0.737888,0.73789 0.200089,0.33348 0.21575,0.74937 0.368946,1.10683 0.157969,0.36859 0.556149,0.74335 0.737886,1.10683 0.0275,0.055 -0.04348,0.14099 0,0.18447 0.217403,0.2174 0.617283,-0.0381 0.922361,0 0.804961,0.10062 1.839262,0.51489 2.582609,0.73789 0.256391,0.0769 1.183775,0.4153 1.291304,0.73789 0.03889,0.11667 -0.055,0.25894 0,0.36894 0.01783,0.0357 0.481748,0.18977 0.553416,0.36895 0.531079,1.32769 0.368945,3.1815 0.368945,4.6118 0,0.85928 2.949689,2.03664 2.767081,2.76708 -0.257288,1.02915 -1.232,1.48763 -2.213665,1.2913 -0.134826,-0.027 -0.234117,-0.1575 -0.368943,-0.18447 -0.674259,-0.13485 -1.513975,0 -2.213666,0 -0.184472,0 -0.399925,-0.10233 -0.553415,0 -0.102328,0.0682 0,0.24596 0,0.36894 0,0.5462 -0.05462,2.8217 -0.368946,3.13603 -0.173921,0.17392 -0.494398,0.0348 -0.737888,0 -1.145061,-0.16358 -1.531022,-0.82544 -2.398136,-1.47578 -0.109998,-0.0825 -0.271719,-0.0872 -0.368943,-0.18447 -0.09723,-0.0972 -0.08725,-0.27172 -0.184473,-0.36894 -0.09723,-0.0972 -0.271719,-0.0873 -0.368945,-0.18448 -0.122047,-0.12205 -0.306039,-0.67498 -0.553416,-0.92236 -0.353978,-0.35397 -3.513365,0.81336 -4.058386,0.92236 -1.805881,0.36118 -2.398135,-0.32148 -2.398135,-1.84472 0,-0.24596 -0.109998,-0.51789 0,-0.73788 0.221707,-0.44342 0.491926,-0.86087 0.737888,-1.29131 z"
       id="path2-1" /><path
       style="fill:#cacaca;fill-opacity:1;stroke:#211f7c;stroke-width:0.8;stroke-linejoin:round;stroke-dasharray:none;stroke-opacity:1"
       d="m 85.821595,108.88272 c -0.78532,0.28649 -1.420524,0.0138 -2.213665,-0.18447 -2.54049,-0.63512 -3.352729,-0.52701 -2.029193,-3.50497 0.114858,-0.25843 0.865738,-0.85113 0.737888,-1.10683 -0.674676,-1.34936 -1.291304,-1.06943 -1.291304,-2.95155 0,-0.12298 -0.08696,-0.28199 0,-0.36895 0.374034,-0.37403 0.851181,-0.62894 1.291304,-0.922362 0.576522,-0.38435 0.798338,0.0403 1.291305,0.368952 0.155564,0.1037 0.503444,0.70971 0.737888,0.55341 0.511633,-0.34109 0.95853,-0.774322 1.475777,-1.106832 0.49203,-0.31631 2.427812,-1.13165 2.767082,-1.2913 0.504391,-0.23737 2.141294,-1.19245 2.951551,-0.92237 0.05833,0.0194 -0.03841,0.13646 0,0.18448 0.217297,0.27162 0.558924,0.43961 0.737888,0.73789 0.200089,0.33348 0.21575,0.74937 0.368946,1.10683 0.157969,0.36859 0.556149,0.743352 0.737886,1.106832 0.0275,0.055 -0.04348,0.14099 0,0.18447 0.217403,0.2174 0.617283,-0.0381 0.922361,0 0.804961,0.10062 1.839262,0.51489 2.582609,0.73789 0.256391,0.0769 1.183775,0.4153 1.291304,0.73789 0.03889,0.11667 -0.055,0.25894 0,0.36894 0.01783,0.0357 0.481748,0.18977 0.553416,0.36895 0.531079,1.32769 0.368945,3.1815 0.368945,4.6118 0,0.85928 2.949687,2.03664 2.767077,2.76708 -0.25728,1.02915 -1.232,1.48763 -2.213661,1.2913 -0.134826,-0.027 -0.234117,-0.1575 -0.368943,-0.18447 -0.674259,-0.13485 -1.513975,0 -2.213666,0 -0.184472,0 -0.399925,-0.10233 -0.553415,0 -0.102328,0.0682 0,0.24596 0,0.36894 0,0.5462 -0.05462,2.8217 -0.368946,3.13603 -0.173921,0.17392 -0.494398,0.0348 -0.737888,0 -1.145061,-0.16358 -1.531022,-0.82544 -2.398136,-1.47578 -0.109998,-0.0825 -0.271719,-0.0872 -0.368943,-0.18447 -0.09723,-0.0972 -0.08725,-0.27172 -0.184473,-0.36894 -0.09723,-0.0972 -0.271719,-0.0873 -0.368945,-0.18448 -0.122047,-0.12205 -0.306039,-0.67498 -0.553416,-0.92236 -0.353978,-0.35397 -3.513365,0.81336 -4.058386,0.92236 -1.805881,0.36118 -2.398135,-0.32148 -2.398135,-1.84472 0,-0.24596 -0.109998,-0.51789 0,-0.73788 0.221707,-0.44342 0.491926,-0.86087 0.737888,-1.29131 z"
       id="path2-9" /><path
       id="path13"
       style="fill:#cacaca;fill-opacity:1;stroke:#211f7c;stroke-width:0.8;stroke-linejoin:round;stroke-dasharray:none;stroke-opacity:1"
       d="m 96.377063,124.61823 a 43.795399,15.333755 0 0 0 15.730827,-2.29701 c -0.79089,-0.55536 -1.75132,-1.14935 -1.75132,-1.6397 0,-1.4303 0.16211,-3.28391 -0.36897,-4.6116 -0.0711,-0.17778 -0.52841,-0.3312 -0.55294,-0.36846 l -5.1e-4,-5.1e-4 c -0.055,-0.11 0.0389,-0.2523 0,-0.36897 -0.10753,-0.32259 -1.03501,-0.66104 -1.2914,-0.73794 -0.74334,-0.223 -1.77782,-0.63732 -2.58278,-0.73794 -0.30507,-0.0381 -0.70502,0.2174 -0.92243,0 -0.0435,-0.0435 0.0275,-0.12949 0,-0.18449 -0.18173,-0.36348 -0.57945,-0.73831 -0.73742,-1.1069 -0.1532,-0.35746 -0.16888,-0.77343 -0.36897,-1.10691 -0.17896,-0.29828 -0.52064,-0.46632 -0.73794,-0.73794 -0.0384,-0.048 0.0583,-0.16509 0,-0.18449 -0.81025,-0.27008 -2.44737,0.68506 -2.951759,0.92243 -0.33927,0.15965 -2.275243,0.97508 -2.767273,1.29139 -0.517247,0.33251 -0.963729,0.76582 -1.475362,1.10691 -0.234444,0.1563 -0.582376,-0.44976 -0.73794,-0.55346 -0.492967,-0.32865 -0.714872,-0.75331 -1.291394,-0.36896 -0.440123,0.29342 -0.91736,0.54839 -1.291394,0.92242 -0.08696,0.087 0,0.24599 0,0.36897 0,1.88212 0.616718,1.6024 1.291394,2.95176 0.12785,0.2557 -0.623081,0.84796 -0.737939,1.10639 -1.323536,2.97796 -0.511157,2.87009 2.029333,3.50521 0.793141,0.19827 1.427982,0.47098 2.213302,0.18449 -0.245962,0.43044 -0.515716,0.84797 -0.737423,1.29139 -0.109998,0.21999 0,0.49198 0,0.73794 0,0.22383 0.01276,0.4291 0.04031,0.61598 z" /><path
       style="fill:#cacaca;fill-opacity:1;stroke:#211f7c;stroke-width:0.8;stroke-linejoin:round;stroke-dasharray:none;stroke-opacity:1"
       d="m 83.381365,109.20746 c 0.72799,-0.0119 1.261131,-0.44609 1.84472,-0.73789 0.164997,-0.0825 0.372528,0.0362 0.553418,0 0.81416,-0.16283 1.717709,-0.58517 2.582609,-0.36895 0.606753,0.15169 0.65474,1.44807 1.291304,1.66025 0.233341,0.0778 0.491924,0 0.737888,0 1.661256,0 3.528428,0.0818 5.165217,0 1.192237,-0.0596 2.475542,-1.32699 3.68944,-0.92236 0.407326,0.13578 0.641628,0.40101 0.922359,0.73789 1.23702,1.48442 0.64567,2.76719 0.92236,4.42733 0.10032,0.60189 0.40463,1.24955 0.55342,1.84472 0.25637,1.0255 0.24862,2.12003 0.55342,3.13603 0.0951,0.31717 0.36894,0.59122 0.36894,0.92235 0,0.16642 -2.820182,-0.15792 -3.136026,0 -0.148394,0.0742 -0.598054,1.67961 -0.737889,2.0292 -0.128341,0.32086 -0.458504,0.54271 -0.553415,0.92236 -0.04474,0.17896 0.130442,0.42297 0,0.55341 -0.413182,0.41319 -3.131429,-0.78515 -4.058386,-0.55341 -0.80037,0.20009 -1.123926,1.48005 -1.84472,1.66025 -0.413419,0.10335 -5.125802,0.0263 -5.165217,0 -0.331957,-0.22131 -2.854126,-4.2221 -2.951554,-4.61181 -0.02983,-0.1193 0.03889,-0.25227 0,-0.36894 -0.212259,-0.63678 -1.893564,0.0678 -2.398135,-0.18447 -0.274995,-0.1375 -0.520486,-0.33601 -0.737889,-0.55342 -0.04348,-0.0435 0.04348,-0.14099 0,-0.18447 -0.242207,-0.2422 -1.006306,-0.52025 -1.106831,-0.92236 -0.62851,-2.51403 0.723003,1.26154 -0.368946,-0.92236 -0.265806,-0.53161 0.04337,-1.20457 -0.184473,-1.66025 -0.03889,-0.0778 -0.156972,-0.10197 -0.18447,-0.18447 -0.09966,-0.29898 0.0033,-1.06487 0.18447,-1.2913 0.750655,-0.93832 1.498103,-0.25341 2.398139,-0.55342 0.584517,-0.19484 1.5344,-0.67067 1.84472,-1.2913 0.168828,-0.33766 -0.08714,-0.81484 -0.184473,-1.10684 -0.155559,-0.46668 0,-0.98385 0,-1.47577 z"
       id="path3" /><path
       style="fill:#cacaca;fill-opacity:1;stroke:#211f7c;stroke-width:0.8;stroke-linejoin:round;stroke-dasharray:none;stroke-opacity:1"
       d="m 64.487229,100.14751 c 0.72799,-0.0119 1.261131,-0.446091 1.84472,-0.737891 0.164997,-0.0825 0.372528,0.0362 0.553418,0 0.81416,-0.16283 1.717709,-0.58517 2.582609,-0.36895 0.606753,0.15169 0.65474,1.448071 1.291304,1.660251 0.233341,0.0778 0.491924,0 0.737888,0 1.661256,0 3.528428,0.0818 5.165217,0 1.192237,-0.0596 2.475542,-1.326991 3.68944,-0.922361 0.407326,0.13578 0.641628,0.401011 0.922359,0.737891 1.23702,1.48442 0.64567,2.76719 0.92236,4.42733 0.10032,0.60189 0.40463,1.24955 0.55342,1.84472 0.25637,1.0255 0.24862,2.12003 0.55342,3.13603 0.0951,0.31717 0.36894,0.59122 0.36894,0.92235 0,0.16642 -2.820182,-0.15792 -3.136026,0 -0.148394,0.0742 -0.598054,1.67961 -0.737889,2.0292 -0.128341,0.32086 -0.458504,0.54271 -0.553415,0.92236 -0.04474,0.17896 0.130442,0.42297 0,0.55341 -0.413182,0.41319 -3.131429,-0.78515 -4.058386,-0.55341 -0.80037,0.20009 -1.123926,1.48005 -1.84472,1.66025 -0.413419,0.10335 -5.125802,0.0263 -5.165217,0 -0.331957,-0.22131 -2.854126,-4.2221 -2.951554,-4.61181 -0.02983,-0.1193 0.03889,-0.25227 0,-0.36894 -0.212259,-0.63678 -1.893564,0.0678 -2.398135,-0.18447 -0.274995,-0.1375 -0.520486,-0.33601 -0.737889,-0.55342 -0.04348,-0.0435 0.04348,-0.14099 0,-0.18447 -0.242207,-0.2422 -1.006306,-0.52025 -1.106831,-0.92236 -0.62851,-2.51403 0.723003,1.26154 -0.368946,-0.92236 -0.265806,-0.53161 0.04337,-1.20457 -0.184473,-1.66025 -0.03889,-0.0778 -0.156972,-0.10197 -0.18447,-0.18447 -0.09966,-0.29898 0.0033,-1.06487 0.18447,-1.2913 0.750655,-0.93832 1.498103,-0.25341 2.398139,-0.55342 0.584517,-0.19484 1.5344,-0.67067 1.84472,-1.2913 0.168828,-0.33766 -0.08714,-0.81484 -0.184473,-1.10684 -0.155559,-0.46668 0,-0.98385 0,-1.47577 z"
       id="path3-13" /><path
       id="path10"
       style="fill:#cacaca;fill-opacity:1;stroke:#211f7c;stroke-width:0.8;stroke-linejoin:round;stroke-dasharray:none;stroke-opacity:1"
       d="m 52.252625,118.59069 a 43.795399,15.333755 0 0 0 14.340209,4.43178 c 0.08452,-0.0928 0.168104,-0.1852 0.250631,-0.27699 0.164444,-0.18291 0.279648,-0.42679 0.49351,-0.54829 0.583379,-0.33151 1.579598,0.49914 2.098063,0.14935 0.739047,-0.49861 1.028861,-1.45249 1.452108,-2.1668 0.09402,-0.15871 0.321033,-0.234 0.370003,-0.41186 0.173181,-0.62905 0.206874,-1.3157 0.684713,-1.865 -0.365805,-0.32889 -0.646566,-0.79016 -1.097607,-0.9865 -0.282242,-0.12282 -0.807974,-0.25176 -0.946196,-0.60307 -0.254049,-0.6457 0.02694,-1.67006 0.272852,-2.235 0.378646,-0.86988 1.388066,-0.96779 1.192175,-2.15336 -0.04705,-0.28633 -0.548167,-0.8747 -0.837158,-1.00045 -0.07974,-0.0347 -0.176589,0.0365 -0.260449,0.0134 -0.491217,-0.1352 -0.785016,-0.81479 -1.358057,-0.97255 -0.249647,-0.0687 -0.431009,-0.11318 -0.558622,-0.13901 -0.101462,-0.0571 -0.225244,-0.1247 -0.374138,-0.2036 -0.366229,-0.19408 -1.083713,0.1885 -1.425752,0.2067 -0.06142,0.003 -0.07551,-0.1265 -0.136943,-0.1235 -0.307031,0.0163 -0.61875,0.0662 -0.904854,0.1788 -0.524944,0.20655 -1.125532,1.92774 -1.740979,1.65984 -0.112768,-0.0491 -0.165245,-0.18889 -0.273885,-0.24649 -0.354943,-0.1881 -5.016778,-0.98722 -5.403288,-0.88832 -0.04591,0.0117 -3.253469,3.46458 -3.453019,3.84111 -0.34788,0.65649 0.387352,1.75254 10e-4,2.4815 -0.29307,0.55301 -1.556395,1.26727 -2.38435,1.85828 z" /><path
       id="path11"
       style="fill:#cacaca;fill-opacity:1;stroke:#211f7c;stroke-width:0.8;stroke-linejoin:round;stroke-dasharray:none;stroke-opacity:1"
       d="m 79.494373,124.65027 a 43.795399,15.333755 0 0 0 8.211385,0.27182 43.795399,15.333755 0 0 0 11.354862,-0.52452 c 0.08313,-0.21502 0.19585,-0.42166 0.361218,-0.61184 -0.365805,-0.32889 -0.646565,-0.79069 -1.097607,-0.98702 -0.282242,-0.12282 -0.807974,-0.25124 -0.946196,-0.60255 -0.254049,-0.6457 0.02694,-1.67058 0.272852,-2.23552 0.378646,-0.86988 1.38755,-0.96779 1.191659,-2.15336 -0.04705,-0.28633 -0.547651,-0.87471 -0.836642,-1.00046 -0.07974,-0.0347 -0.176589,0.0371 -0.260449,0.014 -0.491217,-0.1352 -0.785016,-0.81531 -1.358057,-0.97307 -0.249647,-0.0687 -0.431009,-0.11267 -0.558622,-0.13849 -0.101462,-0.0572 -0.225243,-0.1247 -0.374137,-0.20361 -0.366229,-0.19408 -1.083714,0.18799 -1.425753,0.20619 -0.06142,0.003 -0.07603,-0.12599 -0.137459,-0.12299 -0.307031,0.0163 -0.618751,0.0662 -0.904855,0.1788 -0.524944,0.20655 -1.125015,1.92775 -1.740462,1.65985 -0.112768,-0.0491 -0.165762,-0.1889 -0.274402,-0.2465 -0.354943,-0.1881 -5.016261,-0.98773 -5.402771,-0.88883 -0.04591,0.0117 -3.253986,3.46458 -3.453536,3.84111 -0.34788,0.65649 0.387869,1.75305 0.0015,2.48201 -0.322957,0.60941 -1.82412,1.41471 -2.622578,2.03502 z" /><path
       id="path15"
       style="fill:#cacaca;fill-opacity:1;stroke:#211f7c;stroke-width:0.8;stroke-linejoin:round;stroke-dasharray:none;stroke-opacity:1"
       inkscape:transform-center-x="-0.37226302"
       inkscape:transform-center-y="0.55574456"
       d="m 113.69125,121.93106 a 43.795399,15.333755 0 0 0 11.60239,-4.47363 c 0.0405,-0.0901 0.0751,-0.14839 0.10077,-0.16123 0.0408,-0.0204 0.12343,-0.0329 0.23616,-0.0393 a 43.795399,15.333755 0 0 0 2.35387,-1.64848 c -0.13972,-0.78743 -0.18318,-1.59877 -0.37621,-2.37092 -0.14879,-0.59517 -0.45313,-1.24296 -0.55345,-1.84485 -0.27669,-1.66014 0.31459,-2.9427 -0.92243,-4.42712 -0.28073,-0.33688 -0.51509,-0.60216 -0.92242,-0.73794 -1.2139,-0.40463 -2.49694,0.86283 -3.68918,0.92243 -1.63679,0.0818 -3.5038,0 -5.16506,0 -0.24596,0 -0.5046,0.0778 -0.73794,0 -0.63657,-0.21218 -0.68465,-1.50867 -1.2914,-1.66036 -0.8649,-0.21622 -1.76862,0.20613 -2.58278,0.36896 -0.18089,0.0362 -0.38847,-0.0825 -0.55346,0 -0.58359,0.2918 -1.11634,0.72604 -1.84433,0.73794 0,0.49192 -0.15556,1.0092 0,1.47588 0.0974,0.292 0.35332,0.76925 0.18449,1.10691 -0.31032,0.62063 -1.26033,1.09656 -1.84485,1.2914 -0.90004,0.30001 -1.64766,-0.38487 -2.39831,0.55345 -0.18147,0.22643 -0.28418,0.9919 -0.18448,1.29088 0.0275,0.0825 0.14558,0.10668 0.18448,0.18448 0.22787,0.45568 -0.0813,1.12876 0.18449,1.66037 0.1158,0.23161 0.20415,0.39633 0.27027,0.50849 0.0253,0.11366 0.0578,0.25046 0.0987,0.41393 0.10052,0.40211 0.8647,0.68023 1.10691,0.92243 0.0435,0.0435 -0.0435,0.14098 0,0.18448 0.2174,0.21741 0.46294,0.41595 0.73794,0.55345 0.50457,0.25227 2.18552,-0.45229 2.39778,0.18449 0.0389,0.11667 -0.0298,0.24967 0,0.36897 0.0974,0.38971 2.6198,4.39029 2.95176,4.6116 0.009,0.006 0.26391,0.0147 0.65629,0.0233 z" /><path
       style="fill:#cacaca;fill-opacity:1;stroke:#211f7c;stroke-width:0.8;stroke-linejoin:round;stroke-dasharray:none;stroke-opacity:1"
       d="m 112.82636,105.23943 c 0.18522,-2.57551 -2.04292,-4.05901 -4.19972,-4.69119 -1.61173,-0.47241 0.0287,-0.17283 -1.16592,0.0427 -0.12103,0.0218 -0.23114,-0.10828 -0.35404,-0.10377 -0.46596,0.0171 -0.39514,1.42204 -2.00833,0.9492 -0.91251,-0.26747 -1.95653,-0.49221 -2.83238,-0.83021 -0.20825,-0.0803 -1.14475,-1.009475 -1.48945,-0.821034 -0.10795,0.05902 -0.0416,0.247934 -0.10377,0.354044 -0.4429,0.75572 -0.824361,1.69519 -0.95534,2.60348 -0.06224,0.43171 0.06671,1.26129 -0.289968,1.64511 -0.425597,0.45795 -1.078382,0.0979 -1.571863,0.11597 -0.184333,0.007 -0.06243,0.3719 -0.155661,0.53107 -0.06948,0.11864 -0.226061,0.17603 -0.2808,0.30216 -0.553249,1.27473 -0.914912,2.82772 -0.66235,4.22722 0.0309,0.17117 0.219393,0.28667 0.250277,0.45783 0.01092,0.0605 -0.09693,0.13516 -0.05189,0.17702 0.127829,0.11875 1.812421,0.57574 1.947264,0.57077 0.378407,-0.0139 1.004069,-0.41838 1.217811,-0.21976 0.89832,0.83481 0.66522,2.3067 1.523,3.32992 0.39536,0.47161 3.94883,0.51721 4.10208,0.43343 0.40248,-0.22002 0.1561,-1.46611 0.51887,-1.77024 0.13331,-0.11173 0.31856,-0.14611 0.45784,-0.25028 0.11011,-0.0823 0.15206,-0.25392 0.28079,-0.30216 0.36419,-0.1364 0.78963,0.0555 1.16592,-0.0427 0.33658,-0.0878 0.58991,-0.37854 0.91565,-0.50054 0.1821,-0.0682 0.41235,0.0719 0.58297,-0.0214 0.16195,-0.0885 0.58878,-2.33191 0.77831,-2.65536 0.17591,-0.30009 0.64908,-0.27708 0.91564,-0.50055 0.14903,-0.12492 0.18367,-0.35427 0.3327,-0.47918 0.0471,-0.0395 0.11801,0.0346 0.17702,0.0519 0.0763,-0.0417 0.16971,-0.0614 0.22891,-0.12514 0.23446,-0.2523 0.27017,0.02 0.45783,-0.25027 0.49865,-0.71823 0.43278,-0.86383 0.2686,-2.22807 z"
       id="path4" /><path
       style="fill:#cacaca;fill-opacity:1;stroke:#211f7c;stroke-width:0.8;stroke-linejoin:round;stroke-dasharray:none;stroke-opacity:1"
       d="m 71.944014,112.48382 c 0.755528,2.46915 3.368607,3.04984 5.608296,2.86215 1.673673,-0.14026 0.03555,0.17155 1.072152,-0.46009 0.105023,-0.064 0.254638,0.0177 0.367652,-0.0308 0.428482,-0.18387 -0.143969,-1.46888 1.531209,-1.60927 0.947588,-0.0794 2.002434,-0.24608 2.94124,-0.24648 0.223198,-1.4e-4 1.431649,0.52902 1.685261,0.229 0.07943,-0.094 -0.05054,-0.24627 -0.03081,-0.36765 0.140743,-0.86455 0.157949,-1.87837 -0.04725,-2.77282 -0.09754,-0.42513 -0.516838,-1.15246 -0.322473,-1.63904 0.231926,-0.58058 0.970616,-0.47999 1.424409,-0.67473 0.16952,-0.0727 -0.07581,-0.36941 -0.04622,-0.55148 0.02204,-0.13571 0.147419,-0.24568 0.153015,-0.38306 0.05661,-1.38846 -0.165788,-2.96743 -0.905797,-4.18181 -0.09052,-0.14853 -0.307974,-0.18833 -0.398473,-0.33686 -0.032,-0.0525 0.0417,-0.16101 -0.01541,-0.18382 -0.162038,-0.0647 -1.898115,0.11621 -2.022102,0.16945 -0.347975,0.14933 -0.785782,0.75217 -1.056747,0.64393 -1.138828,-0.45492 -1.451923,-1.91189 -2.620843,-2.55716 -0.538769,-0.29741 -3.869828,0.94084 -3.982583,1.07422 -0.29613,0.35031 0.382832,1.42384 0.154053,1.83828 -0.08408,0.15227 -0.244485,0.25111 -0.33685,0.39847 -0.07303,0.11651 -0.05032,0.29166 -0.153016,0.38306 -0.290547,0.25851 -0.756547,0.23285 -1.072153,0.46008 -0.282293,0.20326 -0.413822,0.56573 -0.673692,0.79694 -0.145273,0.12925 -0.410542,0.0816 -0.536081,0.23005 -0.119152,0.14095 0.291289,2.38739 0.231079,2.75741 -0.05592,0.34332 -0.505582,0.4924 -0.673678,0.79693 -0.09398,0.17024 -0.04363,0.39665 -0.13762,0.56689 -0.02971,0.0539 -0.122551,0.0103 -0.183826,0.0154 -0.05615,0.0664 -0.136162,0.11848 -0.168421,0.19923 -0.127765,0.31985 -0.259221,0.0787 -0.33685,0.39847 -0.206253,0.84969 -0.09234,0.96176 0.552524,2.17512 z"
       id="path4-2"
       inkscape:transform-center-x="0.55513073"
       inkscape:transform-center-y="-0.7372398" /><path
       id="path16"
       style="fill:#cacaca;fill-opacity:1;stroke:#211f7c;stroke-width:0.8;stroke-linejoin:round;stroke-dasharray:none;stroke-opacity:1"
       inkscape:transform-center-x="0.26701202"
       inkscape:transform-center-y="-0.057743407"
       d="m 62.488692,122.12485 a 43.795399,15.333755 0 0 0 11.630815,2.0407 c 0.285857,-0.34552 0.576933,-0.68142 0.874882,-0.9772 0.15837,-0.15727 1.389271,-0.63262 1.358056,-1.02423 -0.0098,-0.12267 -0.20965,-0.13919 -0.281119,-0.23926 -0.5089,-0.71293 -1.210355,-1.44473 -1.985926,-1.93528 -0.368634,-0.23315 -1.17872,-0.45404 -1.383378,-0.93638 -0.244186,-0.57554 0.351351,-1.02425 0.536402,-1.48208 0.06916,-0.171 -0.313956,-0.20904 -0.421163,-0.35915 -0.07992,-0.11187 -0.06847,-0.27834 -0.161231,-0.37982 -0.937577,-1.02566 -2.207314,-1.99006 -3.587894,-2.33113 -0.168865,-0.0417 -0.351532,0.0831 -0.520382,0.0413 -0.05969,-0.0147 -0.08343,-0.14391 -0.140043,-0.11989 -0.160608,0.0682 -1.266178,1.4195 -1.316716,1.54461 -0.141899,0.35107 -0.02802,1.08751 -0.296622,1.20148 -1.128917,0.47899 -2.377463,-0.33509 -3.661792,0.03 -0.59196,0.16825 -2.085065,3.39312 -2.071192,3.56723 0.03644,0.45725 1.274626,0.74146 1.404049,1.19682 0.01504,0.053 0.02107,0.10707 0.02325,0.16227 z" /><path
       id="path14"
       style="fill:#cacaca;fill-opacity:1;stroke:#211f7c;stroke-width:0.8;stroke-linejoin:round;stroke-dasharray:none;stroke-opacity:1"
       d="m 113.85403,121.8892 a 43.795399,15.333755 0 0 0 5.83892,-1.82728 c -0.19889,-0.28319 -0.44859,-0.57715 -0.35708,-0.76016 0.54843,-1.09686 2.02611,-1.28735 2.76675,-2.3983 0.34136,-0.51205 -0.61443,-3.93517 -0.73793,-4.05867 -0.32435,-0.32435 -1.45045,0.26259 -1.84434,0 -0.14471,-0.0965 -0.22983,-0.2641 -0.36897,-0.36845 -0.11,-0.0825 -0.28647,-0.0745 -0.36897,-0.18449 -0.23334,-0.31112 -0.16889,-0.77343 -0.36897,-1.10691 -0.17897,-0.29828 -0.52924,-0.45966 -0.73794,-0.73793 -0.11667,-0.15556 -0.047,-0.41596 -0.18448,-0.55346 -0.13051,-0.13051 -2.40357,0.0909 -2.76727,0 -0.33745,-0.0844 -0.44851,-0.545 -0.73794,-0.73794 -0.16179,-0.10787 -0.39167,-0.0766 -0.55346,-0.18448 -0.0512,-0.0341 0,-0.123 0,-0.18449 -0.0615,-0.0615 -0.1067,-0.14559 -0.18448,-0.18448 -0.30806,-0.15403 -0.0568,-0.26491 -0.36897,-0.36897 -0.82949,-0.27649 -0.95032,-0.17231 -2.2133,0.36897 -2.52362,0.54669 -3.32073,3.102 -3.32073,5.34954 0,1.67954 -0.1739,0.0212 0.36897,1.10691 0.055,0.11 -0.0389,0.2523 0,0.36897 0.14744,0.44234 1.47588,-0.0207 1.47588,1.66036 0,0.95091 0.078,2.0162 0,2.95176 -0.0185,0.22243 -0.64676,1.38207 -0.36897,1.65985 0.087,0.087 0.24966,-0.0298 0.36897,0 0.84978,0.21245 1.85881,0.31427 2.76727,0.18448 0.43179,-0.0617 1.1912,-0.4188 1.65985,-0.18448 0.10013,0.0501 0.17734,0.11491 0.23719,0.18965 z" /></g></svg>
