<?xml version="1.0" encoding="UTF-8" standalone="no"?>
<!-- Created with Inkscape (http://www.inkscape.org/) -->

<svg
   width="210mm"
   height="297mm"
   viewBox="0 0 210 297"
   version="1.1"
   id="svg1"
   xml:space="preserve"
   sodipodi:docname="gomibako_gomi.svg"
   inkscape:version="1.4.3 (0d15f75, 2025-12-25)"
   xmlns:inkscape="http://www.inkscape.org/namespaces/inkscape"
   xmlns:sodipodi="http://sodipodi.sourceforge.net/DTD/sodipodi-0.dtd"
   xmlns="http://www.w3.org/2000/svg"
   xmlns:svg="http://www.w3.org/2000/svg"><sodipodi:namedview
     id="namedview1"
     pagecolor="#ffffff"
     bordercolor="#000000"
     borderopacity="0.25"
     inkscape:showpageshadow="2"
     inkscape:pageopacity="0.0"
     inkscape:pagecheckerboard="0"
     inkscape:deskcolor="#d1d1d1"
     inkscape:document-units="mm"
     inkscape:zoom="1.4342733"
     inkscape:cx="451.79674"
     inkscape:cy="506.52829"
     inkscape:window-width="1920"
     inkscape:window-height="1001"
     inkscape:window-x="-9"
     inkscape:window-y="-9"
     inkscape:window-maximized="1"
     inkscape:current-layer="layer1"
     showguides="true" /><defs
     id="defs1" /><g
     inkscape:label="Layer 1"
     inkscape:groupmode="layer"
     id="layer1"><path
       id="rect1"
       style="fill:#45c2dc;stroke:#211f7c;stroke-width:0.898181;stroke-linejoin:round"
       d="m 44.039317,111.11038 21.937392,71.651 0.135583,0.001 a 21.787519,7.4533362 0 0 0 5.52e-4,0.0227 21.787519,7.4533362 0 0 0 21.872356,7.39466 21.787519,7.4533362 0 0 0 21.66844,-7.06945 h 0.001 l 0.007,-0.0239 21.73291,-71.97621 z" /><ellipse
       style="fill:#229ab4;fill-opacity:1;stroke:#211f7c;stroke-width:0.902799;stroke-linejoin:round;stroke-opacity:1"
       id="path1"
       cx="87.705559"
       cy="109.58826"
       rx="43.795399"
       ry="15.333755" /><path
       id="path12"
       style="fill:#cacaca;fill-opacity:1;stroke:#211f7c;stroke-width:0.8;stroke-linejoin:round;stroke-dasharray:none;stroke-opacity:1"
       d="M 70.87061 123.74387 A 43.795399 15.333755 0 0 0 87.179175 124.92106 C 87.294726 124.75273 87.383986 124.55656 87.439624 124.33401 C 87.622232 123.60357 84.672868 122.42654 84.672868 121.56726 C 84.672868 120.13696 84.834977 118.28283 84.303898 116.95514 C 84.23223 116.77596 83.768274 116.62187 83.750444 116.58617 C 83.695444 116.47617 83.789334 116.33387 83.750444 116.2172 C 83.642915 115.89461 82.71544 115.55616 82.459049 115.47926 C 81.715702 115.25626 80.681222 114.84245 79.876261 114.74183 C 79.571183 114.70373 79.17124 114.95923 78.953837 114.74183 C 78.910357 114.69835 78.981337 114.61235 78.953837 114.55735 C 78.7721 114.19387 78.373867 113.81903 78.215898 113.45044 C 78.062702 113.09298 78.047534 112.67701 77.847445 112.34353 C 77.668481 112.04525 77.326802 111.87721 77.109505 111.60559 C 77.071095 111.55757 77.167835 111.44051 77.109505 111.42111 C 76.299248 111.15103 74.662138 112.10616 74.157747 112.34353 C 73.818477 112.50318 71.882504 113.31861 71.390474 113.63492 C 70.873227 113.96743 70.426745 114.40074 69.915112 114.74183 C 69.680668 114.89813 69.332737 114.29208 69.177173 114.18838 C 68.684206 113.85973 68.462301 113.43506 67.885779 113.81941 C 67.445656 114.11283 66.968419 114.3678 66.594385 114.74183 C 66.507425 114.82879 66.594385 114.98782 66.594385 115.1108 C 66.594385 116.99292 67.211103 116.71268 67.885779 118.06204 C 68.013629 118.31774 67.262697 118.91052 67.147839 119.16895 C 65.824303 122.14691 66.636683 122.03905 69.177173 122.67417 C 69.970314 122.87244 70.605154 123.14462 71.390474 122.85813 C 71.220715 123.15522 71.039554 123.44635 70.87061 123.74387 z " /><path
       style="fill:#cacaca;fill-opacity:1;stroke:#211f7c;stroke-width:0.8;stroke-linejoin:round;stroke-dasharray:none;stroke-opacity:1"
       d="m 52.616626,114.23241 c -0.78532,0.28649 -1.420524,0.0138 -2.213665,-0.18447 -2.54049,-0.63512 -3.352729,-0.52701 -2.029193,-3.50497 0.114858,-0.25843 0.865738,-0.85113 0.737888,-1.10683 -0.674676,-1.34936 -1.291304,-1.06943 -1.291304,-2.95155 0,-0.12298 -0.08696,-0.28199 0,-0.36895 0.374034,-0.37403 0.851181,-0.62894 1.291304,-0.92236 0.576522,-0.38435 0.798338,0.0403 1.291305,0.36895 0.155564,0.1037 0.503444,0.70971 0.737888,0.55341 0.511633,-0.34109 0.95853,-0.77432 1.475777,-1.10683 0.49203,-0.31631 2.427812,-1.13165 2.767082,-1.2913 0.504391,-0.23737 2.141294,-1.19245 2.951551,-0.92237 0.05833,0.0194 -0.03841,0.13646 0,0.18448 0.217297,0.27162 0.558924,0.43961 0.737888,0.73789 0.200089,0.33348 0.21575,0.74937 0.368946,1.10683 0.157969,0.36859 0.556149,0.74335 0.737886,1.10683 0.0275,0.055 -0.04348,0.14099 0,0.18447 0.217403,0.2174 0.617283,-0.0381 0.922361,0 0.804961,0.10062 1.839262,0.51489 2.582609,0.73789 0.256391,0.0769 1.183775,0.4153 1.291304,0.73789 0.03889,0.11667 -0.055,0.25894 0,0.36894 0.01783,0.0357 0.481748,0.18977 0.553416,0.36895 0.531079,1.32769 0.368945,3.1815 0.368945,4.6118 0,0.85928 2.949689,2.03664 2.767081,2.76708 -0.257288,1.02915 -1.232,1.48763 -2.213665,1.2913 -0.134826,-0.027 -0.234117,-0.1575 -0.368943,-0.18447 -0.674259,-0.13485 -1.513975,0 -2.213666,0 -0.184472,0 -0.399925,-0.10233 -0.553415,0 -0.102328,0.0682 0,0.24596 0,0.36894 0,0.5462 -0.05462,2.8217 -0.368946,3.13603 -0.173921,0.17392 -0.494398,0.0348 -0.737888,0 -1.145061,-0.16358 -1.531022,-0.82544 -2.398136,-1.47578 -0.109998,-0.0825 -0.271719,-0.0872 -0.368943,-0.18447 -0.09723,-0.0972 -0.08725,-0.27172 -0.184473,-0.36894 -0.09723,-0.0972 -0.271719,-0.0873 -0.368945,-0.18448 -0.122047,-0.12205 -0.306039,-0.67498 -0.553416,-0.92236 -0.353978,-0.35397 -3.513365,0.81336 -4.058386,0.92236 -1.805881,0.36118 -2.398135,-0.32148 -2.398135,-1.84472 0,-0.24596 -0.109998,-0.51789 0,-0.73788 0.221707,-0.44342 0.491926,-0.86087 0.737888,-1.29131 z"
       id="path2-1" /><path
       style="fill:#cacaca;fill-opacity:1;stroke:#211f7c;stroke-width:0.8;stroke-linejoin:round;stroke-dasharray:none;stroke-opacity:1"
       d="m 85.821595,108.88272 c -0.78532,0.28649 -1.420524,0.0138 -2.213665,-0.18447 -2.54049,-0.63512 -3.352729,-0.52701 -2.029193,-3.50497 0.114858,-0.25843 0.865738,-0.85113 0.737888,-1.10683 -0.674676,-1.34936 -1.291304,-1.06943 -1.291304,-2.95155 0,-0.12298 -0.08696,-0.28199 0,-0.36895 0.374034,-0.37403 0.851181,-0.62894 1.291304,-0.922362 0.576522,-0.38435 0.798338,0.0403 1.291305,0.368952 0.155564,0.1037 0.503444,0.70971 0.737888,0.55341 0.511633,-0.34109 0.95853,-0.774322 1.475777,-1.106832 0.49203,-0.31631 2.427812,-1.13165 2.767082,-1.2913 0.504391,-0.23737 2.141294,-1.19245 2.951551,-0.92237 0.05833,0.0194 -0.03841,0.13646 0,0.18448 0.217297,0.27162 0.558924,0.43961 0.737888,0.73789 0.200089,0.33348 0.21575,0.74937 0.368946,1.10683 0.157969,0.36859 0.556149,0.743352 0.737886,1.106832 0.0275,0.055 -0.04348,0.14099 0,0.18447 0.217403,0.2174 0.617283,-0.0381 0.922361,0 0.804961,0.10062 1.839262,0.51489 2.582609,0.73789 0.256391,0.0769 1.183775,0.4153 1.291304,0.73789 0.03889,0.11667 -0.055,0.25894 0,0.36894 0.01783,0.0357 0.481748,0.18977 0.553416,0.36895 0.531079,1.32769 0.368945,3.1815 0.368945,4.6118 0,0.85928 2.949687,2.03664 2.767077,2.76708 -0.25728,1.02915 -1.232,1.48763 -2.213661,1.2913 -0.134826,-0.027 -0.234117,-0.1575 -0.368943,-0.18447 -0.674259,-0.13485 -1.513975,0 -2.213666,0 -0.184472,0 -0.399925,-0.10233 -0.553415,0 -0.102328,0.0682 0,0.24596 0,0.36894 0,0.5462 -0.05462,2.8217 -0.368946,3.13603 -0.173921,0.17392 -0.494398,0.0348 -0.737888,0 -1.145061,-0.16358 -1.531022,-0.82544 -2.398136,-1.47578 -0.109998,-0.0825 -0.271719,-0.0872 -0.368943,-0.18447 -0.09723,-0.0972 -0.08725,-0.27172 -0.184473,-0.36894 -0.09723,-0.0972 -0.271719,-0.0873 -0.368945,-0.18448 -0.122047,-0.12205 -0.306039,-0.67498 -0.553416,-0.92236 -0.353978,-0.35397 -3.513365,0.81336 -4.058386,0.92236 -1.805881,0.36118 -2.398135,-0.32148 -2.398135,-1.84472 0,-0.24596 -0.109998,-0.51789 0,-0.73788 0.221707,-0.44342 0.491926,-0.86087 0.737888,-1.29131 z"
       id="path2-9" /><path
       id="path13"
       style="fill:#cacaca;fill-opacity:1;stroke:#211f7c;stroke-width:0.8;stroke-linejoin:round;stroke-dasharray:none;stroke-opacity:1"
       d="M 96.377063 124.61823 A 43.795399 15.333755 0 0 0 112.10789 122.32122 C 111.317 121.76586 110.35657 121.17187 110.35657 120.68152 C 110.35657 119.25122 110.51868 117.39761 109.9876 116.06992 C 109.91649 115.89214 109.45919 115.73872 109.43466 115.70146 L 109.43415 115.70095 C 109.37915 115.59095 109.47305 115.44865 109.43415 115.33198 C 109.32662 115.00939 108.39914 114.67094 108.14275 114.59404 C 107.39941 114.37104 106.36493 113.95672 105.55997 113.8561 C 105.2549 113.818 104.85495 114.0735 104.63754 113.8561 C 104.59404 113.81262 104.66504 113.72661 104.63754 113.67161 C 104.45581 113.30813 104.05809 112.9333 103.90012 112.56471 C 103.74692 112.20725 103.73124 111.79128 103.53115 111.4578 C 103.35219 111.15952 103.01051 110.99148 102.79321 110.71986 C 102.75481 110.67184 102.85151 110.55477 102.79321 110.53537 C 101.98296 110.26529 100.34584 111.22043 99.841451 111.4578 C 99.502181 111.61745 97.566208 112.43288 97.074178 112.74919 C 96.556931 113.0817 96.110449 113.51501 95.598816 113.8561 C 95.364372 114.0124 95.01644 113.40634 94.860876 113.30264 C 94.367909 112.97399 94.146004 112.54933 93.569482 112.93368 C 93.129359 113.2271 92.652122 113.48207 92.278088 113.8561 C 92.191128 113.94306 92.278088 114.10209 92.278088 114.22507 C 92.278088 116.10719 92.894806 115.82747 93.569482 117.17683 C 93.697332 117.43253 92.946401 118.02479 92.831543 118.28322 C 91.508007 121.26118 92.320386 121.15331 94.860876 121.78843 C 95.654017 121.9867 96.288858 122.25941 97.074178 121.97292 C 96.828216 122.40336 96.558462 122.82089 96.336755 123.26431 C 96.226757 123.4843 96.336755 123.75629 96.336755 124.00225 C 96.336755 124.22608 96.349516 124.43135 96.377063 124.61823 z " /><path
       style="fill:#cacaca;fill-opacity:1;stroke:#211f7c;stroke-width:0.8;stroke-linejoin:round;stroke-dasharray:none;stroke-opacity:1"
       d="m 83.381365,109.20746 c 0.72799,-0.0119 1.261131,-0.44609 1.84472,-0.73789 0.164997,-0.0825 0.372528,0.0362 0.553418,0 0.81416,-0.16283 1.717709,-0.58517 2.582609,-0.36895 0.606753,0.15169 0.65474,1.44807 1.291304,1.66025 0.233341,0.0778 0.491924,0 0.737888,0 1.661256,0 3.528428,0.0818 5.165217,0 1.192237,-0.0596 2.475542,-1.32699 3.68944,-0.92236 0.407326,0.13578 0.641628,0.40101 0.922359,0.73789 1.23702,1.48442 0.64567,2.76719 0.92236,4.42733 0.10032,0.60189 0.40463,1.24955 0.55342,1.84472 0.25637,1.0255 0.24862,2.12003 0.55342,3.13603 0.0951,0.31717 0.36894,0.59122 0.36894,0.92235 0,0.16642 -2.820182,-0.15792 -3.136026,0 -0.148394,0.0742 -0.598054,1.67961 -0.737889,2.0292 -0.128341,0.32086 -0.458504,0.54271 -0.553415,0.92236 -0.04474,0.17896 0.130442,0.42297 0,0.55341 -0.413182,0.41319 -3.131429,-0.78515 -4.058386,-0.55341 -0.80037,0.20009 -1.123926,1.48005 -1.84472,1.66025 -0.413419,0.10335 -5.125802,0.0263 -5.165217,0 -0.331957,-0.22131 -2.854126,-4.2221 -2.951554,-4.61181 -0.02983,-0.1193 0.03889,-0.25227 0,-0.36894 -0.212259,-0.63678 -1.893564,0.0678 -2.398135,-0.18447 -0.274995,-0.1375 -0.520486,-0.33601 -0.737889,-0.55342 -0.04348,-0.0435 0.04348,-0.14099 0,-0.18447 -0.242207,-0.2422 -1.006306,-0.52025 -1.106831,-0.92236 -0.62851,-2.51403 0.723003,1.26154 -0.368946,-0.92236 -0.265806,-0.53161 0.04337,-1.20457 -0.184473,-1.66025 -0.03889,-0.0778 -0.156972,-0.10197 -0.18447,-0.18447 -0.09966,-0.29898 0.0033,-1.06487 0.18447,-1.2913 0.750655,-0.93832 1.498103,-0.25341 2.398139,-0.55342 0.584517,-0.19484 1.5344,-0.67067 1.84472,-1.2913 0.168828,-0.33766 -0.08714,-0.81484 -0.184473,-1.10684 -0.155559,-0.46668 0,-0.98385 0,-1.47577 z"
       id="path3" /><path
       style="fill:#cacaca;fill-opacity:1;stroke:#211f7c;stroke-width:0.8;stroke-linejoin:round;stroke-dasharray:none;stroke-opacity:1"
       d="m 64.487229,100.14751 c 0.72799,-0.0119 1.261131,-0.446091 1.84472,-0.737891 0.164997,-0.0825 0.372528,0.0362 0.553418,0 0.81416,-0.16283 1.717709,-0.58517 2.582609,-0.36895 0.606753,0.15169 0.65474,1.448071 1.291304,1.660251 0.233341,0.0778 0.491924,0 0.737888,0 1.661256,0 3.528428,0.0818 5.165217,0 1.192237,-0.0596 2.475542,-1.326991 3.68944,-0.922361 0.407326,0.13578 0.641628,0.401011 0.922359,0.737891 1.23702,1.48442 0.64567,2.76719 0.92236,4.42733 0.10032,0.60189 0.40463,1.24955 0.55342,1.84472 0.25637,1.0255 0.24862,2.12003 0.55342,3.13603 0.0951,0.31717 0.36894,0.59122 0.36894,0.92235 0,0.16642 -2.820182,-0.15792 -3.136026,0 -0.148394,0.0742 -0.598054,1.67961 -0.737889,2.0292 -0.128341,0.32086 -0.458504,0.54271 -0.553415,0.92236 -0.04474,0.17896 0.130442,0.42297 0,0.55341 -0.413182,0.41319 -3.131429,-0.78515 -4.058386,-0.55341 -0.80037,0.20009 -1.123926,1.48005 -1.84472,1.66025 -0.413419,0.10335 -5.125802,0.0263 -5.165217,0 -0.331957,-0.22131 -2.854126,-4.2221 -2.951554,-4.61181 -0.02983,-0.1193 0.03889,-0.25227 0,-0.36894 -0.212259,-0.63678 -1.893564,0.0678 -2.398135,-0.18447 -0.274995,-0.1375 -0.520486,-0.33601 -0.737889,-0.55342 -0.04348,-0.0435 0.04348,-0.14099 0,-0.18447 -0.242207,-0.2422 -1.006306,-0.52025 -1.106831,-0.92236 -0.62851,-2.51403 0.723003,1.26154 -0.368946,-0.92236 -0.265806,-0.53161 0.04337,-1.20457 -0.184473,-1.66025 -0.03889,-0.0778 -0.156972,-0.10197 -0.18447,-0.18447 -0.09966,-0.29898 0.0033,-1.06487 0.18447,-1.2913 0.750655,-0.93832 1.498103,-0.25341 2.398139,-0.55342 0.584517,-0.19484 1.5344,-0.67067 1.84472,-1.2913 0.168828,-0.33766 -0.08714,-0.81484 -0.184473,-1.10684 -0.155559,-0.46668 0,-0.98385 0,-1.47577 z"
       id="path3-13" /><path
       id="path10"
       style="fill:#cacaca;fill-opacity:1;stroke:#211f7c;stroke-width:0.8;stroke-linejoin:round;stroke-dasharray:none;stroke-opacity:1"
       d="M 52.252625 118.59069 A 43.795399 15.333755 0 0 0 66.592834 123.02247 C 66.677359 122.92965 66.760938 122.83727 66.843465 122.74548 C 67.007909 122.56257 67.123113 122.31869 67.336975 122.19719 C 67.920354 121.86568 68.916573 122.69633 69.435038 122.34654 C 70.174085 121.84793 70.463899 120.89405 70.887146 120.17974 C 70.981167 120.02103 71.208179 119.94574 71.257149 119.76788 C 71.43033 119.13883 71.464023 118.45218 71.941862 117.90288 C 71.576057 117.57399 71.295296 117.11272 70.844255 116.91638 C 70.562013 116.79356 70.036281 116.66462 69.898059 116.31331 C 69.64401 115.66761 69.925001 114.64325 70.170911 114.07831 C 70.549557 113.20843 71.558977 113.11052 71.363086 111.92495 C 71.316032 111.63862 70.814919 111.05025 70.525928 110.9245 C 70.446192 110.8898 70.349339 110.96103 70.265479 110.93793 C 69.774262 110.80273 69.480463 110.12314 68.907422 109.96538 C 68.657775 109.89665 68.476413 109.8522 68.3488 109.82637 C 68.247338 109.76923 68.123556 109.70167 67.974662 109.62277 C 67.608433 109.42869 66.890949 109.81127 66.54891 109.82947 C 66.487491 109.83275 66.473397 109.70297 66.411967 109.70597 C 66.104936 109.72228 65.793217 109.77221 65.507113 109.88477 C 64.982169 110.09132 64.381581 111.81251 63.766134 111.54461 C 63.653366 111.49554 63.600889 111.35572 63.492249 111.29812 C 63.137306 111.11002 58.475471 110.3109 58.088961 110.4098 C 58.043048 110.42153 54.835492 113.87438 54.635942 114.25091 C 54.288062 114.9074 55.023294 116.00345 54.636975 116.73241 C 54.343905 117.28542 53.08058 117.99968 52.252625 118.59069 z " /><path
       id="path11"
       style="fill:#cacaca;fill-opacity:1;stroke:#211f7c;stroke-width:0.8;stroke-linejoin:round;stroke-dasharray:none;stroke-opacity:1"
       d="M 79.494373 124.65027 A 43.795399 15.333755 0 0 0 87.705758 124.92209 A 43.795399 15.333755 0 0 0 99.06062 124.39757 C 99.143748 124.18255 99.25647 123.97591 99.421838 123.78573 C 99.056033 123.45684 98.775273 122.99504 98.324231 122.79871 C 98.041989 122.67589 97.516257 122.54747 97.378035 122.19616 C 97.123986 121.55046 97.404977 120.52558 97.650887 119.96064 C 98.029533 119.09076 99.038437 118.99285 98.842546 117.80728 C 98.795492 117.52095 98.294895 116.93257 98.005904 116.80682 C 97.926168 116.77212 97.829315 116.84388 97.745455 116.82078 C 97.254238 116.68558 96.960439 116.00547 96.387398 115.84771 C 96.137751 115.77898 95.956389 115.73504 95.828776 115.70922 C 95.727314 115.65207 95.603533 115.58452 95.454639 115.50561 C 95.08841 115.31153 94.370925 115.6936 94.028886 115.7118 C 93.967467 115.71508 93.952857 115.58581 93.891427 115.58881 C 93.584396 115.60512 93.272676 115.65505 92.986572 115.76761 C 92.461628 115.97416 91.861557 117.69536 91.24611 117.42746 C 91.133342 117.37839 91.080348 117.23856 90.971708 117.18096 C 90.616765 116.99286 85.955447 116.19323 85.568937 116.29213 C 85.523024 116.30386 82.314951 119.75671 82.115401 120.13324 C 81.767521 120.78973 82.50327 121.88629 82.116951 122.61525 C 81.793994 123.22466 80.292831 124.02996 79.494373 124.65027 z " /><path
       id="path15"
       style="fill:#cacaca;fill-opacity:1;stroke:#211f7c;stroke-width:0.8;stroke-linejoin:round;stroke-dasharray:none;stroke-opacity:1"
       inkscape:transform-center-x="-0.37226302"
       inkscape:transform-center-y="0.55574456"
       d="M 113.69125 121.93106 A 43.795399 15.333755 0 0 0 125.29364 117.45743 C 125.33418 117.36738 125.36874 117.30904 125.39441 117.2962 C 125.43517 117.27582 125.51784 117.26333 125.63057 117.25693 A 43.795399 15.333755 0 0 0 127.98444 115.60845 C 127.84472 114.82102 127.80126 114.00968 127.60823 113.23753 C 127.45944 112.64236 127.1551 111.99457 127.05478 111.39268 C 126.77809 109.73254 127.36937 108.44998 126.13235 106.96556 C 125.85162 106.62868 125.61726 106.3634 125.20993 106.22762 C 123.99603 105.82299 122.71299 107.09045 121.52075 107.15005 C 119.88396 107.23185 118.01695 107.15005 116.35569 107.15005 C 116.10973 107.15005 115.85109 107.22785 115.61775 107.15005 C 114.98118 106.93787 114.9331 105.64138 114.32635 105.48969 C 113.46145 105.27347 112.55773 105.69582 111.74357 105.85865 C 111.56268 105.89485 111.3551 105.77615 111.19011 105.85865 C 110.60652 106.15045 110.07377 106.58469 109.34578 106.59659 C 109.34578 107.08851 109.19022 107.60579 109.34578 108.07247 C 109.44315 108.36447 109.6991 108.84172 109.53027 109.17938 C 109.21995 109.80001 108.26994 110.27594 107.68542 110.47078 C 106.78538 110.77079 106.03776 110.08591 105.28711 111.02423 C 105.10564 111.25066 105.00293 112.01613 105.10263 112.31511 C 105.13013 112.39761 105.24821 112.42179 105.28711 112.49959 C 105.51498 112.95527 105.2058 113.62835 105.4716 114.15996 C 105.5874 114.39157 105.67575 114.55629 105.74187 114.66845 C 105.76721 114.78211 105.7997 114.91891 105.84057 115.08238 C 105.94109 115.48449 106.70527 115.76261 106.94748 116.00481 C 106.99098 116.04829 106.90398 116.14579 106.94748 116.18929 C 107.16488 116.4067 107.41042 116.60524 107.68542 116.74274 C 108.18999 116.99501 109.87094 116.29045 110.0832 116.92723 C 110.1221 117.0439 110.0534 117.1769 110.0832 117.2962 C 110.18063 117.68591 112.703 121.68649 113.03496 121.9078 C 113.044 121.91384 113.29887 121.92248 113.69125 121.93106 z " /><path
       style="fill:#cacaca;fill-opacity:1;stroke:#211f7c;stroke-width:0.8;stroke-linejoin:round;stroke-dasharray:none;stroke-opacity:1"
       d="m 112.82636,105.23943 c 0.18522,-2.57551 -2.04292,-4.05901 -4.19972,-4.69119 -1.61173,-0.47241 0.0287,-0.17283 -1.16592,0.0427 -0.12103,0.0218 -0.23114,-0.10828 -0.35404,-0.10377 -0.46596,0.0171 -0.39514,1.42204 -2.00833,0.9492 -0.91251,-0.26747 -1.95653,-0.49221 -2.83238,-0.83021 -0.20825,-0.0803 -1.14475,-1.009475 -1.48945,-0.821034 -0.10795,0.05902 -0.0416,0.247934 -0.10377,0.354044 -0.4429,0.75572 -0.824361,1.69519 -0.95534,2.60348 -0.06224,0.43171 0.06671,1.26129 -0.289968,1.64511 -0.425597,0.45795 -1.078382,0.0979 -1.571863,0.11597 -0.184333,0.007 -0.06243,0.3719 -0.155661,0.53107 -0.06948,0.11864 -0.226061,0.17603 -0.2808,0.30216 -0.553249,1.27473 -0.914912,2.82772 -0.66235,4.22722 0.0309,0.17117 0.219393,0.28667 0.250277,0.45783 0.01092,0.0605 -0.09693,0.13516 -0.05189,0.17702 0.127829,0.11875 1.812421,0.57574 1.947264,0.57077 0.378407,-0.0139 1.004069,-0.41838 1.217811,-0.21976 0.89832,0.83481 0.66522,2.3067 1.523,3.32992 0.39536,0.47161 3.94883,0.51721 4.10208,0.43343 0.40248,-0.22002 0.1561,-1.46611 0.51887,-1.77024 0.13331,-0.11173 0.31856,-0.14611 0.45784,-0.25028 0.11011,-0.0823 0.15206,-0.25392 0.28079,-0.30216 0.36419,-0.1364 0.78963,0.0555 1.16592,-0.0427 0.33658,-0.0878 0.58991,-0.37854 0.91565,-0.50054 0.1821,-0.0682 0.41235,0.0719 0.58297,-0.0214 0.16195,-0.0885 0.58878,-2.33191 0.77831,-2.65536 0.17591,-0.30009 0.64908,-0.27708 0.91564,-0.50055 0.14903,-0.12492 0.18367,-0.35427 0.3327,-0.47918 0.0471,-0.0395 0.11801,0.0346 0.17702,0.0519 0.0763,-0.0417 0.16971,-0.0614 0.22891,-0.12514 0.23446,-0.2523 0.27017,0.02 0.45783,-0.25027 0.49865,-0.71823 0.43278,-0.86383 0.2686,-2.22807 z"
       id="path4" /><path
       style="fill:#cacaca;fill-opacity:1;stroke:#211f7c;stroke-width:0.8;stroke-linejoin:round;stroke-dasharray:none;stroke-opacity:1"
       d="m 71.944014,112.48382 c 0.755528,2.46915 3.368607,3.04984 5.608296,2.86215 1.673673,-0.14026 0.03555,0.17155 1.072152,-0.46009 0.105023,-0.064 0.254638,0.0177 0.367652,-0.0308 0.428482,-0.18387 -0.143969,-1.46888 1.531209,-1.60927 0.947588,-0.0794 2.002434,-0.24608 2.94124,-0.24648 0.223198,-1.4e-4 1.431649,0.52902 1.685261,0.229 0.07943,-0.094 -0.05054,-0.24627 -0.03081,-0.36765 0.140743,-0.86455 0.157949,-1.87837 -0.04725,-2.77282 -0.09754,-0.42513 -0.516838,-1.15246 -0.322473,-1.63904 0.231926,-0.58058 0.970616,-0.47999 1.424409,-0.67473 0.16952,-0.0727 -0.07581,-0.36941 -0.04622,-0.55148 0.02204,-0.13571 0.147419,-0.24568 0.153015,-0.38306 0.05661,-1.38846 -0.165788,-2.96743 -0.905797,-4.18181 -0.09052,-0.14853 -0.307974,-0.18833 -0.398473,-0.33686 -0.032,-0.0525 0.0417,-0.16101 -0.01541,-0.18382 -0.162038,-0.0647 -1.898115,0.11621 -2.022102,0.16945 -0.347975,0.14933 -0.785782,0.75217 -1.056747,0.64393 -1.138828,-0.45492 -1.451923,-1.91189 -2.620843,-2.55716 -0.538769,-0.29741 -3.869828,0.94084 -3.982583,1.07422 -0.29613,0.35031 0.382832,1.42384 0.154053,1.83828 -0.08408,0.15227 -0.244485,0.25111 -0.33685,0.39847 -0.07303,0.11651 -0.05032,0.29166 -0.153016,0.38306 -0.290547,0.25851 -0.756547,0.23285 -1.072153,0.46008 -0.282293,0.20326 -0.413822,0.56573 -0.673692,0.79694 -0.145273,0.12925 -0.410542,0.0816 -0.536081,0.23005 -0.119152,0.14095 0.291289,2.38739 0.231079,2.75741 -0.05592,0.34332 -0.505582,0.4924 -0.673678,0.79693 -0.09398,0.17024 -0.04363,0.39665 -0.13762,0.56689 -0.02971,0.0539 -0.122551,0.0103 -0.183826,0.0154 -0.05615,0.0664 -0.136162,0.11848 -0.168421,0.19923 -0.127765,0.31985 -0.259221,0.0787 -0.33685,0.39847 -0.206253,0.84969 -0.09234,0.96176 0.552524,2.17512 z"
       id="path4-2"
       inkscape:transform-center-x="0.55513073"
       inkscape:transform-center-y="-0.7372398" /><path
       id="path16"
       style="fill:#cacaca;fill-opacity:1;stroke:#211f7c;stroke-width:0.8;stroke-linejoin:round;stroke-dasharray:none;stroke-opacity:1"
       inkscape:transform-center-x="0.26701202"
       inkscape:transform-center-y="-0.057743407"
       d="M 62.488692 122.12485 A 43.795399 15.333755 0 0 0 74.119507 124.16555 C 74.405364 123.82003 74.69644 123.48413 74.994389 123.18835 C 75.152759 123.03108 76.38366 122.55573 76.352445 122.16412 C 76.342645 122.04145 76.142795 122.02493 76.071326 121.92486 C 75.562426 121.21193 74.860971 120.48013 74.0854 119.98958 C 73.716766 119.75643 72.90668 119.53554 72.702022 119.0532 C 72.457836 118.47766 73.053373 118.02895 73.238424 117.57112 C 73.307584 117.40012 72.924468 117.36208 72.817261 117.21197 C 72.737341 117.1001 72.748796 116.93363 72.65603 116.83215 C 71.718453 115.80649 70.448716 114.84209 69.068136 114.50102 C 68.899271 114.45932 68.716604 114.58416 68.547754 114.54236 C 68.488064 114.52766 68.46432 114.39845 68.407711 114.42247 C 68.247103 114.49067 67.141533 115.84197 67.090995 115.96708 C 66.949096 116.31815 67.06298 117.05459 66.794373 117.16856 C 65.665456 117.64755 64.41691 116.83347 63.132581 117.19853 C 62.540621 117.36678 61.047516 120.59165 61.061389 120.76576 C 61.097829 121.22301 62.336015 121.50722 62.465438 121.96258 C 62.480482 122.01554 62.486512 122.06965 62.488692 122.12485 z " /><path
       id="path14"
       style="fill:#cacaca;fill-opacity:1;stroke:#211f7c;stroke-width:0.8;stroke-linejoin:round;stroke-dasharray:none;stroke-opacity:1"
       d="M 113.85403 121.8892 A 43.795399 15.333755 0 0 0 119.69295 120.06192 C 119.49406 119.77873 119.24436 119.48477 119.33587 119.30176 C 119.8843 118.2049 121.36198 118.01441 122.10262 116.90346 C 122.44398 116.39141 121.48819 112.96829 121.36469 112.84479 C 121.04034 112.52044 119.91424 113.10738 119.52035 112.84479 C 119.37564 112.74829 119.29052 112.58069 119.15138 112.47634 C 119.04138 112.39384 118.86491 112.40182 118.78241 112.29185 C 118.54907 111.98073 118.61352 111.51842 118.41344 111.18494 C 118.23447 110.88666 117.8842 110.72528 117.6755 110.44701 C 117.55883 110.29145 117.6285 110.03105 117.49102 109.89355 C 117.36051 109.76304 115.08745 109.98445 114.72375 109.89355 C 114.3863 109.80915 114.27524 109.34855 113.98581 109.15561 C 113.82402 109.04774 113.59414 109.07901 113.43235 108.97113 C 113.38115 108.93703 113.43235 108.84813 113.43235 108.78664 C 113.37085 108.72514 113.32565 108.64105 113.24787 108.60216 C 112.93981 108.44813 113.19105 108.33725 112.8789 108.23319 C 112.04941 107.9567 111.92858 108.06088 110.6656 108.60216 C 108.14198 109.14885 107.34487 111.70416 107.34487 113.9517 C 107.34487 115.63124 107.17097 113.97288 107.71384 115.05861 C 107.76884 115.16861 107.67494 115.31091 107.71384 115.42758 C 107.86128 115.86992 109.18972 115.40689 109.18972 117.08794 C 109.18972 118.03885 109.26772 119.10414 109.18972 120.0397 C 109.17122 120.26213 108.54296 121.42177 108.82075 121.69955 C 108.90775 121.78655 109.07041 121.66975 109.18972 121.69955 C 110.0395 121.912 111.04853 122.01382 111.95699 121.88403 C 112.38878 121.82233 113.14819 121.46523 113.61684 121.69955 C 113.71697 121.74962 113.79418 121.81446 113.85403 121.8892 z " /></g></svg>
