<?xml version="1.0" encoding="UTF-8" standalone="no"?>
<!-- Created with Inkscape (http://www.inkscape.org/) -->

<svg
   width="210mm"
   height="297mm"
   viewBox="0 0 210 297"
   version="1.1"
   id="svg1"
   inkscape:version="1.4.3 (0d15f75, 2025-12-25)"
   sodipodi:docname="keshigomu_old.svg"
   xmlns:inkscape="http://www.inkscape.org/namespaces/inkscape"
   xmlns:sodipodi="http://sodipodi.sourceforge.net/DTD/sodipodi-0.dtd"
   xmlns="http://www.w3.org/2000/svg"
   xmlns:svg="http://www.w3.org/2000/svg">
  <sodipodi:namedview
     id="namedview1"
     pagecolor="#ffffff"
     bordercolor="#000000"
     borderopacity="0.25"
     inkscape:showpageshadow="2"
     inkscape:pageopacity="0.0"
     inkscape:pagecheckerboard="0"
     inkscape:deskcolor="#d1d1d1"
     inkscape:document-units="mm"
     inkscape:zoom="0.71713664"
     inkscape:cx="107.37145"
     inkscape:cy="584.96523"
     inkscape:window-width="1920"
     inkscape:window-height="1001"
     inkscape:window-x="-9"
     inkscape:window-y="-9"
     inkscape:window-maximized="1"
     inkscape:current-layer="layer1" />
  <defs
     id="defs1" />
  <g
     inkscape:label="Layer 1"
     inkscape:groupmode="layer"
     id="layer1">
    <ellipse
       style="fill:#e5e5e5;fill-opacity:1;stroke:#211f7c;stroke-width:0.636478"
       id="path1"
       ry="19.735798"
       rx="21.580521"
       cy="114.74163"
       cx="74.157761" />
    <path
       style="fill:#e5e5e5;fill-opacity:1;stroke:#000000;stroke-width:1.27296;stroke-dasharray:none;stroke-opacity:1"
       d="m 69.512042,109.52116 c -10.072703,8.78641 -10.072703,8.78641 -10.072703,8.78641"
       id="path2" />
    <ellipse
       style="fill:#0f0f0f;fill-opacity:1;stroke:#211f7c;stroke-width:0.532267"
       id="path3"
       cx="66.34211"
       cy="116.15976"
       rx="2.6180997"
       ry="2.2978358" />
    <path
       style="fill:#e5e5e5;fill-opacity:1;stroke:#000000;stroke-width:1.27296;stroke-dasharray:none;stroke-opacity:1"
       d="m 77.942103,109.87398 c 10.072704,8.79228 10.072704,8.79228 10.072704,8.79228"
       id="path2-8" />
    <ellipse
       style="fill:#0f0f0f;fill-opacity:1;stroke:#211f7c;stroke-width:0.532267"
       id="path3-2"
       cx="-81.112045"
       cy="116.46715"
       rx="2.6180999"
       ry="2.2978358"
       transform="matrix(-0.99999983,-5.8295114e-4,0,1,0,0)" />
    <path
       style="fill:#0f0f0f;fill-opacity:0;stroke:#000000;stroke-width:1.27296;stroke-dasharray:none;stroke-opacity:1"
       d="m 66.575417,127.15035 c 6.999086,-8.50885 13.764871,-1.6545 13.764871,-1.6545 l 1.63312,1.6545 v 0"
       id="path4" />
    <path
       style="fill:#7d7d7d;fill-opacity:0;stroke:#939393;stroke-width:1;stroke-dasharray:none;stroke-opacity:1"
       d="m 83.012422,102.38199 c -0.07747,0.0123 -0.348795,1.60547 -0.184473,1.66025 0.175006,0.0583 0.370798,-0.0261 0.553416,0 1.019693,0.14566 1.89811,0.18447 2.951554,0.18447 0.245962,0 0.517893,-0.11 0.737888,0 0.507064,0.25353 -0.837771,0.76668 -1.291304,1.10683 -0.06052,0.0454 -0.02035,0.90201 0,0.92236 0.13044,0.13044 0.372525,-0.0362 0.553416,0 1.116811,0.22336 0.07643,0.18447 0.922358,0.18447 0.368946,0 0.84595,-0.26088 1.106835,0 0.516654,0.51666 -0.868196,1.71442 -0.553416,2.02919 0.188947,0.18895 2.400109,-0.18447 2.951551,-0.18447"
       id="path5" />
    <path
       style="fill:#7d7d7d;fill-opacity:0;stroke:#939393;stroke-width:1;stroke-dasharray:none;stroke-opacity:1"
       d="m 58.108696,106.80932 c 0,0.73788 0,1.47577 0,2.21366 0,0.18447 0.05833,0.37841 0,0.55342 -0.01945,0.0583 -0.156975,-0.055 -0.184473,0 -0.08174,0.16347 -0.255302,1.95836 -0.184473,2.02919 0.05937,0.0594 0.733409,-0.36447 1.106834,-0.73789 0.04348,-0.0435 0,-0.12298 0,-0.18447 0.122981,-0.12298 0.229807,-0.26459 0.368943,-0.36895 0.179748,-0.13481 0.440571,-0.14325 0.553416,-0.36894 0.07379,-0.14758 -0.07379,-0.40584 0,-0.55342 0.13304,-0.26608 0.854731,-1.08841 0.922361,-1.2913 0.03889,-0.11667 -0.03889,-0.25227 0,-0.36894 0.08765,-0.26296 0.265631,-0.26564 0.368943,-0.36895 0.08696,-0.087 -0.055,-0.25895 0,-0.36894 0.03889,-0.0778 0.145582,-0.10669 0.184473,-0.18447 0.05569,-0.11138 -0.08528,-0.46815 0,-0.55342 0.03359,-0.0336 0.711721,-0.36894 0.184473,-0.36894 -0.203753,0 0.253225,0.96932 0,1.47577 -0.11757,0.23514 -0.472133,0.49404 -0.553419,0.73789 -0.03889,0.11667 0.055,0.25895 0,0.36894 -0.0275,0.055 -0.150362,-0.0512 -0.18447,0 -0.212193,0.31829 -0.184473,0.58811 -0.184473,0.92236 0,0.0482 -0.157702,0.71112 -0.184472,0.73789 -0.04348,0.0435 -0.140991,-0.0435 -0.18447,0 -0.09599,0.096 0,0.58191 0,0.73789 0,0.0615 -0.055,0.21197 0,0.18447 0.558485,0.45521 0.317301,-0.50177 0.368942,-0.55341 0.646036,-0.64604 1.499201,-1.08868 2.213666,-1.66025 0.18914,-0.15131 0.26639,-0.45086 0.368943,-0.55342 0.08696,-0.087 0.281982,0.087 0.368946,0 0.135278,-0.13528 0.471805,-0.84075 0.553415,-0.92236 0.04348,-0.0435 0.140991,0.0435 0.18447,0 0.04348,-0.0435 -0.0275,-0.12947 0,-0.18447 0.219856,-0.43971 0.105611,-0.58862 -0.553415,-0.36894 -0.919433,0.30647 -1.419323,1.17839 -1.84472,2.02919 -0.09677,0.19353 0.147238,0.77512 0,0.92236 -0.04348,0.0435 -0.140991,-0.0435 -0.184473,0 -0.109088,0.10909 -0.0078,1.29905 0.184473,1.10683 0.03883,-0.0388 0.355875,-0.73135 0.368945,-0.73789 0.311227,-0.15561 0.477113,-0.0106 0.737886,-0.18447 0.114406,-0.0763 0.08725,-0.27172 0.184473,-0.36894 0.04348,-0.0435 0.129474,0.0275 0.184473,0 0.221366,-0.11069 0.332049,-0.44274 0.553415,-0.55342 0.254453,-0.12723 0.165005,0.22341 0.368943,-0.18447 0.0275,-0.055 -0.04348,-0.14099 0,-0.18447 0.224685,-0.22469 0.41215,-0.0864 0.553419,-0.36895 0.07637,-0.15273 0.157797,-0.55341 0.368943,-0.55341"
       id="path8" />
    <path
       style="fill:#7d7d7d;fill-opacity:0;stroke:#939393;stroke-width:1;stroke-dasharray:none;stroke-opacity:1"
       d="m 72.497515,128.39255 c -0.245962,0.0615 -0.79938,-0.0615 -0.737888,0.18447 0.06149,0.24596 0.90484,-0.37528 0.737888,-0.18447 -0.575498,0.65771 -1.411219,1.04227 -2.029193,1.66024 -0.02278,0.0228 -0.01085,0.73247 0,0.73789 0.09689,0.0485 3.18307,-1.01274 3.136025,-1.10683 -0.253532,-0.50707 -1.106832,-1.85822 -1.106832,-1.2913 0,0.6149 0.831837,0.92578 1.106832,1.47577 0.07336,0.14672 -0.43809,1.03769 -0.184473,1.29131 0.09718,0.0972 1.060069,0 1.291304,0 0.970714,0 1.615347,0.0898 2.029193,-0.73789 0.0275,-0.055 -0.04348,-0.14099 0,-0.18447 0.04348,-0.0435 0.140994,0.0435 0.184473,0 0.08696,-0.087 -0.08696,-0.28199 0,-0.36895 0.09723,-0.0972 0.368945,-0.047 0.368945,-0.18447 0,-0.12298 -0.245964,0 -0.368945,0 -0.307454,0 -0.614908,0 -0.922362,0 -0.424809,0 -0.06613,-0.0341 -0.737886,0.36894 -0.283974,0.17039 -0.660085,0.23781 -0.922361,0.36895 -0.305739,0.15287 -0.344344,0.52882 -0.553416,0.73789 -0.04348,0.0435 -0.140991,-0.0435 -0.184472,0 -0.04348,0.0435 0.04348,0.14099 0,0.18447 -0.227172,0.22717 -0.368943,-0.56298 -0.368943,0.36894 0,0.0615 0.122981,0 0.18447,0 0.245964,0 0.563967,0.17392 0.737888,0 0.04348,-0.0435 -0.055,-0.15697 0,-0.18447 0.109998,-0.055 0.249635,0.0298 0.368946,0 0.352137,-0.088 0.632883,-0.22421 0.922359,-0.36894 0.337306,-0.16866 1.439891,-0.0495 1.844722,-0.18448 0.0825,-0.0275 0.101973,-0.15697 0.18447,-0.18447 0.175006,-0.0583 0.378413,0.0583 0.553416,0 0.482925,-0.16097 0.218096,-0.36894 0.553418,-0.36894"
       id="path9" />
    <path
       style="fill:#7d7d7d;fill-opacity:0;stroke:#939393;stroke-width:1;stroke-dasharray:none;stroke-opacity:1"
       d="m 73.419874,96.47888 c -1.106832,0.430435 -2.239362,0.79988 -3.320497,1.291304 -0.571312,0.259689 -1.681509,1.138724 -2.02919,1.66025 -0.06822,0.102328 0.03889,0.252272 0,0.368943 -0.01918,0.05755 -0.392049,0.818573 -0.184473,0.922363 0.274995,0.13749 0.614907,0 0.922359,0 0.687355,0 1.69577,0.0965 2.398138,-0.18447 0.05709,-0.0228 -0.055,-0.15698 0,-0.18448 0.109998,-0.055 0.252272,0.0389 0.368943,0 0.228883,-0.0763 0.276466,-0.460933 0.368945,-0.553413 0.402844,-0.402844 0.299509,-0.03835 0.737889,-0.18447 0.211899,-0.07063 0.255939,-0.440415 0.368943,-0.553419 0.197448,-0.197448 1.291304,-0.179834 1.291304,-0.553415 0,-0.06149 -0.122981,0 -0.184473,0 -0.430434,0 -0.860869,0 -1.291304,0 -0.575442,0 -0.309369,0.226105 -0.737888,0.368945 -0.116671,0.03889 -0.252273,-0.03889 -0.368943,0 -0.150416,0.05014 -1.089843,1.499072 -1.291305,1.660252 -0.09225,0.0738 -0.737888,0.33675 -0.737888,0.55341 0,0.0615 0.122981,0 0.184473,0 0.368943,0 0.737888,0 1.106831,0 0.307454,0 0.647367,0.1375 0.922361,0 0.3838,-0.1919 0.662366,-0.33118 1.106832,-0.55341 0.195479,-0.0977 0.528868,0.0697 0.737888,0 0.260882,-0.087 0.468234,-0.31502 0.737889,-0.36895 1.391989,-0.278397 0.06866,0.26168 0.737888,-0.18447 0.08935,-0.05956 0.933752,-0.737889 0.737886,-0.737889 -0.08696,0 -0.10373,0.152175 -0.18447,0.184473 -0.2354,0.09416 -0.520486,0.05403 -0.737888,0.184473 -0.117904,0.07074 -0.07007,0.292674 -0.184473,0.368943 -0.102325,0.06822 -0.245962,0 -0.368943,0 -0.122981,0.06149 -0.258948,0.10197 -0.368946,0.18447 -0.622551,0.46692 -0.461195,0.20754 -0.922358,0.55342 -0.558488,-0.45521 -0.317305,0.50177 -0.368946,0.55341 -0.04348,0.0435 -0.129471,-0.0275 -0.18447,0 -0.497843,0.24892 0.0064,0.0827 -0.184473,0.36895 -0.144711,0.21707 -0.553416,0.29253 -0.553416,0.55342 0,0.21648 0.691243,-0.16115 1.106832,-0.36895 0.245962,-0.12298 0.491926,-0.24596 0.737888,-0.36894 0.109998,-0.055 0.25476,0.0457 0.368943,0 0.757905,-0.30317 1.022073,-0.73789 1.84472,-0.73789"
       id="path10" />
    <path
       style="fill:#7d7d7d;fill-opacity:0;stroke:#939393;stroke-width:1;stroke-dasharray:none;stroke-opacity:1"
       d="m 90.022359,120.09131 c -0.245962,0.86087 -0.470837,1.72804 -0.737889,2.5826 -0.0815,0.26081 -0.550465,2.03215 -0.368942,2.21367 0.200871,0.20087 0.591155,-0.11111 0.737888,-0.18447 0.234823,-0.11741 0.634222,-0.4269 0.737889,-0.73789 0.03889,-0.11667 -0.055,-0.25895 0,-0.36894 0.16107,-0.32215 0.576815,-0.60022 0.737888,-0.92237 0.122981,-0.24596 -0.122984,-0.67639 0,-0.92235 0.03889,-0.0778 0.18447,-0.0975 0.18447,-0.18448 0,-0.26088 -0.40178,0.34113 -0.553416,0.55342 -0.178702,0.25018 -0.415919,0.46289 -0.553415,0.73789 -0.04483,0.0897 -0.294889,2.10325 -0.184473,2.21366 0.04919,0.0492 0.688697,0.0492 0.737888,0 0.04348,-0.0435 -0.04348,-0.14099 0,-0.18447 0.08696,-0.087 0.281983,0.087 0.368946,0 0.07989,-0.0799 0.289571,-0.61883 0.368943,-0.73789 -0.01842,-0.36545 0.271719,-0.0872 0.368943,-0.18447 0.09224,-0.0922 -0.09223,-0.46118 0,-0.55342 0.04348,-0.0435 0.140994,0.0435 0.184473,0 0.08696,-0.087 -0.08696,-0.28198 0,-0.36894 0.245962,-0.24596 0.184472,0.30745 0.184472,-0.18447"
       id="path11" />
    <path
       style="fill:#7d7d7d;fill-opacity:0;stroke:#939393;stroke-width:1;stroke-dasharray:none;stroke-opacity:1"
       d="m 57.370807,121.75155 c 0.09881,0.24454 -0.51399,1.88415 -0.184472,2.21367 0.04348,0.0435 0.140991,-0.0435 0.184472,0 0.04348,0.0435 -0.055,0.15697 0,0.18447 0.526905,0.26345 2.785917,-0.0776 3.320497,-0.18447 1.503347,-0.30067 0.281718,0.0872 0.922359,-0.55342 0.04348,-0.0435 0.239472,-0.0275 0.184473,0 -0.173921,0.087 -0.397857,0.0678 -0.553416,0.18447 -0.248126,0.1861 -0.855707,1.20917 -0.922361,1.47578 -0.06921,0.27683 -0.06323,0.67988 -0.18447,0.92236 -0.03889,0.0778 -0.245965,0.12298 -0.184473,0.18447 0.02606,0.0261 2.837807,-0.887 2.398135,-1.10683 -0.219995,-0.11 -0.491923,0 -0.737888,0 -0.352026,0 -0.02701,-0.0435 -0.368943,0.18447 -0.754867,0.50324 -0.374205,0.92762 -0.553416,1.10683 -0.04348,0.0435 -0.150362,-0.0512 -0.184473,0 -0.12298,0.18448 -0.212172,0.71019 -0.368942,0.55342 -0.04348,-0.0435 0.04348,-0.14099 0,-0.18447 -0.156771,-0.15678 -0.420394,-0.19158 -0.553419,-0.36895 -0.146325,-0.1951 0.02739,-2.4529 0.184473,-2.76708 0.13431,-0.26862 0.105246,-0.39496 0.184473,-0.55341 0.03889,-0.0778 0.245962,-0.12299 0.184473,-0.18448 -0.397262,-0.39726 -0.490186,0.30572 -0.553419,0.36895 -0.09722,0.0972 -0.292674,0.0701 -0.368943,0.18447 -0.06822,0.10233 0.06327,0.26349 0,0.36894 -0.08142,0.13571 -1.040114,1.35803 -1.106831,1.29131 -0.256101,-0.2561 0.207838,-1.79799 0.18447,-1.84472 -0.259429,-0.51886 -0.614905,-0.98385 -0.922359,-1.47578 z"
       id="path12" />
  </g>
</svg>
