<?xml version="1.0" encoding="UTF-8" standalone="no"?>
<!-- Created with Inkscape (http://www.inkscape.org/) -->

<svg
   width="210mm"
   height="297mm"
   viewBox="0 0 210 297"
   version="1.1"
   id="svg1"
   xml:space="preserve"
   sodipodi:docname="keshigomu_tamago.svg"
   inkscape:version="1.4.3 (0d15f75, 2025-12-25)"
   xmlns:inkscape="http://www.inkscape.org/namespaces/inkscape"
   xmlns:sodipodi="http://sodipodi.sourceforge.net/DTD/sodipodi-0.dtd"
   xmlns="http://www.w3.org/2000/svg"
   xmlns:svg="http://www.w3.org/2000/svg"><sodipodi:namedview
     id="namedview1"
     pagecolor="#ffffff"
     bordercolor="#000000"
     borderopacity="0.25"
     inkscape:showpageshadow="2"
     inkscape:pageopacity="0.0"
     inkscape:pagecheckerboard="0"
     inkscape:deskcolor="#d1d1d1"
     inkscape:document-units="mm"
     inkscape:zoom="1.4342733"
     inkscape:cx="274.35497"
     inkscape:cy="424.25666"
     inkscape:window-width="1920"
     inkscape:window-height="1001"
     inkscape:window-x="-9"
     inkscape:window-y="-9"
     inkscape:window-maximized="1"
     inkscape:current-layer="svg1" /><defs
     id="defs1" /><g
     id="g16"
     transform="matrix(1.1768262,0,0,1.2177461,-17.819399,-27.684715)"><rect
       style="fill:#eeeeee;fill-opacity:1;stroke:#211f7c;stroke-width:1;stroke-linejoin:round;stroke-dasharray:none;stroke-opacity:1"
       id="rect2"
       width="60.125652"
       height="24.254261"
       x="70.710686"
       y="104.09618"
       ry="12.127131" /><path
       style="fill:#eeeeee;fill-opacity:1;stroke:#838383;stroke-width:1.112;stroke-linejoin:round;stroke-dasharray:none;stroke-opacity:1"
       d="m 80.890993,115.01832 c -0.788721,-0.002 -0.783223,-0.37051 -1.660247,1.38354 -0.03075,0.0615 -0.153729,0.0307 -0.184473,0.0922 -0.0275,0.055 0.02283,0.12738 0,0.18447 -0.06878,0.17194 -0.311391,0.38076 -0.368946,0.55342 -0.07306,0.21919 0.109188,0.16752 -0.09223,0.36894 -0.04861,0.0486 -0.13586,0.0436 -0.184472,0.0922 -0.151575,0.15157 0.184472,1.25488 0.184472,1.47577"
       id="path3" /><path
       style="fill:#eeeeee;fill-opacity:1;stroke:#838383;stroke-width:1.112;stroke-linejoin:round;stroke-dasharray:none;stroke-opacity:1"
       d="m 92.236024,116.58633 c 0.27985,0.19709 0.626737,-0.0845 0.922359,0 0.585171,0.16719 0.18416,0.12278 0.553418,0.36895 0.02559,0.0171 0.06149,0 0.09223,0 0.09224,0.0615 0.190148,0.11522 0.276709,0.18447 0.370441,0.29635 0.610166,0.75562 0.922362,1.10683 0.115546,0.12999 0.260294,0.23314 0.368942,0.36895 0.01921,0.024 -0.02175,0.0705 0,0.0922 0.190839,0.19084 -0.0075,-0.29163 0.184473,0.0922 0.01376,0.0275 0,0.0615 0,0.0922 0.03074,0.0615 0.05098,0.12948 0.09224,0.18448 0.05218,0.0696 0.145581,0.10669 0.18447,0.18447 0.02862,0.0572 0,0.28722 0,0.36894"
       id="path4" /><path
       style="fill:#eeeeee;fill-opacity:1;stroke:#838383;stroke-width:1.112;stroke-linejoin:round;stroke-dasharray:none;stroke-opacity:1"
       d="m 88.409069,126.03281 c 0.208041,0.0551 0.409352,0.17879 0.624141,0.16526 0.75531,-0.0476 1.256726,-1.07858 1.654918,-1.56551 0.152696,-0.18677 0.36781,-0.24162 0.498305,-0.44054 0.141866,-0.2162 0.580585,-1.46701 0.448576,-1.6941 -0.03475,-0.0598 -0.36329,-0.27321 -0.398598,-0.29637"
       id="path5" /><path
       style="fill:#eeeeee;fill-opacity:1;stroke:#838383;stroke-width:1.112;stroke-linejoin:round;stroke-dasharray:none;stroke-opacity:1"
       d="m 108.19286,113.91149 c 0.15372,0.3382 0.31227,0.67425 0.46118,1.01459 0.27834,0.63622 0.25465,1.22113 -0.27671,1.75249 -0.0217,0.0218 -0.0705,-0.0217 -0.0922,0 -0.0217,0.0218 0.0217,0.0705 0,0.0922 -0.16474,0.16473 -0.73789,0.31333 -0.73789,0.55341"
       id="path6" /><path
       style="fill:#eeeeee;fill-opacity:1;stroke:#838383;stroke-width:1.112;stroke-linejoin:round;stroke-dasharray:none;stroke-opacity:1"
       d="m 102.01304,113.63479 c -0.3382,0.0922 -0.67829,0.17779 -1.0146,0.2767 -0.44695,0.13146 -0.76553,0.18311 -1.014591,0.64566 -0.616686,1.14527 0.236241,3.48473 1.383541,4.05838 0.15804,0.079 0.47771,0 0.64565,0"
       id="path7" /><path
       style="fill:#eeeeee;fill-opacity:1;stroke:#838383;stroke-width:1.112;stroke-linejoin:round;stroke-dasharray:none;stroke-opacity:1"
       d="m 122.48944,117.41646 c 0.32996,0.066 0.50038,0.0392 0.73789,0.27671 0.42607,0.42607 0.59829,1.08191 0.92236,1.56801 0.24606,0.3691 0.43177,0.58882 0.55341,1.01459 0.0882,0.30865 0.20319,0.60991 0.27671,0.92237 0.0498,0.21162 0.0653,0.42992 0.0922,0.64565 0.004,0.0305 0.0307,0.0922 0,0.0922 -0.13572,0 -0.57361,-0.24068 -0.64565,-0.2767"
       id="path8" /><path
       style="fill:#eeeeee;fill-opacity:1;stroke:#838383;stroke-width:1.112;stroke-linejoin:round;stroke-dasharray:none;stroke-opacity:1"
       d="m 115.4795,119.26118 c -0.39834,0.23901 -0.70638,0.35496 -0.92236,0.83012 -0.0795,0.17484 0.009,1.40126 0.0922,1.56802 0.0778,0.15556 0.2576,0.23533 0.36894,0.36894 0.044,0.0528 0.0284,0.15894 0.0922,0.18447 0.11418,0.0457 0.24835,-0.0241 0.36894,0 0.0415,0.008 0.67228,0.30334 0.73789,0.36895"
       id="path9" /><path
       style="fill:#eeeeee;fill-opacity:1;stroke:#838383;stroke-width:1.112;stroke-linejoin:round;stroke-dasharray:none;stroke-opacity:1"
       d="m 119.90683,123.22733 c 0.12298,0.0307 0.3382,0.21522 0.36894,0.0922 0.0308,-0.12298 -0.40377,-0.21412 -0.36894,-0.0922 0.0845,0.29562 0.39523,0.47425 0.55342,0.73789 0.0355,0.0592 0.0374,0.58337 0,0.64565 -0.37272,0.6212 -0.64642,0.64565 -1.29131,0.64565"
       id="path11" /><path
       style="fill:#eeeeee;fill-opacity:1;stroke:#838383;stroke-width:1.112;stroke-linejoin:round;stroke-dasharray:none;stroke-opacity:1"
       d="m 77.754968,122.3972 c 0.80948,0.52602 1.343184,1.50172 2.213663,1.93696 1.040234,0.52012 2.275893,0.5746 3.412734,0.64565 0.0507,0.003 0.473297,0.0267 0.553415,0 0.341929,-0.11398 -0.112429,-0.0922 0.184473,-0.0922"
       id="path12" /><path
       style="fill:#eeeeee;fill-opacity:1;stroke:#838383;stroke-width:1.112;stroke-linejoin:round;stroke-dasharray:none;stroke-opacity:1"
       d="m 104.13447,125.16428 c 0.61917,0.14075 1.05894,0.12643 1.66025,-0.0922 0.12922,-0.047 0.23753,-0.14404 0.36894,-0.18447 0.10228,-0.0315 0.79252,-0.12866 1.0146,-0.27671 0.14471,-0.0965 0.22981,-0.26459 0.36894,-0.36895 0.36898,-0.27673 0.36291,-0.26463 0.55342,-0.64565 0.0687,-0.13749 0.2281,-0.2231 0.27671,-0.36894 0.0878,-0.26341 0,-0.73754 0,-1.0146"
       id="path13" /><path
       style="fill:#eeeeee;fill-opacity:1;stroke:#838383;stroke-width:1.112;stroke-linejoin:round;stroke-dasharray:none;stroke-opacity:1"
       d="m 116.21739,114.46491 c 0.0301,0.0516 0.90967,-0.10493 1.10683,0.0922 0.0468,0.0468 0.0909,0.18316 0.18447,0.27671 0.16213,0.16212 0.36149,0.35403 0.46119,0.55342 0.0922,0.18447 -0.18448,0 0,0.2767 0.0381,0.0572 0.13585,0.0436 0.18447,0.0922 0.0331,0.0331 0.0922,0.53617 0.0922,0.64565"
       id="path14" /><path
       style="fill:#eeeeee;fill-opacity:1;stroke:#838383;stroke-width:1.112;stroke-linejoin:round;stroke-dasharray:none;stroke-opacity:1"
       d="m 86.287844,117.1596 c 0.14361,-0.1164 0.583841,-0.23983 0.704905,-0.44802 0.0669,-0.11505 0.622519,-1.1483 0.688383,-1.49951 0.07352,-0.39201 -0.215071,-0.47594 -0.376078,-0.76268 -0.0788,-0.14034 -0.378635,-0.79033 -0.563517,-0.84875 -0.08295,-0.0262 -0.17642,-0.002 -0.259342,-0.0283 -0.140939,-0.0445 0.03014,-0.14248 -0.129653,-0.0141"
       id="path15" /><path
       style="fill:#eeeeee;fill-opacity:1;stroke:#838383;stroke-width:1.112;stroke-linejoin:round;stroke-dasharray:none;stroke-opacity:1"
       d="m 96.755589,125.07205 c 0,-0.87952 -0.04474,-0.23748 0.09224,-0.92236 0.006,-0.0302 -0.0275,-0.0785 0,-0.0922 0.113382,-0.0567 0.250249,-0.0477 0.368943,-0.0922 0.873943,-0.32773 1.800165,-0.65457 2.767082,-0.46118 0.01058,0.002 0.446116,1.13884 0.461176,1.19906 0.0298,0.11931 -0.0389,0.25228 0,0.36895 0.0456,0.13681 0.18447,0.10807 0.18447,0.27671"
       id="path16" /></g><path
     id="path2"
     style="fill:#fee600;fill-opacity:1;stroke:#211f7c;stroke-width:1.12876;stroke-linejoin:round;stroke-dasharray:none;stroke-opacity:1"
     d="m 100.76748,87.199513 a 47.221728,25.817459 0 0 0 -47.221904,25.817367 47.221728,25.817459 0 0 0 0.0073,0.44265 v 14.47016 h 0.02731 a 47.302435,17.732151 0 0 1 47.187344,-16.49402 47.302435,17.732151 0 0 1 47.18693,16.49402 h 0.047 v -14.7938 h -0.0128 a 47.221728,25.817459 0 0 0 4.3e-4,-0.11901 47.221728,25.817459 0 0 0 -47.2215,-25.817367 z" /><g
     inkscape:label="Layer 1"
     inkscape:groupmode="layer"
     id="layer1" /><rect
     style="fill:#000000;fill-opacity:1;stroke:#211f7c;stroke-width:1.07178;stroke-linejoin:round;stroke-dasharray:none;stroke-opacity:1"
     id="rect16"
     width="13.345245"
     height="42.042358"
     x="94.100891"
     y="87.114769"
     ry="0" /></svg>
