<?xml version="1.0" encoding="UTF-8" standalone="no"?>
<!-- Created with Inkscape (http://www.inkscape.org/) -->

<svg
   width="210mm"
   height="297mm"
   viewBox="0 0 210 297"
   version="1.1"
   id="svg1"
   xml:space="preserve"
   inkscape:version="1.4.3 (0d15f75, 2025-12-25)"
   sodipodi:docname="manaita.svg"
   xmlns:inkscape="http://www.inkscape.org/namespaces/inkscape"
   xmlns:sodipodi="http://sodipodi.sourceforge.net/DTD/sodipodi-0.dtd"
   xmlns="http://www.w3.org/2000/svg"
   xmlns:svg="http://www.w3.org/2000/svg"><sodipodi:namedview
     id="namedview1"
     pagecolor="#ffffff"
     bordercolor="#000000"
     borderopacity="0.25"
     inkscape:showpageshadow="2"
     inkscape:pageopacity="0.0"
     inkscape:pagecheckerboard="0"
     inkscape:deskcolor="#d1d1d1"
     inkscape:document-units="mm"
     inkscape:zoom="1.0141844"
     inkscape:cx="193.25875"
     inkscape:cy="500.40211"
     inkscape:window-width="1920"
     inkscape:window-height="1001"
     inkscape:window-x="-9"
     inkscape:window-y="-9"
     inkscape:window-maximized="1"
     inkscape:current-layer="layer1" /><defs
     id="defs1" /><g
     inkscape:label="Layer 1"
     inkscape:groupmode="layer"
     id="layer1"><path
       id="rect1"
       style="fill:#ffefc5;fill-opacity:1;stroke:#211f7c;stroke-width:1;stroke-linejoin:round"
       d="M 57.369108 64.438444 C 52.668023 64.438444 48.883321 68.223145 48.883321 72.924231 L 48.883321 205.74403 C 48.883321 210.44512 52.668023 214.22982 57.369108 214.22982 L 138.53676 214.22982 C 143.23785 214.22982 147.02255 210.44512 147.02255 205.74403 L 147.02255 72.924231 C 147.02255 68.223145 143.23785 64.438444 138.53676 64.438444 L 57.369108 64.438444 z M 82.30092 72.204895 L 113.66076 72.204895 C 116.3179 72.204895 118.45737 74.344366 118.45737 77.001501 C 118.45737 79.658637 116.3179 81.797591 113.66076 81.797591 L 82.30092 81.797591 C 79.643784 81.797591 77.504313 79.658637 77.504313 77.001501 C 77.504313 74.344366 79.643784 72.204895 82.30092 72.204895 z " /><path
       style="fill:#ffefc5;fill-opacity:1;stroke:#eaaa00;stroke-width:1.01547;stroke-linejoin:round;stroke-opacity:1"
       d="m 56.089817,64.788473 c 0,3.31787 -0.246775,6.645511 0,9.953607 0.363172,4.868428 1.377243,9.66607 1.82618,14.526884 0.661326,7.160425 -0.104613,14.360376 0.260885,21.521316 0.0737,1.44393 0.400293,2.86377 0.521763,4.30427 0.288155,3.41706 0,7.07629 0,10.49163 0,5.9978 0.187489,12.03074 0,18.0241 -0.195508,6.24977 -0.445288,12.62978 -1.304414,18.83115 -0.08696,0.53803 -0.173921,1.07606 -0.260882,1.6141 -0.173921,0.44836 -0.437994,0.86997 -0.521766,1.34508 -0.22452,1.27336 -0.142563,3.23117 -0.260882,4.57328 -0.167013,1.89442 -0.553839,3.76181 -0.782648,5.64934 -0.182465,1.50522 0.162332,3.06674 0,4.57328 -0.0396,0.36747 -0.22129,0.70861 -0.260885,1.07606 -0.148902,1.38192 0,2.91591 0,4.30427 0,1.16114 0.30869,3.24322 0,4.30427 -0.213497,0.73383 -0.56915,1.41828 -0.782648,2.15213 -0.322021,1.10686 0,4.94873 0,6.45639 0,4.75262 0,9.50525 0,14.25787"
       id="path2" /><path
       style="fill:#ffefc5;fill-opacity:0;stroke:#eaaa00;stroke-width:0.914067;stroke-linejoin:round;stroke-opacity:1"
       d="m 68.876816,64.769641 c 2.199993,6.534094 0.445947,0.906342 3.078532,13.022468 2.815158,12.956416 2.254606,7.164606 3.078521,18.009791 0.333528,4.39006 0.586078,10.68881 -0.205228,14.96199 -0.06424,0.34656 0.08379,0.76906 0,1.10829 -0.03062,0.12391 -0.186256,0.149 -0.205239,0.27707 -0.05367,0.36227 0.04498,0.74389 0,1.1083 -0.02513,0.20371 -0.156858,0.35823 -0.205227,0.55415 -0.277488,1.12382 -0.461549,3.21955 -0.615705,4.1561 -0.36905,2.24198 -0.711495,3.45422 -0.820942,5.81854 -0.195911,4.23171 0.174205,8.512 0,12.7454 -0.252461,6.13487 -0.205238,1.22146 -0.205238,6.09562 0,2.1657 0.123013,4.49087 0,6.64978 -0.04698,0.82389 -0.727984,2.92745 -0.820942,3.32488 -0.72611,3.10419 -0.658907,4.0637 -1.026171,7.20392 -0.121657,1.04016 -0.560143,1.99744 -0.615714,3.04781 -0.171094,3.23379 0.168828,6.56932 -0.410466,9.69759 -0.083,0.44799 0.0424,0.92715 0,1.38537 -0.09486,1.02462 -0.168601,2.0682 -0.410467,3.04781 -0.22071,0.89387 -0.470477,0.60107 -0.615714,1.38536 -0.205228,1.10829 -0.432133,2.20968 -0.615704,3.32488 -0.229757,1.39584 -0.164051,2.98777 -0.205229,4.43318 -0.09995,3.50823 -0.101297,7.0208 -0.205247,10.52881 0.254764,1.36197 -0.364452,2.57438 -0.410467,3.87904 -0.14845,4.20865 -0.205228,8.30052 -0.205228,12.46831 0,0.0924 0,-0.18471 0,-0.27706 0,-0.36944 0,-0.73888 0,-1.10832 0,-1.10829 0,-2.21658 0,-3.32487"
       id="path3" /><path
       style="fill:#ffefc5;fill-opacity:0;stroke:#eaaa00;stroke-width:1.02484;stroke-linejoin:round;stroke-opacity:1"
       d="m 102.52697,82.178106 c 0,5.023479 0,10.046961 0,15.070444 0,1.278705 -0.13444,2.56523 0,3.83611 0.29235,2.76354 1.42868,5.64555 2.34795,8.22024 0.21591,0.60473 0.0991,1.29497 0.26088,1.91806 0.12322,0.47453 0.41646,0.89078 0.52177,1.37004 0.37463,1.70508 0.11621,1.79854 0.26088,3.01409 0.46139,3.87682 0.26088,7.86638 0.26088,11.78235 0,3.10542 0,6.21085 0,9.31628 0,1.20472 0.16207,2.64453 0,3.8361 -0.0275,0.2022 -0.21372,0.34989 -0.26088,0.54803 -0.14105,0.59256 0.0529,1.30674 0,1.91806 -0.14925,1.72427 -0.55429,3.25318 -0.78265,4.93214 -0.0369,0.27125 0.0633,0.55619 0,0.82202 -0.0298,0.12532 -0.21521,0.15408 -0.26088,0.27401 -0.26633,0.69931 -0.27671,1.48423 -0.52177,2.19206 -0.22633,0.65372 -0.58788,1.25322 -0.78265,1.91806 -0.15556,0.531 -0.0752,1.12385 -0.26088,1.64406 -0.0864,0.24187 -0.4354,0.30612 -0.52176,0.548 -0.42122,1.17974 -0.3286,2.61879 -0.52177,3.83611 -0.10408,0.6559 -0.41769,1.26219 -0.52177,1.91806 -0.10007,0.63066 0.0505,1.28092 0,1.91806 -0.10928,1.37739 -0.40262,2.73364 -0.52176,4.11012 -0.12477,1.44142 0,2.93463 0,4.38414 0,2.48481 -0.12289,4.97973 0.26088,7.3982 0.0739,0.46584 -0.14639,1.18281 0,1.64406 0.12298,0.3875 0.45783,0.69312 0.52176,1.09603 0,2.86515 -0.15555,-0.10553 0.26089,1.64406 0.26451,1.11126 -0.39555,5.60978 0,6.30218 0.18982,0.33228 0.61765,0.47543 0.78265,0.82202 0.33276,0.69901 -0.12076,4.8867 0,6.02819 0.0396,0.37428 0.23851,0.72017 0.26088,1.09602 0.008,0.13653 0.29118,6.51256 0,7.12421 -0.055,0.11553 -0.23106,0.14871 -0.26088,0.27401 -0.0339,0.14256 0.11944,1.11913 0,1.37004 -0.055,0.11553 -0.23106,0.1487 -0.26088,0.27401 -0.30986,1.30175 0,5.24623 0,6.8502"
       id="path4" /><path
       style="fill:#ffefc5;fill-opacity:0;stroke:#eaaa00;stroke-width:1.09863;stroke-linejoin:round;stroke-opacity:1"
       d="m 118.45151,64.978711 c 0.77804,2.006088 1.78681,3.901537 2.33412,6.01827 0.65166,2.520362 1.24678,8.953485 1.55606,12.353294 0.1129,1.24087 0.47339,2.051221 0.77805,3.167509 0.17973,0.658554 -0.0945,1.524159 0,2.217257 0.25545,1.871965 0.32647,0.737912 0.51869,2.850765 0.27731,3.048199 0,6.449204 0,9.502534 0,1.69922 0.27142,3.72726 0,5.38477 -0.39363,2.40375 -0.27598,-1.00297 -0.51869,2.85076 -0.12586,1.99825 -0.0294,3.41891 -0.25935,5.38477 -0.33983,2.90536 0,6.22435 0,9.18578 0,0.67377 0.14023,1.84893 0,2.53402 -0.62885,3.07218 -0.49167,6.35479 -0.77804,9.50252 -0.088,0.96748 -0.43068,1.88328 -0.51869,2.85077 -0.0382,0.41974 0.0569,0.85042 0,1.267 -0.0318,0.23288 -0.238,0.39885 -0.25935,0.63349 -0.29414,3.23319 0.29414,6.58611 0,9.81929 -0.0883,0.97079 -0.39422,1.93862 -0.51868,2.85077 -0.4506,3.30199 0.0153,2.26062 -0.5187,4.43451 -0.30262,1.23198 -0.87522,2.51359 -1.03738,3.80101 -0.26585,2.11047 -0.56119,4.21622 -0.77804,6.33503 -0.2262,2.21009 -0.39322,4.42976 -0.51869,6.65177 -0.0476,0.84267 0,1.68934 0,2.53401 0,0.21289 0.0766,0.76332 0,0.95024 -0.57065,1.39395 -0.28547,3.9925 -0.5187,5.70153 -0.72618,5.32154 -0.7896,14.01381 -0.51869,19.63856 0.16646,3.45599 0.51869,6.68501 0.51869,10.13604"
       id="path5" /><path
       style="fill:#ffefc5;fill-opacity:0;stroke:#eaaa00;stroke-width:1.08072;stroke-linejoin:round;stroke-opacity:1"
       d="m 136.69139,64.749507 c 0.0863,0.92222 0.20426,1.841018 0.25858,2.766664 0.17238,3.483945 0.34479,6.967894 0.51717,10.451839 0.0863,0.512347 0.21879,1.016693 0.25858,1.537039 0.19848,2.59558 -0.17296,5.120039 0.25858,7.685178 0.21542,1.280473 -0.15552,2.702074 0,3.996286 0.26886,2.237338 0.51717,4.479072 0.51717,6.762966 0,3.996301 0,7.992581 0,11.988871 0,1.55831 0.32324,4.30366 0,5.84074 -0.24375,1.15907 -0.0644,2.22674 -0.25859,3.38147 -0.20698,1.23035 -0.29929,2.96027 -0.51716,3.99629 -0.0296,0.14059 -0.22004,0.16994 -0.25858,0.30742 -0.16355,0.58326 0.0731,1.2358 0,1.84444 -0.0888,0.73849 -0.414,1.41601 -0.51717,2.15184 -0.15139,1.07983 0.22282,2.32191 0,3.3815 -0.0662,0.31435 -0.21377,0.60258 -0.25858,0.9222 -0.22243,1.58655 0.14946,3.31933 0,4.91852 -0.10641,1.13858 -0.66933,1.93548 -0.77575,3.07407 -0.15136,1.6195 0.15137,3.29901 0,4.91852 -0.0301,0.32205 -0.19247,0.60786 -0.25858,0.92222 -0.37937,1.80394 0.1605,9.93242 0.25858,11.68146 0.18137,3.23437 -0.38502,6.633 0,9.83703 0.11238,0.93522 0.44522,1.82583 0.51716,2.76667 0.28603,3.74027 0.0737,3.16305 -0.25858,5.53332 -0.1417,1.01076 0.10692,2.05729 0,3.07408 -0.015,0.14378 -0.22003,0.16992 -0.25858,0.3074 -0.49298,1.7582 0.37942,4.03649 0,5.84074 -0.27294,1.29792 -0.11901,2.36151 -0.25858,3.68889 -0.0676,0.64305 -0.42755,1.20518 -0.51716,1.84443 -0.0425,0.30323 0.0507,0.62079 0,0.92223 -0.19274,1.14564 -0.43991,2.28349 -0.77576,3.38148 -0.14728,0.48149 -0.63946,0.74357 -0.77575,1.22962 -0.0818,0.29164 0.18285,0.70486 0,0.92223 -0.061,0.0724 -0.19763,-0.0725 -0.25858,0 -0.12189,0.14491 0.0545,0.42039 0,0.6148 -0.15693,0.55973 -0.36023,0.97734 -0.51716,1.53705 -0.0726,0.25925 0.10209,0.67946 0,0.92222 -0.44143,1.04956 -0.25859,-0.95072 -0.25859,1.22963 0,1.25813 0.061,-0.90464 -0.25858,0.61481 -0.0922,0.43888 -0.13354,1.98303 0,2.45926 0.31593,1.12673 0.7509,2.20215 1.03433,3.38148 0.14404,0.59931 0.0928,1.25313 0.25858,1.84445 0.25361,0.90449 1.43849,0.96089 1.81008,1.84442 0.10737,0.2553 0,0.93821 0,1.22964 0,0.20493 0.15418,0.52316 0,0.61481 -0.573,0.34059 -0.97214,-0.8483 -1.29291,-1.22962"
       id="path6" /><path
       style="fill:#ffefc5;fill-opacity:0;stroke:#eaaa00;stroke-width:0.981331;stroke-linejoin:round;stroke-opacity:1"
       d="m 84.785551,82.374207 c 1.047932,4.446697 3.027526,8.631464 4.177398,13.053881 0.201608,0.775394 -0.103461,1.714497 0,2.510363 0.22905,1.761816 0.143893,3.217709 0.261096,5.020719 0.03302,0.50801 0.21712,0.99898 0.261084,1.50622 0.340598,3.92987 0,8.32212 0,12.30078 0,1.94548 0.322774,4.41384 0,6.2759 -0.182683,1.0539 -0.29411,2.63734 -0.52218,3.51451 -0.153,0.58843 -0.630264,1.16882 -0.783255,1.75724 -0.274465,1.0556 -0.298583,2.18854 -0.522179,3.26348 -0.264538,1.27175 0,3.32653 0,4.51865 0,3.20016 0.309673,6.61444 0,9.7904 -0.532588,5.46227 -1.773793,10.03374 -2.871964,15.31322 -0.589513,2.83407 -0.842072,5.10892 -1.305445,7.78212 -0.146255,0.84376 0.63704,4.60889 0.783265,5.52279 0.04414,0.27587 0.61216,5.58617 0.783265,6.02487 0.341648,0.87599 0.897694,1.66091 1.305434,2.51037 0.422561,0.88028 0.669846,3.53714 0.783265,4.51865 0.276967,2.39676 -0.311064,4.88732 0,7.28003 0.441287,3.39437 0.958703,6.91262 0,10.2925 -0.424082,1.49512 -2.349784,6.55498 -2.349784,8.2842"
       id="path7" /><path
       style="fill:#000000;fill-opacity:1;stroke:#eaaa00;stroke-width:1;stroke-linejoin:round;stroke-opacity:1"
       d="m 82.145495,64.894614 c 0.240027,0.319291 0.128291,0.693595 0.228272,1.043533 0.02625,0.09188 0.100192,0.170137 0.130442,0.260881 0.03783,0.113491 0.04196,0.242422 0.06522,0.358715 0.02214,0.110693 0.07544,0.214161 0.09783,0.326104 0.03825,0.191246 -5.29e-4,0.388056 0.03261,0.586986 0.0057,0.03391 0.02175,0.06522 0.03261,0.09783 0,0.04348 -0.0061,0.0874 0,0.130442 0.0058,0.041 0.09693,0.257262 0.09783,0.260882 0.02109,0.08433 0.01058,0.172746 0.03261,0.260884 0.04342,0.173699 -0.03208,0.377918 0,0.554376 0.01794,0.0986 0.04557,0.19522 0.06522,0.293492 0.02506,0.125317 -0.01945,0.264906 0,0.391324 0.02175,0.108701 0.04348,0.217403 0.06522,0.326104 0,0.05435 -0.0077,0.109249 0,0.163052 0.01458,0.102111 0.198435,0.269203 0.228272,0.358714 0.0021,0.0066 -0.01085,0.119592 0,0.130443 0.0077,0.0077 0.02492,-0.0077 0.03261,0 0.02035,0.02035 0.02172,0.364011 0.03261,0.423934 0.02932,0.161279 0.08069,0.307297 0.130442,0.456543 0.01542,0.04627 -0.02162,0.119796 0,0.163053 0.04088,0.08175 0.03261,0.160782 0.03261,0.260884"
       id="path8" /><path
       style="fill:#000000;fill-opacity:1;stroke:#eaaa00;stroke-width:1.03379;stroke-linejoin:round;stroke-opacity:1"
       d="m 101.35348,64.632896 c 0.002,0.281585 -0.0177,0.568036 0.0326,0.837392 0.005,0.02551 0.0259,0.04478 0.0326,0.06978 0.0543,0.203374 0.0536,0.401339 0.13029,0.593152 0.0191,0.0478 0.0383,0.09629 0.0651,0.139562 0.0171,0.02738 0.0538,0.03923 0.0652,0.06978 0.0121,0.0324 -0.0103,0.07157 0,0.104672 0.023,0.07402 0.0777,0.134333 0.0977,0.209349 0.0241,0.09016 0.0182,0.186638 0.0326,0.279133 0.007,0.0473 0.0217,0.09305 0.0326,0.139563 0.0217,0.06978 0.0528,0.136978 0.0651,0.209348 0.0136,0.0801 -0.0149,0.164407 0,0.244241 0.0314,0.168091 0.0929,0.328396 0.13028,0.488477 0.0179,0.07676 -0.0145,0.166494 0,0.24424 0.0306,0.163866 0.01,0.271403 0.0326,0.418695 0.004,0.02565 0.0279,0.04429 0.0326,0.06978 0.0171,0.09123 -0.0132,0.187168 0,0.27913 0.0136,0.0948 0.0492,0.18477 0.0651,0.27913 0.0401,0.23595 0,0.526652 0,0.767609 0,0.523372 0,1.046743 0,1.570111"
       id="path9" /></g></svg>
