<?xml version="1.0" encoding="UTF-8" standalone="no"?>
<!-- Created with Inkscape (http://www.inkscape.org/) -->

<svg
   width="210mm"
   height="297mm"
   viewBox="0 0 210 297"
   version="1.1"
   id="svg1"
   inkscape:version="1.4.3 (0d15f75, 2025-12-25)"
   sodipodi:docname="mannenhitsu.svg"
   xml:space="preserve"
   xmlns:inkscape="http://www.inkscape.org/namespaces/inkscape"
   xmlns:sodipodi="http://sodipodi.sourceforge.net/DTD/sodipodi-0.dtd"
   xmlns="http://www.w3.org/2000/svg"
   xmlns:svg="http://www.w3.org/2000/svg"><sodipodi:namedview
     id="namedview1"
     pagecolor="#ffffff"
     bordercolor="#000000"
     borderopacity="0.25"
     inkscape:showpageshadow="2"
     inkscape:pageopacity="0.0"
     inkscape:pagecheckerboard="0"
     inkscape:deskcolor="#d1d1d1"
     inkscape:document-units="mm"
     inkscape:zoom="1.7043846"
     inkscape:cx="238.20915"
     inkscape:cy="445.61539"
     inkscape:window-width="1920"
     inkscape:window-height="1001"
     inkscape:window-x="-9"
     inkscape:window-y="-9"
     inkscape:window-maximized="1"
     inkscape:current-layer="layer1-1" /><defs
     id="defs1"><inkscape:path-effect
       effect="offset"
       id="path-effect9"
       is_visible="true"
       lpeversion="1.3"
       linejoin_type="miter"
       unit="mm"
       offset="0"
       miter_limit="6.3"
       attempt_force_join="false"
       update_on_knot_move="true" /><inkscape:path-effect
       effect="offset"
       id="path-effect7"
       is_visible="true"
       lpeversion="1.3"
       linejoin_type="miter"
       unit="mm"
       offset="0"
       miter_limit="6.3"
       attempt_force_join="false"
       update_on_knot_move="true" /><inkscape:path-effect
       effect="offset"
       id="path-effect5"
       is_visible="true"
       lpeversion="1.3"
       linejoin_type="miter"
       unit="mm"
       offset="0"
       miter_limit="6.3"
       attempt_force_join="false"
       update_on_knot_move="true" /></defs><g
     inkscape:label="Layer 1"
     inkscape:groupmode="layer"
     id="layer1"><path
       style="fill:#ffe8ac;fill-opacity:1;stroke:#1f1d75;stroke-width:1.09;stroke-opacity:1"
       d="m 81.397057,177.75193 c -0.08596,10.23052 -8.337625,15.40457 -8.337625,15.40457 v 0 c 9.970771,7.40831 15.471884,27.51656 15.471884,27.51656 v -0.11754 c 8.423582,-23.2833 14.440424,-27.51661 14.440424,-27.51661 v 0 c -8.595491,-7.17311 -7.220212,-15.28698 -7.220212,-15.28698 z"
       id="path1" /><path
       style="fill:#000000;fill-opacity:1;stroke:#000000;stroke-width:1.24692;stroke-opacity:1"
       d="M 88.72868,221.01329 C 88.548956,197.46155 88.548956,197.46155 88.548956,197.46155"
       id="path2" /><path
       style="fill:#000000;fill-opacity:1;stroke:#000000;stroke-width:1;stroke-opacity:1"
       id="path3"
       sodipodi:type="arc"
       sodipodi:cx="88.454353"
       sodipodi:cy="196.00154"
       sodipodi:rx="1.9369565"
       sodipodi:ry="1.9369565"
       sodipodi:start="0"
       sodipodi:end="6.2674289"
       sodipodi:open="true"
       sodipodi:arc-type="arc"
       d="m 90.39131,196.00154 a 1.9369565,1.9369565 0 0 1 -1.929327,1.93694 1.9369565,1.9369565 0 0 1 -1.944526,-1.92168 1.9369565,1.9369565 0 0 1 1.914007,-1.95208 1.9369565,1.9369565 0 0 1 1.959605,1.9063" /><rect
       style="fill:#000000;fill-opacity:1;stroke:#211f7c;stroke-width:0.715002"
       id="rect1"
       width="15.042762"
       height="65.319458"
       x="81.0252"
       y="113.39199"
       ry="0" /><path
       style="fill:#000000;fill-opacity:1;stroke:#f4ff6f;stroke-width:2;stroke-opacity:1;stroke-dasharray:none"
       d="m 81.633563,171.02343 13.612679,-0.0349 0.279507,-2.9e-4"
       id="path4"
       sodipodi:nodetypes="ccc" /><path
       id="rect4"
       style="fill:#000000;fill-opacity:1;stroke:#211f7c;stroke-width:0.855286;stroke-dasharray:none;stroke-opacity:1"
       d="m 86.188664,43.351279 c -4.009352,0 -7.23708,2.481336 -7.23708,5.563548 v 46.671939 c 0,0.268797 0.02479,0.532846 0.07226,0.791258 V 117.22035 H 98.353217 V 59.42131 h -0.07226 V 48.914827 c 0,-3.082212 -3.227729,-5.563548 -7.23708,-5.563548 z" /><path
       style="fill:#000000;fill-opacity:1;stroke:#f4ff6f;stroke-width:3.1754;stroke-dasharray:none;stroke-opacity:1"
       d="m 79.663209,53.582879 18.04646,-0.06634 0.370545,-5.52e-4"
       id="path4-8"
       sodipodi:nodetypes="ccc" /><path
       style="fill:#211f7c;fill-opacity:0;stroke:#211f7c;stroke-width:6.23;stroke-linejoin:round;stroke-dasharray:none;stroke-opacity:1"
       d="m 98.38843,58.057678 h 6.56341 l 3.09938,46.814372 c -5.65182,0.20355 -6.01646,0.40709 -6.01646,0.40709"
       id="path5"
       inkscape:path-effect="#path-effect5"
       inkscape:original-d="m 98.38843,58.057678 c 6.56341,0 6.56341,0 6.56341,0 3.09938,46.814372 3.09938,46.814372 3.09938,46.814372 -5.65182,0.20355 -6.01646,0.40709 -6.01646,0.40709"
       transform="translate(0.65861425)" /><path
       style="fill:#000000;fill-opacity:0;stroke:#f4ff6f;stroke-width:4.43042;stroke-linejoin:round;stroke-dasharray:none;stroke-opacity:1"
       d="m 98.38843,58.057678 h 6.56341 l 3.09938,46.814372 c -5.65182,0.20355 -6.01646,0.40709 -6.01646,0.40709"
       id="path7"
       inkscape:path-effect="#path-effect9"
       inkscape:original-d="m 98.38843,58.057678 c 6.56341,0 6.56341,0 6.56341,0 3.09938,46.814372 3.09938,46.814372 3.09938,46.814372 -5.65182,0.20355 -6.01646,0.40709 -6.01646,0.40709"
       transform="translate(0.65861425)" /><path
       style="fill:#211f7c;fill-opacity:0;stroke:#211f7c;stroke-width:1.11779;stroke-linejoin:round;stroke-dasharray:none;stroke-opacity:1"
       d="m 101.06353,102.60944 c 2.90151,5.53101 2.90151,5.53101 2.90151,5.53101"
       id="path9" /><g
       inkscape:label="Layer 1"
       id="layer1-1"
       transform="matrix(0.44177496,0,0,0.44772491,-51.824966,-3.8708207)" /></g></svg>
