<?xml version="1.0" encoding="UTF-8" standalone="no"?>
<!-- Created with Inkscape (http://www.inkscape.org/) -->

<svg
   width="210mm"
   height="297mm"
   viewBox="0 0 210 297"
   version="1.1"
   id="svg1"
   inkscape:version="1.4.3 (0d15f75, 2025-12-25)"
   sodipodi:docname="niku.svg"
   xmlns:inkscape="http://www.inkscape.org/namespaces/inkscape"
   xmlns:sodipodi="http://sodipodi.sourceforge.net/DTD/sodipodi-0.dtd"
   xmlns="http://www.w3.org/2000/svg"
   xmlns:svg="http://www.w3.org/2000/svg">
  <sodipodi:namedview
     id="namedview1"
     pagecolor="#ffffff"
     bordercolor="#000000"
     borderopacity="0.25"
     inkscape:showpageshadow="2"
     inkscape:pageopacity="0.0"
     inkscape:pagecheckerboard="0"
     inkscape:deskcolor="#d1d1d1"
     inkscape:document-units="mm"
     inkscape:zoom="1.4342733"
     inkscape:cx="337.45312"
     inkscape:cy="586.70827"
     inkscape:window-width="1920"
     inkscape:window-height="1001"
     inkscape:window-x="-9"
     inkscape:window-y="-9"
     inkscape:window-maximized="1"
     inkscape:current-layer="layer1" />
  <defs
     id="defs1" />
  <g
     inkscape:label="Layer 1"
     inkscape:groupmode="layer"
     id="layer1">
    <rect
       style="fill:#f8f8f8;fill-opacity:1;stroke:#211f7c;stroke-width:0.492121;stroke-linejoin:round"
       id="rect1"
       width="137.43956"
       height="81.360046"
       x="36.337051"
       y="103.11594"
       ry="2.8476019" />
    <path
       style="fill:#f8cfcf;fill-opacity:1;stroke:#211f7c;stroke-width:0.499999;stroke-linejoin:round"
       d="m 60.875776,125.62547 c 22.874534,-18.07826 29.515527,-16.60249 47.409314,-14.38882 17.89379,2.21366 29.14658,-1.47578 43.35093,17.89379 14.20435,19.36956 28.03975,34.86521 -1.66025,46.30248 -29.7,11.43727 -42.42857,-0.7379 -73.050925,-4.79626 -30.622361,-4.05839 -35.972051,-10.51492 -34.127331,-21.2143 1.844723,-10.69938 18.078262,-23.79689 18.078262,-23.79689 z"
       id="path1" />
    <path
       style="fill:#f85e5e;fill-opacity:1;stroke:#211f7c;stroke-width:0.497674;stroke-linejoin:round;stroke-dasharray:none"
       d="m 49.259462,163.15509 c -2.79016,-7.3604 -0.767415,-13.21078 0.301664,-16.60413 1.069078,-3.39334 3.435275,-7.95062 12.960695,-16.11387 9.525422,-8.16324 10.825338,-13.42907 24.758815,-10.55952 13.933474,2.86953 23.265014,1.79797 29.006104,8.49598 5.74107,6.69802 11.86155,11.51836 10.48978,23.12582 -1.37177,11.60748 -1.48614,20.93369 -9.84696,24.20874 -8.36079,3.27501 -14.1936,2.35998 -26.823343,-1.48731 -12.629732,-3.84728 -30.467797,-3.5974 -40.846755,-11.06571 z"
       id="path2" />
    <path
       style="fill:#f85e5e;fill-opacity:1;stroke:#211f7c;stroke-width:0.5;stroke-linejoin:round;stroke-dasharray:none"
       d="m 123.57683,128.41353 c 0.75142,-2.37122 2.44678,-3.3412 3.40316,-3.92628 0.95637,-0.58507 2.48172,-1.17011 6.58309,-1.07755 4.10136,0.0926 5.49249,-0.89283 8.52599,2.80277 3.03349,3.69558 5.66452,5.45105 5.80989,8.29962 0.14537,2.84859 0.76501,5.32764 -1.91465,7.82197 -2.67967,2.49431 -4.5769,4.7115 -7.39781,3.69512 -2.8209,-1.01638 -4.14809,-2.49462 -6.64818,-6.14399 -2.50008,-3.64936 -7.16938,-7.43741 -8.36149,-11.47166 z"
       id="path2-1" />
    <path
       style="fill:#f85e5e;fill-opacity:1;stroke:#211f7c;stroke-width:0.5;stroke-linejoin:round;stroke-dasharray:none"
       d="m 152.96373,142.36037 c 2.8483,1.35453 3.82807,3.7773 4.4279,5.1495 0.59982,1.37219 1.12362,3.5104 0.46076,9.01881 -0.66289,5.50838 0.37673,7.5238 -4.62394,11.07353 -5.00065,3.54972 -7.53499,6.83813 -11.09664,6.62195 -3.56169,-0.21617 -6.72718,0.2596 -9.47104,-3.70877 -2.74386,-3.96838 -5.24759,-6.84326 -3.60698,-10.49417 1.64064,-3.65088 3.6561,-5.22398 8.52804,-8.06226 4.87194,-2.83824 10.20604,-8.57692 15.3819,-9.59859 z"
       id="path2-1-1" />
    <rect
       style="fill:#f8f8f8;fill-opacity:1;stroke:#211f7c;stroke-width:0.334775;stroke-linejoin:round;stroke-dasharray:none;stroke-opacity:1"
       id="rect5"
       width="34.661495"
       height="16.767708"
       x="133.10622"
       y="160.59254" />
    <text
       xml:space="preserve"
       style="font-size:11.4296px;writing-mode:lr-tb;direction:ltr;fill:#000000;fill-opacity:1;stroke:#211f7c;stroke-width:1.18989;stroke-linejoin:round;stroke-dasharray:none;stroke-opacity:0"
       x="135.66551"
       y="173.42601"
       id="text5"><tspan
         sodipodi:role="line"
         id="tspan5"
         style="fill:#000000;fill-opacity:1;stroke:#211f7c;stroke-width:1.18989;stroke-dasharray:none;stroke-opacity:0"
         x="135.66551"
         y="173.42601">￥980</tspan></text>
  </g>
</svg>
