<?xml version="1.0" encoding="UTF-8" standalone="no"?>
<!-- Created with Inkscape (http://www.inkscape.org/) -->

<svg
   width="210mm"
   height="297mm"
   viewBox="0 0 210 297"
   version="1.1"
   id="svg1"
   inkscape:version="1.4.3 (0d15f75, 2025-12-25)"
   sodipodi:docname="reizouko_gochagocha.svg"
   xml:space="preserve"
   xmlns:inkscape="http://www.inkscape.org/namespaces/inkscape"
   xmlns:sodipodi="http://sodipodi.sourceforge.net/DTD/sodipodi-0.dtd"
   xmlns="http://www.w3.org/2000/svg"
   xmlns:svg="http://www.w3.org/2000/svg"><sodipodi:namedview
     id="namedview1"
     pagecolor="#ffffff"
     bordercolor="#000000"
     borderopacity="0.25"
     inkscape:showpageshadow="2"
     inkscape:pageopacity="0.0"
     inkscape:pagecheckerboard="0"
     inkscape:deskcolor="#d1d1d1"
     inkscape:document-units="mm"
     inkscape:zoom="0.71713667"
     inkscape:cx="52.988505"
     inkscape:cy="639.34815"
     inkscape:window-width="1920"
     inkscape:window-height="1001"
     inkscape:window-x="-9"
     inkscape:window-y="-9"
     inkscape:window-maximized="1"
     inkscape:current-layer="svg1" /><defs
     id="defs1" /><g
     id="g6"
     transform="translate(-13.826792,-1.5652972)"><g
       inkscape:label="Layer 1"
       inkscape:groupmode="layer"
       id="layer1"><rect
         style="fill:#c5c5c5;fill-opacity:1;stroke:#211f7c;stroke-width:1;stroke-linejoin:round;stroke-dasharray:none"
         id="rect6"
         width="71.481911"
         height="74.090736"
         x="50.611275"
         y="133.83292" /><path
         id="rect2"
         style="fill:#e7e7e7;fill-opacity:1;stroke:#211f7c;stroke-width:1;stroke-linejoin:round;stroke-dasharray:none"
         d="m 34.571533,144.21032 v 46.09899 H 140.30771 V 144.21032 H 116.73964 A 31.305944,12.78326 0 0 1 85.83042,154.96418 31.305944,12.78326 0 0 1 54.921712,144.21032 Z" /><rect
         style="fill:#e7e7e7;fill-opacity:1;stroke:#211f7c;stroke-width:0.999324;stroke-linejoin:round;stroke-dasharray:none"
         id="rect3"
         width="105.76166"
         height="5.2183328"
         x="34.546463"
         y="144.007"
         ry="0" /><path
         id="rect4"
         style="fill:#e7e7e7;fill-opacity:1;stroke:#211f7c;stroke-width:1;stroke-linejoin:round;stroke-dasharray:none"
         d="m 34.548796,190.54599 v 46.09848 H 140.28498 V 190.54599 H 116.71639 A 31.305944,12.78326 0 0 1 85.807166,201.29986 31.305944,12.78326 0 0 1 54.898458,190.54599 Z" /><rect
         style="fill:#e7e7e7;fill-opacity:1;stroke:#211f7c;stroke-width:0.999324;stroke-linejoin:round;stroke-dasharray:none"
         id="rect5"
         width="105.76166"
         height="5.2183328"
         x="34.523403"
         y="190.34245"
         ry="0" /></g><rect
       style="fill:#e7e7e7;fill-opacity:1;stroke:#211f7c;stroke-width:1.112;stroke-linejoin:round"
       id="rect1"
       width="105.51801"
       height="95.187576"
       x="34.733768"
       y="49.069565" /></g><rect
     style="fill:#fbfbfb;fill-opacity:1;stroke:#211f7c;stroke-width:1.04676;stroke-linejoin:round;stroke-dasharray:none"
     id="rect7"
     width="97.420799"
     height="89.752556"
     x="26.339123"
     y="50.40625" /><g
     inkscape:label="Layer 1"
     id="g37"
     transform="matrix(-0.20329557,0.05583213,-0.06791968,-0.2473087,120.87018,154.61702)"
     style="stroke-width:2.15029;stroke-dasharray:none"><rect
       style="fill:#f8f8f8;fill-opacity:1;stroke:#211f7c;stroke-width:2.15029;stroke-linejoin:round;stroke-dasharray:none"
       id="rect34"
       width="137.43956"
       height="81.360046"
       x="36.337051"
       y="103.11594"
       ry="2.8476019" /><path
       style="fill:#f8cfcf;fill-opacity:1;stroke:#211f7c;stroke-width:2.15029;stroke-linejoin:round;stroke-dasharray:none"
       d="m 60.875776,125.62547 c 22.874534,-18.07826 29.515527,-16.60249 47.409314,-14.38882 17.89379,2.21366 29.14658,-1.47578 43.35093,17.89379 14.20435,19.36956 28.03975,34.86521 -1.66025,46.30248 -29.7,11.43727 -42.42857,-0.7379 -73.050925,-4.79626 -30.622361,-4.05839 -35.972051,-10.51492 -34.127331,-21.2143 1.844723,-10.69938 18.078262,-23.79689 18.078262,-23.79689 z"
       id="path34" /><path
       style="fill:#f85e5e;fill-opacity:1;stroke:#211f7c;stroke-width:2.15029;stroke-linejoin:round;stroke-dasharray:none"
       d="m 49.259462,163.15509 c -2.79016,-7.3604 -0.767415,-13.21078 0.301664,-16.60413 1.069078,-3.39334 3.435275,-7.95062 12.960695,-16.11387 9.525422,-8.16324 10.825338,-13.42907 24.758815,-10.55952 13.933474,2.86953 23.265014,1.79797 29.006104,8.49598 5.74107,6.69802 11.86155,11.51836 10.48978,23.12582 -1.37177,11.60748 -1.48614,20.93369 -9.84696,24.20874 -8.36079,3.27501 -14.1936,2.35998 -26.823343,-1.48731 -12.629732,-3.84728 -30.467797,-3.5974 -40.846755,-11.06571 z"
       id="path35" /><path
       style="fill:#f85e5e;fill-opacity:1;stroke:#211f7c;stroke-width:2.15029;stroke-linejoin:round;stroke-dasharray:none"
       d="m 123.57683,128.41353 c 0.75142,-2.37122 2.44678,-3.3412 3.40316,-3.92628 0.95637,-0.58507 2.48172,-1.17011 6.58309,-1.07755 4.10136,0.0926 5.49249,-0.89283 8.52599,2.80277 3.03349,3.69558 5.66452,5.45105 5.80989,8.29962 0.14537,2.84859 0.76501,5.32764 -1.91465,7.82197 -2.67967,2.49431 -4.5769,4.7115 -7.39781,3.69512 -2.8209,-1.01638 -4.14809,-2.49462 -6.64818,-6.14399 -2.50008,-3.64936 -7.16938,-7.43741 -8.36149,-11.47166 z"
       id="path36" /><path
       style="fill:#f85e5e;fill-opacity:1;stroke:#211f7c;stroke-width:2.15029;stroke-linejoin:round;stroke-dasharray:none"
       d="m 152.96373,142.36037 c 2.8483,1.35453 3.82807,3.7773 4.4279,5.1495 0.59982,1.37219 1.12362,3.5104 0.46076,9.01881 -0.66289,5.50838 0.37673,7.5238 -4.62394,11.07353 -5.00065,3.54972 -7.53499,6.83813 -11.09664,6.62195 -3.56169,-0.21617 -6.72718,0.2596 -9.47104,-3.70877 -2.74386,-3.96838 -5.24759,-6.84326 -3.60698,-10.49417 1.64064,-3.65088 3.6561,-5.22398 8.52804,-8.06226 4.87194,-2.83824 10.20604,-8.57692 15.3819,-9.59859 z"
       id="path37" /><rect
       style="fill:#f8f8f8;fill-opacity:1;stroke:#211f7c;stroke-width:2.15029;stroke-linejoin:round;stroke-dasharray:none;stroke-opacity:1"
       id="rect37"
       width="34.661495"
       height="16.767708"
       x="133.10622"
       y="160.59254" /><text
       xml:space="preserve"
       style="font-size:11.4296px;writing-mode:lr-tb;direction:ltr;fill:#000000;fill-opacity:1;stroke:#211f7c;stroke-width:2.15029;stroke-linejoin:round;stroke-dasharray:none;stroke-opacity:0"
       x="135.66551"
       y="173.42601"
       id="text37"><tspan
         sodipodi:role="line"
         id="tspan37"
         style="fill:#000000;fill-opacity:1;stroke:#211f7c;stroke-width:2.15029;stroke-dasharray:none;stroke-opacity:0"
         x="135.66551"
         y="173.42601">￥980</tspan></text></g><rect
     style="fill:#e9feff;fill-opacity:1;stroke:#211f7c;stroke-width:1.01795;stroke-linejoin:round;stroke-dasharray:none"
     id="rect17"
     width="97.422592"
     height="4.677938"
     x="26.292927"
     y="135.46812" /><rect
     style="fill:#e9feff;fill-opacity:1;stroke:#211f7c;stroke-width:1.01838;stroke-linejoin:round;stroke-dasharray:none"
     id="rect8"
     width="97.514397"
     height="4.677506"
     x="26.293142"
     y="75.143456" /><rect
     style="fill:#e9feff;fill-opacity:1;stroke:#211f7c;stroke-width:1.01795;stroke-linejoin:round;stroke-dasharray:none"
     id="rect9"
     width="97.422592"
     height="4.677938"
     x="26.292927"
     y="105.30573" /><rect
     style="fill:#e7e7e7;fill-opacity:1;stroke:#211f7c;stroke-width:1.09409;stroke-linejoin:round;stroke-dasharray:none"
     id="rect10"
     width="52.24194"
     height="95.201546"
     x="20.946417"
     y="47.532772" /><rect
     style="fill:#e7e7e7;fill-opacity:1;stroke:#211f7c;stroke-width:1.09219;stroke-linejoin:round;stroke-dasharray:none"
     id="rect11"
     width="52.059368"
     height="95.203445"
     x="126.2497"
     y="47.531822" /><rect
     style="fill:#c5c5c5;fill-opacity:1;stroke:#211f7c;stroke-width:1;stroke-linejoin:round;stroke-dasharray:none"
     id="rect12"
     width="4.5654502"
     height="26.47961"
     x="64.698952"
     y="83.221642" /><rect
     style="fill:#fbfbfb;fill-opacity:1;stroke:#211f7c;stroke-width:1;stroke-linejoin:round;stroke-dasharray:none"
     id="rect13"
     width="47.192387"
     height="90.069481"
     x="128.65236"
     y="50.340023" /><g
     inkscape:label="Layer 1"
     id="g45"
     transform="matrix(0.20905175,-0.02727054,0.03317456,0.25431108,119.73132,31.838204)"
     style="stroke-width:2.15029;stroke-dasharray:none"><rect
       style="fill:#f8f8f8;fill-opacity:1;stroke:#211f7c;stroke-width:2.15029;stroke-linejoin:round;stroke-dasharray:none"
       id="rect42"
       width="137.43956"
       height="81.360046"
       x="36.337051"
       y="103.11594"
       ry="2.8476019" /><path
       style="fill:#f8cfcf;fill-opacity:1;stroke:#211f7c;stroke-width:2.15029;stroke-linejoin:round;stroke-dasharray:none"
       d="m 60.875776,125.62547 c 22.874534,-18.07826 29.515527,-16.60249 47.409314,-14.38882 17.89379,2.21366 29.14658,-1.47578 43.35093,17.89379 14.20435,19.36956 28.03975,34.86521 -1.66025,46.30248 -29.7,11.43727 -42.42857,-0.7379 -73.050925,-4.79626 -30.622361,-4.05839 -35.972051,-10.51492 -34.127331,-21.2143 1.844723,-10.69938 18.078262,-23.79689 18.078262,-23.79689 z"
       id="path42" /><path
       style="fill:#f85e5e;fill-opacity:1;stroke:#211f7c;stroke-width:2.15029;stroke-linejoin:round;stroke-dasharray:none"
       d="m 49.259462,163.15509 c -2.79016,-7.3604 -0.767415,-13.21078 0.301664,-16.60413 1.069078,-3.39334 3.435275,-7.95062 12.960695,-16.11387 9.525422,-8.16324 10.825338,-13.42907 24.758815,-10.55952 13.933474,2.86953 23.265014,1.79797 29.006104,8.49598 5.74107,6.69802 11.86155,11.51836 10.48978,23.12582 -1.37177,11.60748 -1.48614,20.93369 -9.84696,24.20874 -8.36079,3.27501 -14.1936,2.35998 -26.823343,-1.48731 -12.629732,-3.84728 -30.467797,-3.5974 -40.846755,-11.06571 z"
       id="path43" /><path
       style="fill:#f85e5e;fill-opacity:1;stroke:#211f7c;stroke-width:2.15029;stroke-linejoin:round;stroke-dasharray:none"
       d="m 123.57683,128.41353 c 0.75142,-2.37122 2.44678,-3.3412 3.40316,-3.92628 0.95637,-0.58507 2.48172,-1.17011 6.58309,-1.07755 4.10136,0.0926 5.49249,-0.89283 8.52599,2.80277 3.03349,3.69558 5.66452,5.45105 5.80989,8.29962 0.14537,2.84859 0.76501,5.32764 -1.91465,7.82197 -2.67967,2.49431 -4.5769,4.7115 -7.39781,3.69512 -2.8209,-1.01638 -4.14809,-2.49462 -6.64818,-6.14399 -2.50008,-3.64936 -7.16938,-7.43741 -8.36149,-11.47166 z"
       id="path44" /><path
       style="fill:#f85e5e;fill-opacity:1;stroke:#211f7c;stroke-width:2.15029;stroke-linejoin:round;stroke-dasharray:none"
       d="m 152.96373,142.36037 c 2.8483,1.35453 3.82807,3.7773 4.4279,5.1495 0.59982,1.37219 1.12362,3.5104 0.46076,9.01881 -0.66289,5.50838 0.37673,7.5238 -4.62394,11.07353 -5.00065,3.54972 -7.53499,6.83813 -11.09664,6.62195 -3.56169,-0.21617 -6.72718,0.2596 -9.47104,-3.70877 -2.74386,-3.96838 -5.24759,-6.84326 -3.60698,-10.49417 1.64064,-3.65088 3.6561,-5.22398 8.52804,-8.06226 4.87194,-2.83824 10.20604,-8.57692 15.3819,-9.59859 z"
       id="path45" /><rect
       style="fill:#f8f8f8;fill-opacity:1;stroke:#211f7c;stroke-width:2.15029;stroke-linejoin:round;stroke-dasharray:none;stroke-opacity:1"
       id="rect45"
       width="34.661495"
       height="16.767708"
       x="133.10622"
       y="160.59254" /><text
       xml:space="preserve"
       style="font-size:11.4296px;writing-mode:lr-tb;direction:ltr;fill:#000000;fill-opacity:1;stroke:#211f7c;stroke-width:2.15029;stroke-linejoin:round;stroke-dasharray:none;stroke-opacity:0"
       x="135.66551"
       y="173.42601"
       id="text45"><tspan
         sodipodi:role="line"
         id="tspan45"
         style="fill:#000000;fill-opacity:1;stroke:#211f7c;stroke-width:2.15029;stroke-dasharray:none;stroke-opacity:0"
         x="135.66551"
         y="173.42601">￥980</tspan></text></g><rect
     style="fill:#e9feff;fill-opacity:1;stroke:#211f7c;stroke-width:0.996304;stroke-linejoin:round;stroke-dasharray:none"
     id="rect14"
     width="47.145912"
     height="4.722044"
     x="128.6814"
     y="75.022118" /><g
     inkscape:label="Layer 1"
     id="g49"
     transform="matrix(0.20255259,0.0584702,-0.07112889,0.24640486,147.02051,54.290177)"
     style="stroke-width:2.15029;stroke-dasharray:none"
     inkscape:transform-center-x="-2.5826086"><rect
       style="fill:#f8f8f8;fill-opacity:1;stroke:#211f7c;stroke-width:2.15029;stroke-linejoin:round;stroke-dasharray:none"
       id="rect46"
       width="137.43956"
       height="81.360046"
       x="36.337051"
       y="103.11594"
       ry="2.8476019" /><path
       style="fill:#f8cfcf;fill-opacity:1;stroke:#211f7c;stroke-width:2.15029;stroke-linejoin:round;stroke-dasharray:none"
       d="m 60.875776,125.62547 c 22.874534,-18.07826 29.515527,-16.60249 47.409314,-14.38882 17.89379,2.21366 29.14658,-1.47578 43.35093,17.89379 14.20435,19.36956 28.03975,34.86521 -1.66025,46.30248 -29.7,11.43727 -42.42857,-0.7379 -73.050925,-4.79626 -30.622361,-4.05839 -35.972051,-10.51492 -34.127331,-21.2143 1.844723,-10.69938 18.078262,-23.79689 18.078262,-23.79689 z"
       id="path46" /><path
       style="fill:#f85e5e;fill-opacity:1;stroke:#211f7c;stroke-width:2.15029;stroke-linejoin:round;stroke-dasharray:none"
       d="m 49.259462,163.15509 c -2.79016,-7.3604 -0.767415,-13.21078 0.301664,-16.60413 1.069078,-3.39334 3.435275,-7.95062 12.960695,-16.11387 9.525422,-8.16324 10.825338,-13.42907 24.758815,-10.55952 13.933474,2.86953 23.265014,1.79797 29.006104,8.49598 5.74107,6.69802 11.86155,11.51836 10.48978,23.12582 -1.37177,11.60748 -1.48614,20.93369 -9.84696,24.20874 -8.36079,3.27501 -14.1936,2.35998 -26.823343,-1.48731 -12.629732,-3.84728 -30.467797,-3.5974 -40.846755,-11.06571 z"
       id="path47" /><path
       style="fill:#f85e5e;fill-opacity:1;stroke:#211f7c;stroke-width:2.15029;stroke-linejoin:round;stroke-dasharray:none"
       d="m 123.57683,128.41353 c 0.75142,-2.37122 2.44678,-3.3412 3.40316,-3.92628 0.95637,-0.58507 2.48172,-1.17011 6.58309,-1.07755 4.10136,0.0926 5.49249,-0.89283 8.52599,2.80277 3.03349,3.69558 5.66452,5.45105 5.80989,8.29962 0.14537,2.84859 0.76501,5.32764 -1.91465,7.82197 -2.67967,2.49431 -4.5769,4.7115 -7.39781,3.69512 -2.8209,-1.01638 -4.14809,-2.49462 -6.64818,-6.14399 -2.50008,-3.64936 -7.16938,-7.43741 -8.36149,-11.47166 z"
       id="path48" /><path
       style="fill:#f85e5e;fill-opacity:1;stroke:#211f7c;stroke-width:2.15029;stroke-linejoin:round;stroke-dasharray:none"
       d="m 152.96373,142.36037 c 2.8483,1.35453 3.82807,3.7773 4.4279,5.1495 0.59982,1.37219 1.12362,3.5104 0.46076,9.01881 -0.66289,5.50838 0.37673,7.5238 -4.62394,11.07353 -5.00065,3.54972 -7.53499,6.83813 -11.09664,6.62195 -3.56169,-0.21617 -6.72718,0.2596 -9.47104,-3.70877 -2.74386,-3.96838 -5.24759,-6.84326 -3.60698,-10.49417 1.64064,-3.65088 3.6561,-5.22398 8.52804,-8.06226 4.87194,-2.83824 10.20604,-8.57692 15.3819,-9.59859 z"
       id="path49" /><rect
       style="fill:#f8f8f8;fill-opacity:1;stroke:#211f7c;stroke-width:2.15029;stroke-linejoin:round;stroke-dasharray:none;stroke-opacity:1"
       id="rect49"
       width="34.661495"
       height="16.767708"
       x="133.10622"
       y="160.59254" /><text
       xml:space="preserve"
       style="font-size:11.4296px;writing-mode:lr-tb;direction:ltr;fill:#000000;fill-opacity:1;stroke:#211f7c;stroke-width:2.15029;stroke-linejoin:round;stroke-dasharray:none;stroke-opacity:0"
       x="135.66551"
       y="173.42601"
       id="text49"><tspan
         sodipodi:role="line"
         id="tspan49"
         style="fill:#000000;fill-opacity:1;stroke:#211f7c;stroke-width:2.15029;stroke-dasharray:none;stroke-opacity:0"
         x="135.66551"
         y="173.42601">￥980</tspan></text></g><rect
     style="fill:#e9feff;fill-opacity:1;stroke:#211f7c;stroke-width:0.997536;stroke-linejoin:round;stroke-dasharray:none"
     id="rect15"
     width="47.230373"
     height="4.7212481"
     x="128.6167"
     y="105.44836" /><g
     inkscape:label="Layer 1"
     id="g57"
     transform="matrix(0.21082295,0,0,0.25646574,138.50622,88.041845)"
     style="stroke-width:2.15029;stroke-dasharray:none"><rect
       style="fill:#f8f8f8;fill-opacity:1;stroke:#211f7c;stroke-width:2.15029;stroke-linejoin:round;stroke-dasharray:none"
       id="rect54"
       width="137.43956"
       height="81.360046"
       x="36.337051"
       y="103.11594"
       ry="2.8476019" /><path
       style="fill:#f8cfcf;fill-opacity:1;stroke:#211f7c;stroke-width:2.15029;stroke-linejoin:round;stroke-dasharray:none"
       d="m 60.875776,125.62547 c 22.874534,-18.07826 29.515527,-16.60249 47.409314,-14.38882 17.89379,2.21366 29.14658,-1.47578 43.35093,17.89379 14.20435,19.36956 28.03975,34.86521 -1.66025,46.30248 -29.7,11.43727 -42.42857,-0.7379 -73.050925,-4.79626 -30.622361,-4.05839 -35.972051,-10.51492 -34.127331,-21.2143 1.844723,-10.69938 18.078262,-23.79689 18.078262,-23.79689 z"
       id="path54" /><path
       style="fill:#f85e5e;fill-opacity:1;stroke:#211f7c;stroke-width:2.15029;stroke-linejoin:round;stroke-dasharray:none"
       d="m 49.259462,163.15509 c -2.79016,-7.3604 -0.767415,-13.21078 0.301664,-16.60413 1.069078,-3.39334 3.435275,-7.95062 12.960695,-16.11387 9.525422,-8.16324 10.825338,-13.42907 24.758815,-10.55952 13.933474,2.86953 23.265014,1.79797 29.006104,8.49598 5.74107,6.69802 11.86155,11.51836 10.48978,23.12582 -1.37177,11.60748 -1.48614,20.93369 -9.84696,24.20874 -8.36079,3.27501 -14.1936,2.35998 -26.823343,-1.48731 -12.629732,-3.84728 -30.467797,-3.5974 -40.846755,-11.06571 z"
       id="path55" /><path
       style="fill:#f85e5e;fill-opacity:1;stroke:#211f7c;stroke-width:2.15029;stroke-linejoin:round;stroke-dasharray:none"
       d="m 123.57683,128.41353 c 0.75142,-2.37122 2.44678,-3.3412 3.40316,-3.92628 0.95637,-0.58507 2.48172,-1.17011 6.58309,-1.07755 4.10136,0.0926 5.49249,-0.89283 8.52599,2.80277 3.03349,3.69558 5.66452,5.45105 5.80989,8.29962 0.14537,2.84859 0.76501,5.32764 -1.91465,7.82197 -2.67967,2.49431 -4.5769,4.7115 -7.39781,3.69512 -2.8209,-1.01638 -4.14809,-2.49462 -6.64818,-6.14399 -2.50008,-3.64936 -7.16938,-7.43741 -8.36149,-11.47166 z"
       id="path56" /><path
       style="fill:#f85e5e;fill-opacity:1;stroke:#211f7c;stroke-width:2.15029;stroke-linejoin:round;stroke-dasharray:none"
       d="m 152.96373,142.36037 c 2.8483,1.35453 3.82807,3.7773 4.4279,5.1495 0.59982,1.37219 1.12362,3.5104 0.46076,9.01881 -0.66289,5.50838 0.37673,7.5238 -4.62394,11.07353 -5.00065,3.54972 -7.53499,6.83813 -11.09664,6.62195 -3.56169,-0.21617 -6.72718,0.2596 -9.47104,-3.70877 -2.74386,-3.96838 -5.24759,-6.84326 -3.60698,-10.49417 1.64064,-3.65088 3.6561,-5.22398 8.52804,-8.06226 4.87194,-2.83824 10.20604,-8.57692 15.3819,-9.59859 z"
       id="path57" /><rect
       style="fill:#f8f8f8;fill-opacity:1;stroke:#211f7c;stroke-width:2.15029;stroke-linejoin:round;stroke-dasharray:none;stroke-opacity:1"
       id="rect57"
       width="34.661495"
       height="16.767708"
       x="133.10622"
       y="160.59254" /><text
       xml:space="preserve"
       style="font-size:11.4296px;writing-mode:lr-tb;direction:ltr;fill:#000000;fill-opacity:1;stroke:#211f7c;stroke-width:2.15029;stroke-linejoin:round;stroke-dasharray:none;stroke-opacity:0"
       x="135.66551"
       y="173.42601"
       id="text57"><tspan
         sodipodi:role="line"
         id="tspan57"
         style="fill:#000000;fill-opacity:1;stroke:#211f7c;stroke-width:2.15029;stroke-dasharray:none;stroke-opacity:0"
         x="135.66551"
         y="173.42601">￥980</tspan></text></g><g
     inkscape:label="Layer 1"
     id="g61"
     transform="matrix(0.20901236,-0.02757085,0.03353988,0.25426315,117.46927,91.255072)"
     style="stroke-width:2.15029;stroke-dasharray:none"><rect
       style="fill:#f8f8f8;fill-opacity:1;stroke:#211f7c;stroke-width:2.15029;stroke-linejoin:round;stroke-dasharray:none"
       id="rect58"
       width="137.43956"
       height="81.360046"
       x="36.337051"
       y="103.11594"
       ry="2.8476019" /><path
       style="fill:#f8cfcf;fill-opacity:1;stroke:#211f7c;stroke-width:2.15029;stroke-linejoin:round;stroke-dasharray:none"
       d="m 60.875776,125.62547 c 22.874534,-18.07826 29.515527,-16.60249 47.409314,-14.38882 17.89379,2.21366 29.14658,-1.47578 43.35093,17.89379 14.20435,19.36956 28.03975,34.86521 -1.66025,46.30248 -29.7,11.43727 -42.42857,-0.7379 -73.050925,-4.79626 -30.622361,-4.05839 -35.972051,-10.51492 -34.127331,-21.2143 1.844723,-10.69938 18.078262,-23.79689 18.078262,-23.79689 z"
       id="path58" /><path
       style="fill:#f85e5e;fill-opacity:1;stroke:#211f7c;stroke-width:2.15029;stroke-linejoin:round;stroke-dasharray:none"
       d="m 49.259462,163.15509 c -2.79016,-7.3604 -0.767415,-13.21078 0.301664,-16.60413 1.069078,-3.39334 3.435275,-7.95062 12.960695,-16.11387 9.525422,-8.16324 10.825338,-13.42907 24.758815,-10.55952 13.933474,2.86953 23.265014,1.79797 29.006104,8.49598 5.74107,6.69802 11.86155,11.51836 10.48978,23.12582 -1.37177,11.60748 -1.48614,20.93369 -9.84696,24.20874 -8.36079,3.27501 -14.1936,2.35998 -26.823343,-1.48731 -12.629732,-3.84728 -30.467797,-3.5974 -40.846755,-11.06571 z"
       id="path59" /><path
       style="fill:#f85e5e;fill-opacity:1;stroke:#211f7c;stroke-width:2.15029;stroke-linejoin:round;stroke-dasharray:none"
       d="m 123.57683,128.41353 c 0.75142,-2.37122 2.44678,-3.3412 3.40316,-3.92628 0.95637,-0.58507 2.48172,-1.17011 6.58309,-1.07755 4.10136,0.0926 5.49249,-0.89283 8.52599,2.80277 3.03349,3.69558 5.66452,5.45105 5.80989,8.29962 0.14537,2.84859 0.76501,5.32764 -1.91465,7.82197 -2.67967,2.49431 -4.5769,4.7115 -7.39781,3.69512 -2.8209,-1.01638 -4.14809,-2.49462 -6.64818,-6.14399 -2.50008,-3.64936 -7.16938,-7.43741 -8.36149,-11.47166 z"
       id="path60" /><path
       style="fill:#f85e5e;fill-opacity:1;stroke:#211f7c;stroke-width:2.15029;stroke-linejoin:round;stroke-dasharray:none"
       d="m 152.96373,142.36037 c 2.8483,1.35453 3.82807,3.7773 4.4279,5.1495 0.59982,1.37219 1.12362,3.5104 0.46076,9.01881 -0.66289,5.50838 0.37673,7.5238 -4.62394,11.07353 -5.00065,3.54972 -7.53499,6.83813 -11.09664,6.62195 -3.56169,-0.21617 -6.72718,0.2596 -9.47104,-3.70877 -2.74386,-3.96838 -5.24759,-6.84326 -3.60698,-10.49417 1.64064,-3.65088 3.6561,-5.22398 8.52804,-8.06226 4.87194,-2.83824 10.20604,-8.57692 15.3819,-9.59859 z"
       id="path61" /><rect
       style="fill:#f8f8f8;fill-opacity:1;stroke:#211f7c;stroke-width:2.15029;stroke-linejoin:round;stroke-dasharray:none;stroke-opacity:1"
       id="rect61"
       width="34.661495"
       height="16.767708"
       x="133.10622"
       y="160.59254" /><text
       xml:space="preserve"
       style="font-size:11.4296px;writing-mode:lr-tb;direction:ltr;fill:#000000;fill-opacity:1;stroke:#211f7c;stroke-width:2.15029;stroke-linejoin:round;stroke-dasharray:none;stroke-opacity:0"
       x="135.66551"
       y="173.42601"
       id="text61"><tspan
         sodipodi:role="line"
         id="tspan61"
         style="fill:#000000;fill-opacity:1;stroke:#211f7c;stroke-width:2.15029;stroke-dasharray:none;stroke-opacity:0"
         x="135.66551"
         y="173.42601">￥980</tspan></text></g><rect
     style="fill:#e9feff;fill-opacity:1;stroke:#211f7c;stroke-width:0.997536;stroke-linejoin:round;stroke-dasharray:none"
     id="rect16"
     width="47.230373"
     height="4.7212481"
     x="128.6167"
     y="135.61076" /><g
     inkscape:label="Layer 1"
     id="g21"
     transform="matrix(0.21082295,0,0,0.25646574,84.001801,27.187639)"
     style="stroke-width:2.15029;stroke-dasharray:none"><rect
       style="fill:#f8f8f8;fill-opacity:1;stroke:#211f7c;stroke-width:2.15029;stroke-linejoin:round;stroke-dasharray:none"
       id="rect18"
       width="137.43956"
       height="81.360046"
       x="36.337051"
       y="103.11594"
       ry="2.8476019" /><path
       style="fill:#f8cfcf;fill-opacity:1;stroke:#211f7c;stroke-width:2.15029;stroke-linejoin:round;stroke-dasharray:none"
       d="m 60.875776,125.62547 c 22.874534,-18.07826 29.515527,-16.60249 47.409314,-14.38882 17.89379,2.21366 29.14658,-1.47578 43.35093,17.89379 14.20435,19.36956 28.03975,34.86521 -1.66025,46.30248 -29.7,11.43727 -42.42857,-0.7379 -73.050925,-4.79626 -30.622361,-4.05839 -35.972051,-10.51492 -34.127331,-21.2143 1.844723,-10.69938 18.078262,-23.79689 18.078262,-23.79689 z"
       id="path18" /><path
       style="fill:#f85e5e;fill-opacity:1;stroke:#211f7c;stroke-width:2.15029;stroke-linejoin:round;stroke-dasharray:none"
       d="m 49.259462,163.15509 c -2.79016,-7.3604 -0.767415,-13.21078 0.301664,-16.60413 1.069078,-3.39334 3.435275,-7.95062 12.960695,-16.11387 9.525422,-8.16324 10.825338,-13.42907 24.758815,-10.55952 13.933474,2.86953 23.265014,1.79797 29.006104,8.49598 5.74107,6.69802 11.86155,11.51836 10.48978,23.12582 -1.37177,11.60748 -1.48614,20.93369 -9.84696,24.20874 -8.36079,3.27501 -14.1936,2.35998 -26.823343,-1.48731 -12.629732,-3.84728 -30.467797,-3.5974 -40.846755,-11.06571 z"
       id="path19" /><path
       style="fill:#f85e5e;fill-opacity:1;stroke:#211f7c;stroke-width:2.15029;stroke-linejoin:round;stroke-dasharray:none"
       d="m 123.57683,128.41353 c 0.75142,-2.37122 2.44678,-3.3412 3.40316,-3.92628 0.95637,-0.58507 2.48172,-1.17011 6.58309,-1.07755 4.10136,0.0926 5.49249,-0.89283 8.52599,2.80277 3.03349,3.69558 5.66452,5.45105 5.80989,8.29962 0.14537,2.84859 0.76501,5.32764 -1.91465,7.82197 -2.67967,2.49431 -4.5769,4.7115 -7.39781,3.69512 -2.8209,-1.01638 -4.14809,-2.49462 -6.64818,-6.14399 -2.50008,-3.64936 -7.16938,-7.43741 -8.36149,-11.47166 z"
       id="path20" /><path
       style="fill:#f85e5e;fill-opacity:1;stroke:#211f7c;stroke-width:2.15029;stroke-linejoin:round;stroke-dasharray:none"
       d="m 152.96373,142.36037 c 2.8483,1.35453 3.82807,3.7773 4.4279,5.1495 0.59982,1.37219 1.12362,3.5104 0.46076,9.01881 -0.66289,5.50838 0.37673,7.5238 -4.62394,11.07353 -5.00065,3.54972 -7.53499,6.83813 -11.09664,6.62195 -3.56169,-0.21617 -6.72718,0.2596 -9.47104,-3.70877 -2.74386,-3.96838 -5.24759,-6.84326 -3.60698,-10.49417 1.64064,-3.65088 3.6561,-5.22398 8.52804,-8.06226 4.87194,-2.83824 10.20604,-8.57692 15.3819,-9.59859 z"
       id="path21" /><rect
       style="fill:#f8f8f8;fill-opacity:1;stroke:#211f7c;stroke-width:2.15029;stroke-linejoin:round;stroke-dasharray:none;stroke-opacity:1"
       id="rect21"
       width="34.661495"
       height="16.767708"
       x="133.10622"
       y="160.59254" /><text
       xml:space="preserve"
       style="font-size:11.4296px;writing-mode:lr-tb;direction:ltr;fill:#000000;fill-opacity:1;stroke:#211f7c;stroke-width:2.15029;stroke-linejoin:round;stroke-dasharray:none;stroke-opacity:0"
       x="135.66551"
       y="173.42601"
       id="text21"><tspan
         sodipodi:role="line"
         id="tspan21"
         style="fill:#000000;fill-opacity:1;stroke:#211f7c;stroke-width:2.15029;stroke-dasharray:none;stroke-opacity:0"
         x="135.66551"
         y="173.42601">￥980</tspan></text></g><g
     inkscape:label="Layer 1"
     id="g25"
     transform="matrix(0.21082295,0,0,0.25646574,75.535129,27.187639)"
     style="stroke-width:2.15029;stroke-dasharray:none"><rect
       style="fill:#f8f8f8;fill-opacity:1;stroke:#211f7c;stroke-width:2.15029;stroke-linejoin:round;stroke-dasharray:none"
       id="rect19"
       width="137.43956"
       height="81.360046"
       x="36.337051"
       y="103.11594"
       ry="2.8476019" /><path
       style="fill:#f8cfcf;fill-opacity:1;stroke:#211f7c;stroke-width:2.15029;stroke-linejoin:round;stroke-dasharray:none"
       d="m 60.875776,125.62547 c 22.874534,-18.07826 29.515527,-16.60249 47.409314,-14.38882 17.89379,2.21366 29.14658,-1.47578 43.35093,17.89379 14.20435,19.36956 28.03975,34.86521 -1.66025,46.30248 -29.7,11.43727 -42.42857,-0.7379 -73.050925,-4.79626 -30.622361,-4.05839 -35.972051,-10.51492 -34.127331,-21.2143 1.844723,-10.69938 18.078262,-23.79689 18.078262,-23.79689 z"
       id="path22" /><path
       style="fill:#f85e5e;fill-opacity:1;stroke:#211f7c;stroke-width:2.15029;stroke-linejoin:round;stroke-dasharray:none"
       d="m 49.259462,163.15509 c -2.79016,-7.3604 -0.767415,-13.21078 0.301664,-16.60413 1.069078,-3.39334 3.435275,-7.95062 12.960695,-16.11387 9.525422,-8.16324 10.825338,-13.42907 24.758815,-10.55952 13.933474,2.86953 23.265014,1.79797 29.006104,8.49598 5.74107,6.69802 11.86155,11.51836 10.48978,23.12582 -1.37177,11.60748 -1.48614,20.93369 -9.84696,24.20874 -8.36079,3.27501 -14.1936,2.35998 -26.823343,-1.48731 -12.629732,-3.84728 -30.467797,-3.5974 -40.846755,-11.06571 z"
       id="path23" /><path
       style="fill:#f85e5e;fill-opacity:1;stroke:#211f7c;stroke-width:2.15029;stroke-linejoin:round;stroke-dasharray:none"
       d="m 123.57683,128.41353 c 0.75142,-2.37122 2.44678,-3.3412 3.40316,-3.92628 0.95637,-0.58507 2.48172,-1.17011 6.58309,-1.07755 4.10136,0.0926 5.49249,-0.89283 8.52599,2.80277 3.03349,3.69558 5.66452,5.45105 5.80989,8.29962 0.14537,2.84859 0.76501,5.32764 -1.91465,7.82197 -2.67967,2.49431 -4.5769,4.7115 -7.39781,3.69512 -2.8209,-1.01638 -4.14809,-2.49462 -6.64818,-6.14399 -2.50008,-3.64936 -7.16938,-7.43741 -8.36149,-11.47166 z"
       id="path24" /><path
       style="fill:#f85e5e;fill-opacity:1;stroke:#211f7c;stroke-width:2.15029;stroke-linejoin:round;stroke-dasharray:none"
       d="m 152.96373,142.36037 c 2.8483,1.35453 3.82807,3.7773 4.4279,5.1495 0.59982,1.37219 1.12362,3.5104 0.46076,9.01881 -0.66289,5.50838 0.37673,7.5238 -4.62394,11.07353 -5.00065,3.54972 -7.53499,6.83813 -11.09664,6.62195 -3.56169,-0.21617 -6.72718,0.2596 -9.47104,-3.70877 -2.74386,-3.96838 -5.24759,-6.84326 -3.60698,-10.49417 1.64064,-3.65088 3.6561,-5.22398 8.52804,-8.06226 4.87194,-2.83824 10.20604,-8.57692 15.3819,-9.59859 z"
       id="path25" /><rect
       style="fill:#f8f8f8;fill-opacity:1;stroke:#211f7c;stroke-width:2.15029;stroke-linejoin:round;stroke-dasharray:none;stroke-opacity:1"
       id="rect25"
       width="34.661495"
       height="16.767708"
       x="133.10622"
       y="160.59254" /><text
       xml:space="preserve"
       style="font-size:11.4296px;writing-mode:lr-tb;direction:ltr;fill:#000000;fill-opacity:1;stroke:#211f7c;stroke-width:2.15029;stroke-linejoin:round;stroke-dasharray:none;stroke-opacity:0"
       x="135.66551"
       y="173.42601"
       id="text25"><tspan
         sodipodi:role="line"
         id="tspan25"
         style="fill:#000000;fill-opacity:1;stroke:#211f7c;stroke-width:2.15029;stroke-dasharray:none;stroke-opacity:0"
         x="135.66551"
         y="173.42601">￥980</tspan></text></g><g
     inkscape:label="Layer 1"
     id="layer1-5"
     transform="matrix(0.21082295,0,0,0.25646574,67.597623,27.187639)"
     style="stroke-width:2.15029;stroke-dasharray:none"><rect
       style="fill:#f8f8f8;fill-opacity:1;stroke:#211f7c;stroke-width:2.15029;stroke-linejoin:round;stroke-dasharray:none"
       id="rect1-7"
       width="137.43956"
       height="81.360046"
       x="36.337051"
       y="103.11594"
       ry="2.8476019" /><path
       style="fill:#f8cfcf;fill-opacity:1;stroke:#211f7c;stroke-width:2.15029;stroke-linejoin:round;stroke-dasharray:none"
       d="m 60.875776,125.62547 c 22.874534,-18.07826 29.515527,-16.60249 47.409314,-14.38882 17.89379,2.21366 29.14658,-1.47578 43.35093,17.89379 14.20435,19.36956 28.03975,34.86521 -1.66025,46.30248 -29.7,11.43727 -42.42857,-0.7379 -73.050925,-4.79626 -30.622361,-4.05839 -35.972051,-10.51492 -34.127331,-21.2143 1.844723,-10.69938 18.078262,-23.79689 18.078262,-23.79689 z"
       id="path1" /><path
       style="fill:#f85e5e;fill-opacity:1;stroke:#211f7c;stroke-width:2.15029;stroke-linejoin:round;stroke-dasharray:none"
       d="m 49.259462,163.15509 c -2.79016,-7.3604 -0.767415,-13.21078 0.301664,-16.60413 1.069078,-3.39334 3.435275,-7.95062 12.960695,-16.11387 9.525422,-8.16324 10.825338,-13.42907 24.758815,-10.55952 13.933474,2.86953 23.265014,1.79797 29.006104,8.49598 5.74107,6.69802 11.86155,11.51836 10.48978,23.12582 -1.37177,11.60748 -1.48614,20.93369 -9.84696,24.20874 -8.36079,3.27501 -14.1936,2.35998 -26.823343,-1.48731 -12.629732,-3.84728 -30.467797,-3.5974 -40.846755,-11.06571 z"
       id="path2" /><path
       style="fill:#f85e5e;fill-opacity:1;stroke:#211f7c;stroke-width:2.15029;stroke-linejoin:round;stroke-dasharray:none"
       d="m 123.57683,128.41353 c 0.75142,-2.37122 2.44678,-3.3412 3.40316,-3.92628 0.95637,-0.58507 2.48172,-1.17011 6.58309,-1.07755 4.10136,0.0926 5.49249,-0.89283 8.52599,2.80277 3.03349,3.69558 5.66452,5.45105 5.80989,8.29962 0.14537,2.84859 0.76501,5.32764 -1.91465,7.82197 -2.67967,2.49431 -4.5769,4.7115 -7.39781,3.69512 -2.8209,-1.01638 -4.14809,-2.49462 -6.64818,-6.14399 -2.50008,-3.64936 -7.16938,-7.43741 -8.36149,-11.47166 z"
       id="path2-1" /><path
       style="fill:#f85e5e;fill-opacity:1;stroke:#211f7c;stroke-width:2.15029;stroke-linejoin:round;stroke-dasharray:none"
       d="m 152.96373,142.36037 c 2.8483,1.35453 3.82807,3.7773 4.4279,5.1495 0.59982,1.37219 1.12362,3.5104 0.46076,9.01881 -0.66289,5.50838 0.37673,7.5238 -4.62394,11.07353 -5.00065,3.54972 -7.53499,6.83813 -11.09664,6.62195 -3.56169,-0.21617 -6.72718,0.2596 -9.47104,-3.70877 -2.74386,-3.96838 -5.24759,-6.84326 -3.60698,-10.49417 1.64064,-3.65088 3.6561,-5.22398 8.52804,-8.06226 4.87194,-2.83824 10.20604,-8.57692 15.3819,-9.59859 z"
       id="path2-1-1" /><rect
       style="fill:#f8f8f8;fill-opacity:1;stroke:#211f7c;stroke-width:2.15029;stroke-linejoin:round;stroke-dasharray:none;stroke-opacity:1"
       id="rect5-6"
       width="34.661495"
       height="16.767708"
       x="133.10622"
       y="160.59254" /><text
       xml:space="preserve"
       style="font-size:11.4296px;writing-mode:lr-tb;direction:ltr;fill:#000000;fill-opacity:1;stroke:#211f7c;stroke-width:2.15029;stroke-linejoin:round;stroke-dasharray:none;stroke-opacity:0"
       x="135.66551"
       y="173.42601"
       id="text5"><tspan
         sodipodi:role="line"
         id="tspan5"
         style="fill:#000000;fill-opacity:1;stroke:#211f7c;stroke-width:2.15029;stroke-dasharray:none;stroke-opacity:0"
         x="135.66551"
         y="173.42601">￥980</tspan></text></g><g
     inkscape:label="Layer 1"
     id="g33"
     transform="matrix(0.21082295,0,0,0.25646574,84.001801,88.041844)"
     style="stroke-width:2.15029;stroke-dasharray:none"><rect
       style="fill:#f8f8f8;fill-opacity:1;stroke:#211f7c;stroke-width:2.15029;stroke-linejoin:round;stroke-dasharray:none"
       id="rect30"
       width="137.43956"
       height="81.360046"
       x="36.337051"
       y="103.11594"
       ry="2.8476019" /><path
       style="fill:#f8cfcf;fill-opacity:1;stroke:#211f7c;stroke-width:2.15029;stroke-linejoin:round;stroke-dasharray:none"
       d="m 60.875776,125.62547 c 22.874534,-18.07826 29.515527,-16.60249 47.409314,-14.38882 17.89379,2.21366 29.14658,-1.47578 43.35093,17.89379 14.20435,19.36956 28.03975,34.86521 -1.66025,46.30248 -29.7,11.43727 -42.42857,-0.7379 -73.050925,-4.79626 -30.622361,-4.05839 -35.972051,-10.51492 -34.127331,-21.2143 1.844723,-10.69938 18.078262,-23.79689 18.078262,-23.79689 z"
       id="path30" /><path
       style="fill:#f85e5e;fill-opacity:1;stroke:#211f7c;stroke-width:2.15029;stroke-linejoin:round;stroke-dasharray:none"
       d="m 49.259462,163.15509 c -2.79016,-7.3604 -0.767415,-13.21078 0.301664,-16.60413 1.069078,-3.39334 3.435275,-7.95062 12.960695,-16.11387 9.525422,-8.16324 10.825338,-13.42907 24.758815,-10.55952 13.933474,2.86953 23.265014,1.79797 29.006104,8.49598 5.74107,6.69802 11.86155,11.51836 10.48978,23.12582 -1.37177,11.60748 -1.48614,20.93369 -9.84696,24.20874 -8.36079,3.27501 -14.1936,2.35998 -26.823343,-1.48731 -12.629732,-3.84728 -30.467797,-3.5974 -40.846755,-11.06571 z"
       id="path31" /><path
       style="fill:#f85e5e;fill-opacity:1;stroke:#211f7c;stroke-width:2.15029;stroke-linejoin:round;stroke-dasharray:none"
       d="m 123.57683,128.41353 c 0.75142,-2.37122 2.44678,-3.3412 3.40316,-3.92628 0.95637,-0.58507 2.48172,-1.17011 6.58309,-1.07755 4.10136,0.0926 5.49249,-0.89283 8.52599,2.80277 3.03349,3.69558 5.66452,5.45105 5.80989,8.29962 0.14537,2.84859 0.76501,5.32764 -1.91465,7.82197 -2.67967,2.49431 -4.5769,4.7115 -7.39781,3.69512 -2.8209,-1.01638 -4.14809,-2.49462 -6.64818,-6.14399 -2.50008,-3.64936 -7.16938,-7.43741 -8.36149,-11.47166 z"
       id="path32" /><path
       style="fill:#f85e5e;fill-opacity:1;stroke:#211f7c;stroke-width:2.15029;stroke-linejoin:round;stroke-dasharray:none"
       d="m 152.96373,142.36037 c 2.8483,1.35453 3.82807,3.7773 4.4279,5.1495 0.59982,1.37219 1.12362,3.5104 0.46076,9.01881 -0.66289,5.50838 0.37673,7.5238 -4.62394,11.07353 -5.00065,3.54972 -7.53499,6.83813 -11.09664,6.62195 -3.56169,-0.21617 -6.72718,0.2596 -9.47104,-3.70877 -2.74386,-3.96838 -5.24759,-6.84326 -3.60698,-10.49417 1.64064,-3.65088 3.6561,-5.22398 8.52804,-8.06226 4.87194,-2.83824 10.20604,-8.57692 15.3819,-9.59859 z"
       id="path33" /><rect
       style="fill:#f8f8f8;fill-opacity:1;stroke:#211f7c;stroke-width:2.15029;stroke-linejoin:round;stroke-dasharray:none;stroke-opacity:1"
       id="rect33"
       width="34.661495"
       height="16.767708"
       x="133.10622"
       y="160.59254" /><text
       xml:space="preserve"
       style="font-size:11.4296px;writing-mode:lr-tb;direction:ltr;fill:#000000;fill-opacity:1;stroke:#211f7c;stroke-width:2.15029;stroke-linejoin:round;stroke-dasharray:none;stroke-opacity:0"
       x="135.66551"
       y="173.42601"
       id="text33"><tspan
         sodipodi:role="line"
         id="tspan33"
         style="fill:#000000;fill-opacity:1;stroke:#211f7c;stroke-width:2.15029;stroke-dasharray:none;stroke-opacity:0"
         x="135.66551"
         y="173.42601">￥980</tspan></text></g><ellipse
     style="fill:#f3f3f3;fill-opacity:1;stroke:#211f7c;stroke-width:0.5;stroke-linejoin:round;stroke-dasharray:none"
     id="path1-7"
     cx="136.32011"
     cy="67.84845"
     rx="4.3877106"
     ry="6.3127542" /><ellipse
     style="fill:#f3f3f3;fill-opacity:1;stroke:#211f7c;stroke-width:0.5;stroke-linejoin:round;stroke-dasharray:none"
     id="ellipse1"
     cx="147.43246"
     cy="67.84845"
     rx="4.3877106"
     ry="6.3127542" /><ellipse
     style="fill:#f3f3f3;fill-opacity:1;stroke:#211f7c;stroke-width:0.5;stroke-linejoin:round;stroke-dasharray:none"
     id="ellipse2"
     cx="154.03615"
     cy="-85.132248"
     rx="4.3877106"
     ry="6.3127542"
     transform="rotate(52.165158)" /><ellipse
     style="fill:#f3f3f3;fill-opacity:1;stroke:#211f7c;stroke-width:0.5;stroke-linejoin:round;stroke-dasharray:none"
     id="ellipse3"
     cx="145.84499"
     cy="99.069313"
     rx="4.3877106"
     ry="6.3127542" /><ellipse
     style="fill:#f3f3f3;fill-opacity:1;stroke:#211f7c;stroke-width:0.5;stroke-linejoin:round;stroke-dasharray:none"
     id="ellipse4"
     cx="135.2618"
     cy="99.069313"
     rx="4.3877106"
     ry="6.3127542" /><ellipse
     style="fill:#f3f3f3;fill-opacity:1;stroke:#211f7c;stroke-width:0.5;stroke-linejoin:round;stroke-dasharray:none"
     id="ellipse5"
     cx="-33.567486"
     cy="206.61823"
     rx="4.3877106"
     ry="6.3127542"
     transform="rotate(-60.734436)" /><ellipse
     style="fill:#f3f3f3;fill-opacity:1;stroke:#211f7c;stroke-width:0.5;stroke-linejoin:round;stroke-dasharray:none"
     id="ellipse6"
     cx="81.816055"
     cy="99.069313"
     rx="4.3877106"
     ry="6.3127542" /><ellipse
     style="fill:#f3f3f3;fill-opacity:1;stroke:#211f7c;stroke-width:0.5;stroke-linejoin:round;stroke-dasharray:none"
     id="ellipse7"
     cx="92.928566"
     cy="99.069313"
     rx="4.3877106"
     ry="6.3127542" /><ellipse
     style="fill:#f3f3f3;fill-opacity:1;stroke:#211f7c;stroke-width:0.5;stroke-linejoin:round;stroke-dasharray:none"
     id="ellipse8"
     cx="103.51192"
     cy="99.069313"
     rx="4.3877106"
     ry="6.3127542" /><ellipse
     style="fill:#f3f3f3;fill-opacity:1;stroke:#211f7c;stroke-width:0.5;stroke-linejoin:round;stroke-dasharray:none"
     id="ellipse9"
     cx="114.6244"
     cy="99.069313"
     rx="4.3877106"
     ry="6.3127542" /><ellipse
     style="fill:#f3f3f3;fill-opacity:1;stroke:#211f7c;stroke-width:0.5;stroke-linejoin:round;stroke-dasharray:none"
     id="ellipse10"
     cx="109.27471"
     cy="88.554405"
     rx="4.3877106"
     ry="6.3127542" /><ellipse
     style="fill:#f3f3f3;fill-opacity:1;stroke:#211f7c;stroke-width:0.5;stroke-linejoin:round;stroke-dasharray:none"
     id="ellipse11"
     cx="98.162209"
     cy="88.554405"
     rx="4.3877106"
     ry="6.3127542" /><ellipse
     style="fill:#f3f3f3;fill-opacity:1;stroke:#211f7c;stroke-width:0.5;stroke-linejoin:round;stroke-dasharray:none"
     id="ellipse12"
     cx="0.78285426"
     cy="123.81351"
     rx="4.3877106"
     ry="6.3127542"
     transform="rotate(-43.625869)" /><ellipse
     style="fill:#f3f3f3;fill-opacity:1;stroke:#211f7c;stroke-width:0.5;stroke-linejoin:round;stroke-dasharray:none"
     id="ellipse13"
     cx="-7.2005248"
     cy="167.94493"
     rx="4.3877106"
     ry="6.3127542"
     transform="rotate(-41.914456)" /><ellipse
     style="fill:#f3f3f3;fill-opacity:1;stroke:#211f7c;stroke-width:0.5;stroke-linejoin:round;stroke-dasharray:none"
     id="ellipse14"
     cx="96.103569"
     cy="129.76089"
     rx="4.3877106"
     ry="6.3127542" /><ellipse
     style="fill:#f3f3f3;fill-opacity:1;stroke:#211f7c;stroke-width:0.5;stroke-linejoin:round;stroke-dasharray:none"
     id="ellipse25"
     cx="242.58569"
     cy="68.966316"
     rx="4.3877106"
     ry="6.3127542"
     transform="rotate(29.408948)" /><g
     id="g26"
     transform="matrix(0.63216031,0,0,0.63216031,-106.54486,90.147505)"
     style="stroke-width:0.79093862;stroke-dasharray:none"><g
       inkscape:label="Layer 1"
       id="layer1-8"
       style="stroke-width:0.79093862;stroke-dasharray:none" /><g
       id="g27"
       transform="matrix(0.38748922,0,0,0.38748922,382.13911,156.0482)"
       style="stroke-width:2.04118869;stroke-dasharray:none"><path
         style="fill:#f7f7f7;fill-opacity:1;stroke:#211f7c;stroke-width:2.04118869;stroke-linejoin:round;stroke-dasharray:none;stroke-opacity:1"
         d="m 69.177018,190.92856 c 24.165837,-10.88385 29.146582,-11.80621 34.865212,-11.80621 5.71864,0 15.12671,3.3205 21.95218,8.11677 6.82546,4.79628 11.80621,11.43727 12.72857,16.60249 0.92236,5.16521 0,9.77701 -3.68944,15.31118 -3.68944,5.53416 -10.33043,10.69937 -21.7677,12.72857 -11.43727,2.02919 -25.088202,0.55342 -33.0205,-2.0292 -7.932298,-2.5826 -16.233539,-3.87391 -17.893789,-8.67018 -1.660247,-4.79627 -5.53416,-10.51491 -2.951551,-17.34037 2.582608,-6.82547 9.777018,-12.91305 9.777018,-12.91305 z"
         id="path3" /><ellipse
         style="fill:#ffda0d;fill-opacity:1;stroke:#211f7c;stroke-width:2.04118869;stroke-linejoin:round;stroke-dasharray:none;stroke-opacity:1"
         id="path1-4"
         cx="87.249268"
         cy="206.84154"
         rx="14.028345"
         ry="11.805769" /></g></g><path
     id="ellipse27"
     style="fill:#f3f3f3;fill-opacity:1;stroke:#211f7c;stroke-width:0.5;stroke-linejoin:round;stroke-dasharray:none"
     d="m 146.94762,245.98739 c 0.16629,-0.77298 0.34902,-1.65861 0.16898,-1.83865 -0.0688,-0.0687 -1.95367,0.0539 -2.02727,0.003 l -5.2e-4,-5.2e-4 -5.1e-4,-5.1e-4 c -1.2e-4,-2.2e-4 -9.7e-4,-0.001 -0.001,-0.002 l -1e-5,-5.2e-4 c 1e-5,-0.0687 0.0753,-0.11778 0.092,-0.18448 0.076,-0.30419 0.13299,-0.61315 0.18449,-0.92243 0.0404,-0.24262 0,-0.49198 0,-0.73793 0,-0.12299 0.11667,-0.33008 -1e-5,-0.36898 -0.27457,-0.0915 -1.78124,-0.13284 -1.84381,-0.18397 l -5.2e-4,-5.1e-4 c -0.14206,-0.14206 0.11889,-0.39536 0.18449,-0.46096 0.19497,-0.19497 1.58408,-1.73612 1.47536,-1.84484 -0.0435,-0.0435 -0.12479,0.0149 -0.18449,-10e-6 -0.0943,-0.0236 -0.17986,-0.0813 -0.27646,-0.092 -0.62561,-0.0695 -0.79502,-0.0155 -1.38338,-0.27699 -0.38503,-0.17112 -0.60591,-0.23263 -1.01493,-0.36896 -0.0827,-0.0276 -0.16463,-0.0567 -0.24598,-0.0858 a 4.3877106,6.3127542 66.228335 0 0 -3.09955,6.09731 4.3877106,6.3127542 66.228335 0 0 7.54579,1.4707 4.3877106,6.3127542 66.228335 0 0 0.42737,-0.20153 z" /><path
     id="path27"
     style="fill:#f3f3f3;fill-opacity:1;stroke:#211f7c;stroke-width:0.5;stroke-linejoin:round;stroke-dasharray:none"
     d="m 178.15485,238.57045 a 6.3127542,4.3877106 15.901259 0 0 -2.87441,-1.43005 6.3127542,4.3877106 15.901259 0 0 -0.99525,-0.22392 c 0.044,0.0743 0.0885,0.14901 0.13456,0.22307 0.22779,0.36606 0.35853,0.55441 0.54565,0.93193 0.28592,0.57688 0.4508,0.64345 0.88795,1.09635 0.0675,0.0699 0.0965,0.16893 0.15406,0.24731 0.0364,0.0496 0.13631,0.0565 0.142,0.11779 0.0143,0.15309 -2.0388,0.4525 -2.31334,0.4781 -0.0924,0.009 -0.45493,0.037 -0.43628,0.23702 l 7e-5,7.2e-4 c 0.0156,0.0793 1.14886,1.07293 1.30174,1.3187 0.065,0.10443 -0.15704,0.18935 -0.23555,0.28401 -0.15702,0.18931 -0.28512,0.40703 -0.4711,0.56799 -0.23709,0.20517 -0.47815,0.40663 -0.73089,0.59221 -0.0554,0.0407 -0.14469,0.0303 -0.18858,0.0833 l -3.3e-4,4e-4 c -1e-4,2.2e-4 7e-5,0.001 -5e-4,0.002 l 6e-5,7.2e-4 7e-5,7.3e-4 c 0.0242,0.0861 1.55329,1.19504 1.56231,1.29191 0.0236,0.25351 -0.68264,0.81833 -1.30387,1.30733 a 6.3127542,4.3877106 15.901259 0 0 6.81558,-2.60773 6.3127542,4.3877106 15.901259 0 0 -1.99435,-4.51962 z" /></svg>
