<?xml version="1.0" encoding="UTF-8" standalone="no"?>
<!-- Created with Inkscape (http://www.inkscape.org/) -->

<svg
   width="210mm"
   height="297mm"
   viewBox="0 0 210 297"
   version="1.1"
   id="svg1"
   inkscape:version="1.4.3 (0d15f75, 2025-12-25)"
   sodipodi:docname="reizouko_niku.svg"
   xml:space="preserve"
   xmlns:inkscape="http://www.inkscape.org/namespaces/inkscape"
   xmlns:sodipodi="http://sodipodi.sourceforge.net/DTD/sodipodi-0.dtd"
   xmlns="http://www.w3.org/2000/svg"
   xmlns:svg="http://www.w3.org/2000/svg"><sodipodi:namedview
     id="namedview1"
     pagecolor="#ffffff"
     bordercolor="#000000"
     borderopacity="0.25"
     inkscape:showpageshadow="2"
     inkscape:pageopacity="0.0"
     inkscape:pagecheckerboard="0"
     inkscape:deskcolor="#d1d1d1"
     inkscape:document-units="mm"
     inkscape:zoom="0.71713667"
     inkscape:cx="-96.21597"
     inkscape:cy="386.95553"
     inkscape:window-width="1920"
     inkscape:window-height="1001"
     inkscape:window-x="-9"
     inkscape:window-y="-9"
     inkscape:window-maximized="1"
     inkscape:current-layer="svg1" /><defs
     id="defs1" /><g
     id="g6"
     transform="translate(-13.826792,-1.5652972)"><g
       inkscape:label="Layer 1"
       inkscape:groupmode="layer"
       id="layer1"><rect
         style="fill:#c5c5c5;fill-opacity:1;stroke:#211f7c;stroke-width:1;stroke-linejoin:round;stroke-dasharray:none"
         id="rect6"
         width="71.481911"
         height="74.090736"
         x="50.611275"
         y="133.83292" /><path
         id="rect2"
         style="fill:#e7e7e7;fill-opacity:1;stroke:#211f7c;stroke-width:1;stroke-linejoin:round;stroke-dasharray:none"
         d="m 34.571533,144.21032 v 46.09899 H 140.30771 V 144.21032 H 116.73964 A 31.305944,12.78326 0 0 1 85.83042,154.96418 31.305944,12.78326 0 0 1 54.921712,144.21032 Z" /><rect
         style="fill:#e7e7e7;fill-opacity:1;stroke:#211f7c;stroke-width:0.999324;stroke-linejoin:round;stroke-dasharray:none"
         id="rect3"
         width="105.76166"
         height="5.2183328"
         x="34.546463"
         y="144.007"
         ry="0" /><path
         id="rect4"
         style="fill:#e7e7e7;fill-opacity:1;stroke:#211f7c;stroke-width:1;stroke-linejoin:round;stroke-dasharray:none"
         d="m 34.548796,190.54599 v 46.09848 H 140.28498 V 190.54599 H 116.71639 A 31.305944,12.78326 0 0 1 85.807166,201.29986 31.305944,12.78326 0 0 1 54.898458,190.54599 Z" /><rect
         style="fill:#e7e7e7;fill-opacity:1;stroke:#211f7c;stroke-width:0.999324;stroke-linejoin:round;stroke-dasharray:none"
         id="rect5"
         width="105.76166"
         height="5.2183328"
         x="34.523403"
         y="190.34245"
         ry="0" /></g><rect
       style="fill:#e7e7e7;fill-opacity:1;stroke:#211f7c;stroke-width:1.112;stroke-linejoin:round"
       id="rect1"
       width="105.51801"
       height="95.187576"
       x="34.733768"
       y="49.069565" /></g><rect
     style="fill:#fbfbfb;fill-opacity:1;stroke:#211f7c;stroke-width:1.04676;stroke-linejoin:round;stroke-dasharray:none"
     id="rect7"
     width="97.420799"
     height="89.752556"
     x="26.339123"
     y="50.40625" /><rect
     style="fill:#e9feff;fill-opacity:1;stroke:#211f7c;stroke-width:1.01795;stroke-linejoin:round;stroke-dasharray:none"
     id="rect17"
     width="97.422592"
     height="4.677938"
     x="26.292927"
     y="135.46812" /><rect
     style="fill:#e9feff;fill-opacity:1;stroke:#211f7c;stroke-width:1.01838;stroke-linejoin:round;stroke-dasharray:none"
     id="rect8"
     width="97.514397"
     height="4.677506"
     x="26.293142"
     y="75.143456" /><rect
     style="fill:#e9feff;fill-opacity:1;stroke:#211f7c;stroke-width:1.01795;stroke-linejoin:round;stroke-dasharray:none"
     id="rect9"
     width="97.422592"
     height="4.677938"
     x="26.292927"
     y="105.30573" /><rect
     style="fill:#e7e7e7;fill-opacity:1;stroke:#211f7c;stroke-width:1.09409;stroke-linejoin:round;stroke-dasharray:none"
     id="rect10"
     width="52.24194"
     height="95.201546"
     x="20.946417"
     y="47.532772" /><rect
     style="fill:#e7e7e7;fill-opacity:1;stroke:#211f7c;stroke-width:1.09219;stroke-linejoin:round;stroke-dasharray:none"
     id="rect11"
     width="52.059368"
     height="95.203445"
     x="126.2497"
     y="47.531822" /><rect
     style="fill:#c5c5c5;fill-opacity:1;stroke:#211f7c;stroke-width:1;stroke-linejoin:round;stroke-dasharray:none"
     id="rect12"
     width="4.5654502"
     height="26.47961"
     x="64.698952"
     y="83.221642" /><rect
     style="fill:#fbfbfb;fill-opacity:1;stroke:#211f7c;stroke-width:1;stroke-linejoin:round;stroke-dasharray:none"
     id="rect13"
     width="47.192387"
     height="90.069481"
     x="128.65236"
     y="50.340023" /><rect
     style="fill:#e9feff;fill-opacity:1;stroke:#211f7c;stroke-width:0.996304;stroke-linejoin:round;stroke-dasharray:none"
     id="rect14"
     width="47.145912"
     height="4.722044"
     x="128.6814"
     y="75.022118" /><rect
     style="fill:#e9feff;fill-opacity:1;stroke:#211f7c;stroke-width:0.997536;stroke-linejoin:round;stroke-dasharray:none"
     id="rect15"
     width="47.230373"
     height="4.7212481"
     x="128.6167"
     y="105.44836" /><rect
     style="fill:#e9feff;fill-opacity:1;stroke:#211f7c;stroke-width:0.997536;stroke-linejoin:round;stroke-dasharray:none"
     id="rect16"
     width="47.230373"
     height="4.7212481"
     x="128.6167"
     y="135.61076" /><g
     inkscape:label="Layer 1"
     id="g21"
     transform="matrix(0.21082295,0,0,0.25646574,84.001801,27.187639)"
     style="stroke-width:2.15029;stroke-dasharray:none"><rect
       style="fill:#f8f8f8;fill-opacity:1;stroke:#211f7c;stroke-width:2.15029;stroke-linejoin:round;stroke-dasharray:none"
       id="rect18"
       width="137.43956"
       height="81.360046"
       x="36.337051"
       y="103.11594"
       ry="2.8476019" /><path
       style="fill:#f8cfcf;fill-opacity:1;stroke:#211f7c;stroke-width:2.15029;stroke-linejoin:round;stroke-dasharray:none"
       d="m 60.875776,125.62547 c 22.874534,-18.07826 29.515527,-16.60249 47.409314,-14.38882 17.89379,2.21366 29.14658,-1.47578 43.35093,17.89379 14.20435,19.36956 28.03975,34.86521 -1.66025,46.30248 -29.7,11.43727 -42.42857,-0.7379 -73.050925,-4.79626 -30.622361,-4.05839 -35.972051,-10.51492 -34.127331,-21.2143 1.844723,-10.69938 18.078262,-23.79689 18.078262,-23.79689 z"
       id="path18" /><path
       style="fill:#f85e5e;fill-opacity:1;stroke:#211f7c;stroke-width:2.15029;stroke-linejoin:round;stroke-dasharray:none"
       d="m 49.259462,163.15509 c -2.79016,-7.3604 -0.767415,-13.21078 0.301664,-16.60413 1.069078,-3.39334 3.435275,-7.95062 12.960695,-16.11387 9.525422,-8.16324 10.825338,-13.42907 24.758815,-10.55952 13.933474,2.86953 23.265014,1.79797 29.006104,8.49598 5.74107,6.69802 11.86155,11.51836 10.48978,23.12582 -1.37177,11.60748 -1.48614,20.93369 -9.84696,24.20874 -8.36079,3.27501 -14.1936,2.35998 -26.823343,-1.48731 -12.629732,-3.84728 -30.467797,-3.5974 -40.846755,-11.06571 z"
       id="path19" /><path
       style="fill:#f85e5e;fill-opacity:1;stroke:#211f7c;stroke-width:2.15029;stroke-linejoin:round;stroke-dasharray:none"
       d="m 123.57683,128.41353 c 0.75142,-2.37122 2.44678,-3.3412 3.40316,-3.92628 0.95637,-0.58507 2.48172,-1.17011 6.58309,-1.07755 4.10136,0.0926 5.49249,-0.89283 8.52599,2.80277 3.03349,3.69558 5.66452,5.45105 5.80989,8.29962 0.14537,2.84859 0.76501,5.32764 -1.91465,7.82197 -2.67967,2.49431 -4.5769,4.7115 -7.39781,3.69512 -2.8209,-1.01638 -4.14809,-2.49462 -6.64818,-6.14399 -2.50008,-3.64936 -7.16938,-7.43741 -8.36149,-11.47166 z"
       id="path20" /><path
       style="fill:#f85e5e;fill-opacity:1;stroke:#211f7c;stroke-width:2.15029;stroke-linejoin:round;stroke-dasharray:none"
       d="m 152.96373,142.36037 c 2.8483,1.35453 3.82807,3.7773 4.4279,5.1495 0.59982,1.37219 1.12362,3.5104 0.46076,9.01881 -0.66289,5.50838 0.37673,7.5238 -4.62394,11.07353 -5.00065,3.54972 -7.53499,6.83813 -11.09664,6.62195 -3.56169,-0.21617 -6.72718,0.2596 -9.47104,-3.70877 -2.74386,-3.96838 -5.24759,-6.84326 -3.60698,-10.49417 1.64064,-3.65088 3.6561,-5.22398 8.52804,-8.06226 4.87194,-2.83824 10.20604,-8.57692 15.3819,-9.59859 z"
       id="path21" /><rect
       style="fill:#f8f8f8;fill-opacity:1;stroke:#211f7c;stroke-width:2.15029;stroke-linejoin:round;stroke-dasharray:none;stroke-opacity:1"
       id="rect21"
       width="34.661495"
       height="16.767708"
       x="133.10622"
       y="160.59254" /><text
       xml:space="preserve"
       style="font-size:11.4296px;writing-mode:lr-tb;direction:ltr;fill:#000000;fill-opacity:1;stroke:#211f7c;stroke-width:2.15029;stroke-linejoin:round;stroke-dasharray:none;stroke-opacity:0"
       x="135.66551"
       y="173.42601"
       id="text21"><tspan
         sodipodi:role="line"
         id="tspan21"
         style="fill:#000000;fill-opacity:1;stroke:#211f7c;stroke-width:2.15029;stroke-dasharray:none;stroke-opacity:0"
         x="135.66551"
         y="173.42601">￥980</tspan></text></g><g
     inkscape:label="Layer 1"
     id="layer1-5"
     transform="matrix(0.21082295,0,0,0.25646574,67.597623,27.187639)"
     style="stroke-width:2.15029;stroke-dasharray:none"><rect
       style="fill:#f8f8f8;fill-opacity:1;stroke:#211f7c;stroke-width:2.15029;stroke-linejoin:round;stroke-dasharray:none"
       id="rect1-7"
       width="137.43956"
       height="81.360046"
       x="36.337051"
       y="103.11594"
       ry="2.8476019" /><path
       style="fill:#f8cfcf;fill-opacity:1;stroke:#211f7c;stroke-width:2.15029;stroke-linejoin:round;stroke-dasharray:none"
       d="m 60.875776,125.62547 c 22.874534,-18.07826 29.515527,-16.60249 47.409314,-14.38882 17.89379,2.21366 29.14658,-1.47578 43.35093,17.89379 14.20435,19.36956 28.03975,34.86521 -1.66025,46.30248 -29.7,11.43727 -42.42857,-0.7379 -73.050925,-4.79626 -30.622361,-4.05839 -35.972051,-10.51492 -34.127331,-21.2143 1.844723,-10.69938 18.078262,-23.79689 18.078262,-23.79689 z"
       id="path1" /><path
       style="fill:#f85e5e;fill-opacity:1;stroke:#211f7c;stroke-width:2.15029;stroke-linejoin:round;stroke-dasharray:none"
       d="m 49.259462,163.15509 c -2.79016,-7.3604 -0.767415,-13.21078 0.301664,-16.60413 1.069078,-3.39334 3.435275,-7.95062 12.960695,-16.11387 9.525422,-8.16324 10.825338,-13.42907 24.758815,-10.55952 13.933474,2.86953 23.265014,1.79797 29.006104,8.49598 5.74107,6.69802 11.86155,11.51836 10.48978,23.12582 -1.37177,11.60748 -1.48614,20.93369 -9.84696,24.20874 -8.36079,3.27501 -14.1936,2.35998 -26.823343,-1.48731 -12.629732,-3.84728 -30.467797,-3.5974 -40.846755,-11.06571 z"
       id="path2" /><path
       style="fill:#f85e5e;fill-opacity:1;stroke:#211f7c;stroke-width:2.15029;stroke-linejoin:round;stroke-dasharray:none"
       d="m 123.57683,128.41353 c 0.75142,-2.37122 2.44678,-3.3412 3.40316,-3.92628 0.95637,-0.58507 2.48172,-1.17011 6.58309,-1.07755 4.10136,0.0926 5.49249,-0.89283 8.52599,2.80277 3.03349,3.69558 5.66452,5.45105 5.80989,8.29962 0.14537,2.84859 0.76501,5.32764 -1.91465,7.82197 -2.67967,2.49431 -4.5769,4.7115 -7.39781,3.69512 -2.8209,-1.01638 -4.14809,-2.49462 -6.64818,-6.14399 -2.50008,-3.64936 -7.16938,-7.43741 -8.36149,-11.47166 z"
       id="path2-1" /><path
       style="fill:#f85e5e;fill-opacity:1;stroke:#211f7c;stroke-width:2.15029;stroke-linejoin:round;stroke-dasharray:none"
       d="m 152.96373,142.36037 c 2.8483,1.35453 3.82807,3.7773 4.4279,5.1495 0.59982,1.37219 1.12362,3.5104 0.46076,9.01881 -0.66289,5.50838 0.37673,7.5238 -4.62394,11.07353 -5.00065,3.54972 -7.53499,6.83813 -11.09664,6.62195 -3.56169,-0.21617 -6.72718,0.2596 -9.47104,-3.70877 -2.74386,-3.96838 -5.24759,-6.84326 -3.60698,-10.49417 1.64064,-3.65088 3.6561,-5.22398 8.52804,-8.06226 4.87194,-2.83824 10.20604,-8.57692 15.3819,-9.59859 z"
       id="path2-1-1" /><rect
       style="fill:#f8f8f8;fill-opacity:1;stroke:#211f7c;stroke-width:2.15029;stroke-linejoin:round;stroke-dasharray:none;stroke-opacity:1"
       id="rect5-6"
       width="34.661495"
       height="16.767708"
       x="133.10622"
       y="160.59254" /><text
       xml:space="preserve"
       style="font-size:11.4296px;writing-mode:lr-tb;direction:ltr;fill:#000000;fill-opacity:1;stroke:#211f7c;stroke-width:2.15029;stroke-linejoin:round;stroke-dasharray:none;stroke-opacity:0"
       x="135.66551"
       y="173.42601"
       id="text5"><tspan
         sodipodi:role="line"
         id="tspan5"
         style="fill:#000000;fill-opacity:1;stroke:#211f7c;stroke-width:2.15029;stroke-dasharray:none;stroke-opacity:0"
         x="135.66551"
         y="173.42601">￥980</tspan></text></g><g
     inkscape:label="Layer 1"
     id="g25"
     transform="matrix(0.21082295,0,0,0.25646574,84.001801,57.879325)"
     style="stroke-width:2.15029;stroke-dasharray:none"><rect
       style="fill:#f8f8f8;fill-opacity:1;stroke:#211f7c;stroke-width:2.15029;stroke-linejoin:round;stroke-dasharray:none"
       id="rect22"
       width="137.43956"
       height="81.360046"
       x="36.337051"
       y="103.11594"
       ry="2.8476019" /><path
       style="fill:#f8cfcf;fill-opacity:1;stroke:#211f7c;stroke-width:2.15029;stroke-linejoin:round;stroke-dasharray:none"
       d="m 60.875776,125.62547 c 22.874534,-18.07826 29.515527,-16.60249 47.409314,-14.38882 17.89379,2.21366 29.14658,-1.47578 43.35093,17.89379 14.20435,19.36956 28.03975,34.86521 -1.66025,46.30248 -29.7,11.43727 -42.42857,-0.7379 -73.050925,-4.79626 -30.622361,-4.05839 -35.972051,-10.51492 -34.127331,-21.2143 1.844723,-10.69938 18.078262,-23.79689 18.078262,-23.79689 z"
       id="path22" /><path
       style="fill:#f85e5e;fill-opacity:1;stroke:#211f7c;stroke-width:2.15029;stroke-linejoin:round;stroke-dasharray:none"
       d="m 49.259462,163.15509 c -2.79016,-7.3604 -0.767415,-13.21078 0.301664,-16.60413 1.069078,-3.39334 3.435275,-7.95062 12.960695,-16.11387 9.525422,-8.16324 10.825338,-13.42907 24.758815,-10.55952 13.933474,2.86953 23.265014,1.79797 29.006104,8.49598 5.74107,6.69802 11.86155,11.51836 10.48978,23.12582 -1.37177,11.60748 -1.48614,20.93369 -9.84696,24.20874 -8.36079,3.27501 -14.1936,2.35998 -26.823343,-1.48731 -12.629732,-3.84728 -30.467797,-3.5974 -40.846755,-11.06571 z"
       id="path23" /><path
       style="fill:#f85e5e;fill-opacity:1;stroke:#211f7c;stroke-width:2.15029;stroke-linejoin:round;stroke-dasharray:none"
       d="m 123.57683,128.41353 c 0.75142,-2.37122 2.44678,-3.3412 3.40316,-3.92628 0.95637,-0.58507 2.48172,-1.17011 6.58309,-1.07755 4.10136,0.0926 5.49249,-0.89283 8.52599,2.80277 3.03349,3.69558 5.66452,5.45105 5.80989,8.29962 0.14537,2.84859 0.76501,5.32764 -1.91465,7.82197 -2.67967,2.49431 -4.5769,4.7115 -7.39781,3.69512 -2.8209,-1.01638 -4.14809,-2.49462 -6.64818,-6.14399 -2.50008,-3.64936 -7.16938,-7.43741 -8.36149,-11.47166 z"
       id="path24" /><path
       style="fill:#f85e5e;fill-opacity:1;stroke:#211f7c;stroke-width:2.15029;stroke-linejoin:round;stroke-dasharray:none"
       d="m 152.96373,142.36037 c 2.8483,1.35453 3.82807,3.7773 4.4279,5.1495 0.59982,1.37219 1.12362,3.5104 0.46076,9.01881 -0.66289,5.50838 0.37673,7.5238 -4.62394,11.07353 -5.00065,3.54972 -7.53499,6.83813 -11.09664,6.62195 -3.56169,-0.21617 -6.72718,0.2596 -9.47104,-3.70877 -2.74386,-3.96838 -5.24759,-6.84326 -3.60698,-10.49417 1.64064,-3.65088 3.6561,-5.22398 8.52804,-8.06226 4.87194,-2.83824 10.20604,-8.57692 15.3819,-9.59859 z"
       id="path25" /><rect
       style="fill:#f8f8f8;fill-opacity:1;stroke:#211f7c;stroke-width:2.15029;stroke-linejoin:round;stroke-dasharray:none;stroke-opacity:1"
       id="rect25"
       width="34.661495"
       height="16.767708"
       x="133.10622"
       y="160.59254" /><text
       xml:space="preserve"
       style="font-size:11.4296px;writing-mode:lr-tb;direction:ltr;fill:#000000;fill-opacity:1;stroke:#211f7c;stroke-width:2.15029;stroke-linejoin:round;stroke-dasharray:none;stroke-opacity:0"
       x="135.66551"
       y="173.42601"
       id="text25"><tspan
         sodipodi:role="line"
         id="tspan25"
         style="fill:#000000;fill-opacity:1;stroke:#211f7c;stroke-width:2.15029;stroke-dasharray:none;stroke-opacity:0"
         x="135.66551"
         y="173.42601">￥980</tspan></text></g><g
     inkscape:label="Layer 1"
     id="g29"
     transform="matrix(0.21082295,0,0,0.25646574,67.597623,57.879325)"
     style="stroke-width:2.15029;stroke-dasharray:none"><rect
       style="fill:#f8f8f8;fill-opacity:1;stroke:#211f7c;stroke-width:2.15029;stroke-linejoin:round;stroke-dasharray:none"
       id="rect26"
       width="137.43956"
       height="81.360046"
       x="36.337051"
       y="103.11594"
       ry="2.8476019" /><path
       style="fill:#f8cfcf;fill-opacity:1;stroke:#211f7c;stroke-width:2.15029;stroke-linejoin:round;stroke-dasharray:none"
       d="m 60.875776,125.62547 c 22.874534,-18.07826 29.515527,-16.60249 47.409314,-14.38882 17.89379,2.21366 29.14658,-1.47578 43.35093,17.89379 14.20435,19.36956 28.03975,34.86521 -1.66025,46.30248 -29.7,11.43727 -42.42857,-0.7379 -73.050925,-4.79626 -30.622361,-4.05839 -35.972051,-10.51492 -34.127331,-21.2143 1.844723,-10.69938 18.078262,-23.79689 18.078262,-23.79689 z"
       id="path26" /><path
       style="fill:#f85e5e;fill-opacity:1;stroke:#211f7c;stroke-width:2.15029;stroke-linejoin:round;stroke-dasharray:none"
       d="m 49.259462,163.15509 c -2.79016,-7.3604 -0.767415,-13.21078 0.301664,-16.60413 1.069078,-3.39334 3.435275,-7.95062 12.960695,-16.11387 9.525422,-8.16324 10.825338,-13.42907 24.758815,-10.55952 13.933474,2.86953 23.265014,1.79797 29.006104,8.49598 5.74107,6.69802 11.86155,11.51836 10.48978,23.12582 -1.37177,11.60748 -1.48614,20.93369 -9.84696,24.20874 -8.36079,3.27501 -14.1936,2.35998 -26.823343,-1.48731 -12.629732,-3.84728 -30.467797,-3.5974 -40.846755,-11.06571 z"
       id="path27" /><path
       style="fill:#f85e5e;fill-opacity:1;stroke:#211f7c;stroke-width:2.15029;stroke-linejoin:round;stroke-dasharray:none"
       d="m 123.57683,128.41353 c 0.75142,-2.37122 2.44678,-3.3412 3.40316,-3.92628 0.95637,-0.58507 2.48172,-1.17011 6.58309,-1.07755 4.10136,0.0926 5.49249,-0.89283 8.52599,2.80277 3.03349,3.69558 5.66452,5.45105 5.80989,8.29962 0.14537,2.84859 0.76501,5.32764 -1.91465,7.82197 -2.67967,2.49431 -4.5769,4.7115 -7.39781,3.69512 -2.8209,-1.01638 -4.14809,-2.49462 -6.64818,-6.14399 -2.50008,-3.64936 -7.16938,-7.43741 -8.36149,-11.47166 z"
       id="path28" /><path
       style="fill:#f85e5e;fill-opacity:1;stroke:#211f7c;stroke-width:2.15029;stroke-linejoin:round;stroke-dasharray:none"
       d="m 152.96373,142.36037 c 2.8483,1.35453 3.82807,3.7773 4.4279,5.1495 0.59982,1.37219 1.12362,3.5104 0.46076,9.01881 -0.66289,5.50838 0.37673,7.5238 -4.62394,11.07353 -5.00065,3.54972 -7.53499,6.83813 -11.09664,6.62195 -3.56169,-0.21617 -6.72718,0.2596 -9.47104,-3.70877 -2.74386,-3.96838 -5.24759,-6.84326 -3.60698,-10.49417 1.64064,-3.65088 3.6561,-5.22398 8.52804,-8.06226 4.87194,-2.83824 10.20604,-8.57692 15.3819,-9.59859 z"
       id="path29" /><rect
       style="fill:#f8f8f8;fill-opacity:1;stroke:#211f7c;stroke-width:2.15029;stroke-linejoin:round;stroke-dasharray:none;stroke-opacity:1"
       id="rect29"
       width="34.661495"
       height="16.767708"
       x="133.10622"
       y="160.59254" /><text
       xml:space="preserve"
       style="font-size:11.4296px;writing-mode:lr-tb;direction:ltr;fill:#000000;fill-opacity:1;stroke:#211f7c;stroke-width:2.15029;stroke-linejoin:round;stroke-dasharray:none;stroke-opacity:0"
       x="135.66551"
       y="173.42601"
       id="text29"><tspan
         sodipodi:role="line"
         id="tspan29"
         style="fill:#000000;fill-opacity:1;stroke:#211f7c;stroke-width:2.15029;stroke-dasharray:none;stroke-opacity:0"
         x="135.66551"
         y="173.42601">￥980</tspan></text></g><g
     inkscape:label="Layer 1"
     id="g33"
     transform="matrix(0.21082295,0,0,0.25646574,84.001801,88.041844)"
     style="stroke-width:2.15029;stroke-dasharray:none"><rect
       style="fill:#f8f8f8;fill-opacity:1;stroke:#211f7c;stroke-width:2.15029;stroke-linejoin:round;stroke-dasharray:none"
       id="rect30"
       width="137.43956"
       height="81.360046"
       x="36.337051"
       y="103.11594"
       ry="2.8476019" /><path
       style="fill:#f8cfcf;fill-opacity:1;stroke:#211f7c;stroke-width:2.15029;stroke-linejoin:round;stroke-dasharray:none"
       d="m 60.875776,125.62547 c 22.874534,-18.07826 29.515527,-16.60249 47.409314,-14.38882 17.89379,2.21366 29.14658,-1.47578 43.35093,17.89379 14.20435,19.36956 28.03975,34.86521 -1.66025,46.30248 -29.7,11.43727 -42.42857,-0.7379 -73.050925,-4.79626 -30.622361,-4.05839 -35.972051,-10.51492 -34.127331,-21.2143 1.844723,-10.69938 18.078262,-23.79689 18.078262,-23.79689 z"
       id="path30" /><path
       style="fill:#f85e5e;fill-opacity:1;stroke:#211f7c;stroke-width:2.15029;stroke-linejoin:round;stroke-dasharray:none"
       d="m 49.259462,163.15509 c -2.79016,-7.3604 -0.767415,-13.21078 0.301664,-16.60413 1.069078,-3.39334 3.435275,-7.95062 12.960695,-16.11387 9.525422,-8.16324 10.825338,-13.42907 24.758815,-10.55952 13.933474,2.86953 23.265014,1.79797 29.006104,8.49598 5.74107,6.69802 11.86155,11.51836 10.48978,23.12582 -1.37177,11.60748 -1.48614,20.93369 -9.84696,24.20874 -8.36079,3.27501 -14.1936,2.35998 -26.823343,-1.48731 -12.629732,-3.84728 -30.467797,-3.5974 -40.846755,-11.06571 z"
       id="path31" /><path
       style="fill:#f85e5e;fill-opacity:1;stroke:#211f7c;stroke-width:2.15029;stroke-linejoin:round;stroke-dasharray:none"
       d="m 123.57683,128.41353 c 0.75142,-2.37122 2.44678,-3.3412 3.40316,-3.92628 0.95637,-0.58507 2.48172,-1.17011 6.58309,-1.07755 4.10136,0.0926 5.49249,-0.89283 8.52599,2.80277 3.03349,3.69558 5.66452,5.45105 5.80989,8.29962 0.14537,2.84859 0.76501,5.32764 -1.91465,7.82197 -2.67967,2.49431 -4.5769,4.7115 -7.39781,3.69512 -2.8209,-1.01638 -4.14809,-2.49462 -6.64818,-6.14399 -2.50008,-3.64936 -7.16938,-7.43741 -8.36149,-11.47166 z"
       id="path32" /><path
       style="fill:#f85e5e;fill-opacity:1;stroke:#211f7c;stroke-width:2.15029;stroke-linejoin:round;stroke-dasharray:none"
       d="m 152.96373,142.36037 c 2.8483,1.35453 3.82807,3.7773 4.4279,5.1495 0.59982,1.37219 1.12362,3.5104 0.46076,9.01881 -0.66289,5.50838 0.37673,7.5238 -4.62394,11.07353 -5.00065,3.54972 -7.53499,6.83813 -11.09664,6.62195 -3.56169,-0.21617 -6.72718,0.2596 -9.47104,-3.70877 -2.74386,-3.96838 -5.24759,-6.84326 -3.60698,-10.49417 1.64064,-3.65088 3.6561,-5.22398 8.52804,-8.06226 4.87194,-2.83824 10.20604,-8.57692 15.3819,-9.59859 z"
       id="path33" /><rect
       style="fill:#f8f8f8;fill-opacity:1;stroke:#211f7c;stroke-width:2.15029;stroke-linejoin:round;stroke-dasharray:none;stroke-opacity:1"
       id="rect33"
       width="34.661495"
       height="16.767708"
       x="133.10622"
       y="160.59254" /><text
       xml:space="preserve"
       style="font-size:11.4296px;writing-mode:lr-tb;direction:ltr;fill:#000000;fill-opacity:1;stroke:#211f7c;stroke-width:2.15029;stroke-linejoin:round;stroke-dasharray:none;stroke-opacity:0"
       x="135.66551"
       y="173.42601"
       id="text33"><tspan
         sodipodi:role="line"
         id="tspan33"
         style="fill:#000000;fill-opacity:1;stroke:#211f7c;stroke-width:2.15029;stroke-dasharray:none;stroke-opacity:0"
         x="135.66551"
         y="173.42601">￥980</tspan></text></g><g
     inkscape:label="Layer 1"
     id="g37"
     transform="matrix(0.21082295,0,0,0.25646574,67.597623,88.041844)"
     style="stroke-width:2.15029;stroke-dasharray:none"><rect
       style="fill:#f8f8f8;fill-opacity:1;stroke:#211f7c;stroke-width:2.15029;stroke-linejoin:round;stroke-dasharray:none"
       id="rect34"
       width="137.43956"
       height="81.360046"
       x="36.337051"
       y="103.11594"
       ry="2.8476019" /><path
       style="fill:#f8cfcf;fill-opacity:1;stroke:#211f7c;stroke-width:2.15029;stroke-linejoin:round;stroke-dasharray:none"
       d="m 60.875776,125.62547 c 22.874534,-18.07826 29.515527,-16.60249 47.409314,-14.38882 17.89379,2.21366 29.14658,-1.47578 43.35093,17.89379 14.20435,19.36956 28.03975,34.86521 -1.66025,46.30248 -29.7,11.43727 -42.42857,-0.7379 -73.050925,-4.79626 -30.622361,-4.05839 -35.972051,-10.51492 -34.127331,-21.2143 1.844723,-10.69938 18.078262,-23.79689 18.078262,-23.79689 z"
       id="path34" /><path
       style="fill:#f85e5e;fill-opacity:1;stroke:#211f7c;stroke-width:2.15029;stroke-linejoin:round;stroke-dasharray:none"
       d="m 49.259462,163.15509 c -2.79016,-7.3604 -0.767415,-13.21078 0.301664,-16.60413 1.069078,-3.39334 3.435275,-7.95062 12.960695,-16.11387 9.525422,-8.16324 10.825338,-13.42907 24.758815,-10.55952 13.933474,2.86953 23.265014,1.79797 29.006104,8.49598 5.74107,6.69802 11.86155,11.51836 10.48978,23.12582 -1.37177,11.60748 -1.48614,20.93369 -9.84696,24.20874 -8.36079,3.27501 -14.1936,2.35998 -26.823343,-1.48731 -12.629732,-3.84728 -30.467797,-3.5974 -40.846755,-11.06571 z"
       id="path35" /><path
       style="fill:#f85e5e;fill-opacity:1;stroke:#211f7c;stroke-width:2.15029;stroke-linejoin:round;stroke-dasharray:none"
       d="m 123.57683,128.41353 c 0.75142,-2.37122 2.44678,-3.3412 3.40316,-3.92628 0.95637,-0.58507 2.48172,-1.17011 6.58309,-1.07755 4.10136,0.0926 5.49249,-0.89283 8.52599,2.80277 3.03349,3.69558 5.66452,5.45105 5.80989,8.29962 0.14537,2.84859 0.76501,5.32764 -1.91465,7.82197 -2.67967,2.49431 -4.5769,4.7115 -7.39781,3.69512 -2.8209,-1.01638 -4.14809,-2.49462 -6.64818,-6.14399 -2.50008,-3.64936 -7.16938,-7.43741 -8.36149,-11.47166 z"
       id="path36" /><path
       style="fill:#f85e5e;fill-opacity:1;stroke:#211f7c;stroke-width:2.15029;stroke-linejoin:round;stroke-dasharray:none"
       d="m 152.96373,142.36037 c 2.8483,1.35453 3.82807,3.7773 4.4279,5.1495 0.59982,1.37219 1.12362,3.5104 0.46076,9.01881 -0.66289,5.50838 0.37673,7.5238 -4.62394,11.07353 -5.00065,3.54972 -7.53499,6.83813 -11.09664,6.62195 -3.56169,-0.21617 -6.72718,0.2596 -9.47104,-3.70877 -2.74386,-3.96838 -5.24759,-6.84326 -3.60698,-10.49417 1.64064,-3.65088 3.6561,-5.22398 8.52804,-8.06226 4.87194,-2.83824 10.20604,-8.57692 15.3819,-9.59859 z"
       id="path37" /><rect
       style="fill:#f8f8f8;fill-opacity:1;stroke:#211f7c;stroke-width:2.15029;stroke-linejoin:round;stroke-dasharray:none;stroke-opacity:1"
       id="rect37"
       width="34.661495"
       height="16.767708"
       x="133.10622"
       y="160.59254" /><text
       xml:space="preserve"
       style="font-size:11.4296px;writing-mode:lr-tb;direction:ltr;fill:#000000;fill-opacity:1;stroke:#211f7c;stroke-width:2.15029;stroke-linejoin:round;stroke-dasharray:none;stroke-opacity:0"
       x="135.66551"
       y="173.42601"
       id="text37"><tspan
         sodipodi:role="line"
         id="tspan37"
         style="fill:#000000;fill-opacity:1;stroke:#211f7c;stroke-width:2.15029;stroke-dasharray:none;stroke-opacity:0"
         x="135.66551"
         y="173.42601">￥980</tspan></text></g><g
     inkscape:label="Layer 1"
     id="g41"
     transform="matrix(0.21082295,0,0,0.25646574,138.50622,27.187639)"
     style="stroke-width:2.15029;stroke-dasharray:none"><rect
       style="fill:#f8f8f8;fill-opacity:1;stroke:#211f7c;stroke-width:2.15029;stroke-linejoin:round;stroke-dasharray:none"
       id="rect38"
       width="137.43956"
       height="81.360046"
       x="36.337051"
       y="103.11594"
       ry="2.8476019" /><path
       style="fill:#f8cfcf;fill-opacity:1;stroke:#211f7c;stroke-width:2.15029;stroke-linejoin:round;stroke-dasharray:none"
       d="m 60.875776,125.62547 c 22.874534,-18.07826 29.515527,-16.60249 47.409314,-14.38882 17.89379,2.21366 29.14658,-1.47578 43.35093,17.89379 14.20435,19.36956 28.03975,34.86521 -1.66025,46.30248 -29.7,11.43727 -42.42857,-0.7379 -73.050925,-4.79626 -30.622361,-4.05839 -35.972051,-10.51492 -34.127331,-21.2143 1.844723,-10.69938 18.078262,-23.79689 18.078262,-23.79689 z"
       id="path38" /><path
       style="fill:#f85e5e;fill-opacity:1;stroke:#211f7c;stroke-width:2.15029;stroke-linejoin:round;stroke-dasharray:none"
       d="m 49.259462,163.15509 c -2.79016,-7.3604 -0.767415,-13.21078 0.301664,-16.60413 1.069078,-3.39334 3.435275,-7.95062 12.960695,-16.11387 9.525422,-8.16324 10.825338,-13.42907 24.758815,-10.55952 13.933474,2.86953 23.265014,1.79797 29.006104,8.49598 5.74107,6.69802 11.86155,11.51836 10.48978,23.12582 -1.37177,11.60748 -1.48614,20.93369 -9.84696,24.20874 -8.36079,3.27501 -14.1936,2.35998 -26.823343,-1.48731 -12.629732,-3.84728 -30.467797,-3.5974 -40.846755,-11.06571 z"
       id="path39" /><path
       style="fill:#f85e5e;fill-opacity:1;stroke:#211f7c;stroke-width:2.15029;stroke-linejoin:round;stroke-dasharray:none"
       d="m 123.57683,128.41353 c 0.75142,-2.37122 2.44678,-3.3412 3.40316,-3.92628 0.95637,-0.58507 2.48172,-1.17011 6.58309,-1.07755 4.10136,0.0926 5.49249,-0.89283 8.52599,2.80277 3.03349,3.69558 5.66452,5.45105 5.80989,8.29962 0.14537,2.84859 0.76501,5.32764 -1.91465,7.82197 -2.67967,2.49431 -4.5769,4.7115 -7.39781,3.69512 -2.8209,-1.01638 -4.14809,-2.49462 -6.64818,-6.14399 -2.50008,-3.64936 -7.16938,-7.43741 -8.36149,-11.47166 z"
       id="path40" /><path
       style="fill:#f85e5e;fill-opacity:1;stroke:#211f7c;stroke-width:2.15029;stroke-linejoin:round;stroke-dasharray:none"
       d="m 152.96373,142.36037 c 2.8483,1.35453 3.82807,3.7773 4.4279,5.1495 0.59982,1.37219 1.12362,3.5104 0.46076,9.01881 -0.66289,5.50838 0.37673,7.5238 -4.62394,11.07353 -5.00065,3.54972 -7.53499,6.83813 -11.09664,6.62195 -3.56169,-0.21617 -6.72718,0.2596 -9.47104,-3.70877 -2.74386,-3.96838 -5.24759,-6.84326 -3.60698,-10.49417 1.64064,-3.65088 3.6561,-5.22398 8.52804,-8.06226 4.87194,-2.83824 10.20604,-8.57692 15.3819,-9.59859 z"
       id="path41" /><rect
       style="fill:#f8f8f8;fill-opacity:1;stroke:#211f7c;stroke-width:2.15029;stroke-linejoin:round;stroke-dasharray:none;stroke-opacity:1"
       id="rect41"
       width="34.661495"
       height="16.767708"
       x="133.10622"
       y="160.59254" /><text
       xml:space="preserve"
       style="font-size:11.4296px;writing-mode:lr-tb;direction:ltr;fill:#000000;fill-opacity:1;stroke:#211f7c;stroke-width:2.15029;stroke-linejoin:round;stroke-dasharray:none;stroke-opacity:0"
       x="135.66551"
       y="173.42601"
       id="text41"><tspan
         sodipodi:role="line"
         id="tspan41"
         style="fill:#000000;fill-opacity:1;stroke:#211f7c;stroke-width:2.15029;stroke-dasharray:none;stroke-opacity:0"
         x="135.66551"
         y="173.42601">￥980</tspan></text></g><g
     inkscape:label="Layer 1"
     id="g45"
     transform="matrix(0.21082295,0,0,0.25646574,122.10195,27.187639)"
     style="stroke-width:2.15029;stroke-dasharray:none"><rect
       style="fill:#f8f8f8;fill-opacity:1;stroke:#211f7c;stroke-width:2.15029;stroke-linejoin:round;stroke-dasharray:none"
       id="rect42"
       width="137.43956"
       height="81.360046"
       x="36.337051"
       y="103.11594"
       ry="2.8476019" /><path
       style="fill:#f8cfcf;fill-opacity:1;stroke:#211f7c;stroke-width:2.15029;stroke-linejoin:round;stroke-dasharray:none"
       d="m 60.875776,125.62547 c 22.874534,-18.07826 29.515527,-16.60249 47.409314,-14.38882 17.89379,2.21366 29.14658,-1.47578 43.35093,17.89379 14.20435,19.36956 28.03975,34.86521 -1.66025,46.30248 -29.7,11.43727 -42.42857,-0.7379 -73.050925,-4.79626 -30.622361,-4.05839 -35.972051,-10.51492 -34.127331,-21.2143 1.844723,-10.69938 18.078262,-23.79689 18.078262,-23.79689 z"
       id="path42" /><path
       style="fill:#f85e5e;fill-opacity:1;stroke:#211f7c;stroke-width:2.15029;stroke-linejoin:round;stroke-dasharray:none"
       d="m 49.259462,163.15509 c -2.79016,-7.3604 -0.767415,-13.21078 0.301664,-16.60413 1.069078,-3.39334 3.435275,-7.95062 12.960695,-16.11387 9.525422,-8.16324 10.825338,-13.42907 24.758815,-10.55952 13.933474,2.86953 23.265014,1.79797 29.006104,8.49598 5.74107,6.69802 11.86155,11.51836 10.48978,23.12582 -1.37177,11.60748 -1.48614,20.93369 -9.84696,24.20874 -8.36079,3.27501 -14.1936,2.35998 -26.823343,-1.48731 -12.629732,-3.84728 -30.467797,-3.5974 -40.846755,-11.06571 z"
       id="path43" /><path
       style="fill:#f85e5e;fill-opacity:1;stroke:#211f7c;stroke-width:2.15029;stroke-linejoin:round;stroke-dasharray:none"
       d="m 123.57683,128.41353 c 0.75142,-2.37122 2.44678,-3.3412 3.40316,-3.92628 0.95637,-0.58507 2.48172,-1.17011 6.58309,-1.07755 4.10136,0.0926 5.49249,-0.89283 8.52599,2.80277 3.03349,3.69558 5.66452,5.45105 5.80989,8.29962 0.14537,2.84859 0.76501,5.32764 -1.91465,7.82197 -2.67967,2.49431 -4.5769,4.7115 -7.39781,3.69512 -2.8209,-1.01638 -4.14809,-2.49462 -6.64818,-6.14399 -2.50008,-3.64936 -7.16938,-7.43741 -8.36149,-11.47166 z"
       id="path44" /><path
       style="fill:#f85e5e;fill-opacity:1;stroke:#211f7c;stroke-width:2.15029;stroke-linejoin:round;stroke-dasharray:none"
       d="m 152.96373,142.36037 c 2.8483,1.35453 3.82807,3.7773 4.4279,5.1495 0.59982,1.37219 1.12362,3.5104 0.46076,9.01881 -0.66289,5.50838 0.37673,7.5238 -4.62394,11.07353 -5.00065,3.54972 -7.53499,6.83813 -11.09664,6.62195 -3.56169,-0.21617 -6.72718,0.2596 -9.47104,-3.70877 -2.74386,-3.96838 -5.24759,-6.84326 -3.60698,-10.49417 1.64064,-3.65088 3.6561,-5.22398 8.52804,-8.06226 4.87194,-2.83824 10.20604,-8.57692 15.3819,-9.59859 z"
       id="path45" /><rect
       style="fill:#f8f8f8;fill-opacity:1;stroke:#211f7c;stroke-width:2.15029;stroke-linejoin:round;stroke-dasharray:none;stroke-opacity:1"
       id="rect45"
       width="34.661495"
       height="16.767708"
       x="133.10622"
       y="160.59254" /><text
       xml:space="preserve"
       style="font-size:11.4296px;writing-mode:lr-tb;direction:ltr;fill:#000000;fill-opacity:1;stroke:#211f7c;stroke-width:2.15029;stroke-linejoin:round;stroke-dasharray:none;stroke-opacity:0"
       x="135.66551"
       y="173.42601"
       id="text45"><tspan
         sodipodi:role="line"
         id="tspan45"
         style="fill:#000000;fill-opacity:1;stroke:#211f7c;stroke-width:2.15029;stroke-dasharray:none;stroke-opacity:0"
         x="135.66551"
         y="173.42601">￥980</tspan></text></g><g
     inkscape:label="Layer 1"
     id="g49"
     transform="matrix(0.21082295,0,0,0.25646574,138.50622,57.879325)"
     style="stroke-width:2.15029;stroke-dasharray:none"><rect
       style="fill:#f8f8f8;fill-opacity:1;stroke:#211f7c;stroke-width:2.15029;stroke-linejoin:round;stroke-dasharray:none"
       id="rect46"
       width="137.43956"
       height="81.360046"
       x="36.337051"
       y="103.11594"
       ry="2.8476019" /><path
       style="fill:#f8cfcf;fill-opacity:1;stroke:#211f7c;stroke-width:2.15029;stroke-linejoin:round;stroke-dasharray:none"
       d="m 60.875776,125.62547 c 22.874534,-18.07826 29.515527,-16.60249 47.409314,-14.38882 17.89379,2.21366 29.14658,-1.47578 43.35093,17.89379 14.20435,19.36956 28.03975,34.86521 -1.66025,46.30248 -29.7,11.43727 -42.42857,-0.7379 -73.050925,-4.79626 -30.622361,-4.05839 -35.972051,-10.51492 -34.127331,-21.2143 1.844723,-10.69938 18.078262,-23.79689 18.078262,-23.79689 z"
       id="path46" /><path
       style="fill:#f85e5e;fill-opacity:1;stroke:#211f7c;stroke-width:2.15029;stroke-linejoin:round;stroke-dasharray:none"
       d="m 49.259462,163.15509 c -2.79016,-7.3604 -0.767415,-13.21078 0.301664,-16.60413 1.069078,-3.39334 3.435275,-7.95062 12.960695,-16.11387 9.525422,-8.16324 10.825338,-13.42907 24.758815,-10.55952 13.933474,2.86953 23.265014,1.79797 29.006104,8.49598 5.74107,6.69802 11.86155,11.51836 10.48978,23.12582 -1.37177,11.60748 -1.48614,20.93369 -9.84696,24.20874 -8.36079,3.27501 -14.1936,2.35998 -26.823343,-1.48731 -12.629732,-3.84728 -30.467797,-3.5974 -40.846755,-11.06571 z"
       id="path47" /><path
       style="fill:#f85e5e;fill-opacity:1;stroke:#211f7c;stroke-width:2.15029;stroke-linejoin:round;stroke-dasharray:none"
       d="m 123.57683,128.41353 c 0.75142,-2.37122 2.44678,-3.3412 3.40316,-3.92628 0.95637,-0.58507 2.48172,-1.17011 6.58309,-1.07755 4.10136,0.0926 5.49249,-0.89283 8.52599,2.80277 3.03349,3.69558 5.66452,5.45105 5.80989,8.29962 0.14537,2.84859 0.76501,5.32764 -1.91465,7.82197 -2.67967,2.49431 -4.5769,4.7115 -7.39781,3.69512 -2.8209,-1.01638 -4.14809,-2.49462 -6.64818,-6.14399 -2.50008,-3.64936 -7.16938,-7.43741 -8.36149,-11.47166 z"
       id="path48" /><path
       style="fill:#f85e5e;fill-opacity:1;stroke:#211f7c;stroke-width:2.15029;stroke-linejoin:round;stroke-dasharray:none"
       d="m 152.96373,142.36037 c 2.8483,1.35453 3.82807,3.7773 4.4279,5.1495 0.59982,1.37219 1.12362,3.5104 0.46076,9.01881 -0.66289,5.50838 0.37673,7.5238 -4.62394,11.07353 -5.00065,3.54972 -7.53499,6.83813 -11.09664,6.62195 -3.56169,-0.21617 -6.72718,0.2596 -9.47104,-3.70877 -2.74386,-3.96838 -5.24759,-6.84326 -3.60698,-10.49417 1.64064,-3.65088 3.6561,-5.22398 8.52804,-8.06226 4.87194,-2.83824 10.20604,-8.57692 15.3819,-9.59859 z"
       id="path49" /><rect
       style="fill:#f8f8f8;fill-opacity:1;stroke:#211f7c;stroke-width:2.15029;stroke-linejoin:round;stroke-dasharray:none;stroke-opacity:1"
       id="rect49"
       width="34.661495"
       height="16.767708"
       x="133.10622"
       y="160.59254" /><text
       xml:space="preserve"
       style="font-size:11.4296px;writing-mode:lr-tb;direction:ltr;fill:#000000;fill-opacity:1;stroke:#211f7c;stroke-width:2.15029;stroke-linejoin:round;stroke-dasharray:none;stroke-opacity:0"
       x="135.66551"
       y="173.42601"
       id="text49"><tspan
         sodipodi:role="line"
         id="tspan49"
         style="fill:#000000;fill-opacity:1;stroke:#211f7c;stroke-width:2.15029;stroke-dasharray:none;stroke-opacity:0"
         x="135.66551"
         y="173.42601">￥980</tspan></text></g><g
     inkscape:label="Layer 1"
     id="g53"
     transform="matrix(0.21082295,0,0,0.25646574,122.10195,57.879325)"
     style="stroke-width:2.15029;stroke-dasharray:none"><rect
       style="fill:#f8f8f8;fill-opacity:1;stroke:#211f7c;stroke-width:2.15029;stroke-linejoin:round;stroke-dasharray:none"
       id="rect50"
       width="137.43956"
       height="81.360046"
       x="36.337051"
       y="103.11594"
       ry="2.8476019" /><path
       style="fill:#f8cfcf;fill-opacity:1;stroke:#211f7c;stroke-width:2.15029;stroke-linejoin:round;stroke-dasharray:none"
       d="m 60.875776,125.62547 c 22.874534,-18.07826 29.515527,-16.60249 47.409314,-14.38882 17.89379,2.21366 29.14658,-1.47578 43.35093,17.89379 14.20435,19.36956 28.03975,34.86521 -1.66025,46.30248 -29.7,11.43727 -42.42857,-0.7379 -73.050925,-4.79626 -30.622361,-4.05839 -35.972051,-10.51492 -34.127331,-21.2143 1.844723,-10.69938 18.078262,-23.79689 18.078262,-23.79689 z"
       id="path50" /><path
       style="fill:#f85e5e;fill-opacity:1;stroke:#211f7c;stroke-width:2.15029;stroke-linejoin:round;stroke-dasharray:none"
       d="m 49.259462,163.15509 c -2.79016,-7.3604 -0.767415,-13.21078 0.301664,-16.60413 1.069078,-3.39334 3.435275,-7.95062 12.960695,-16.11387 9.525422,-8.16324 10.825338,-13.42907 24.758815,-10.55952 13.933474,2.86953 23.265014,1.79797 29.006104,8.49598 5.74107,6.69802 11.86155,11.51836 10.48978,23.12582 -1.37177,11.60748 -1.48614,20.93369 -9.84696,24.20874 -8.36079,3.27501 -14.1936,2.35998 -26.823343,-1.48731 -12.629732,-3.84728 -30.467797,-3.5974 -40.846755,-11.06571 z"
       id="path51" /><path
       style="fill:#f85e5e;fill-opacity:1;stroke:#211f7c;stroke-width:2.15029;stroke-linejoin:round;stroke-dasharray:none"
       d="m 123.57683,128.41353 c 0.75142,-2.37122 2.44678,-3.3412 3.40316,-3.92628 0.95637,-0.58507 2.48172,-1.17011 6.58309,-1.07755 4.10136,0.0926 5.49249,-0.89283 8.52599,2.80277 3.03349,3.69558 5.66452,5.45105 5.80989,8.29962 0.14537,2.84859 0.76501,5.32764 -1.91465,7.82197 -2.67967,2.49431 -4.5769,4.7115 -7.39781,3.69512 -2.8209,-1.01638 -4.14809,-2.49462 -6.64818,-6.14399 -2.50008,-3.64936 -7.16938,-7.43741 -8.36149,-11.47166 z"
       id="path52" /><path
       style="fill:#f85e5e;fill-opacity:1;stroke:#211f7c;stroke-width:2.15029;stroke-linejoin:round;stroke-dasharray:none"
       d="m 152.96373,142.36037 c 2.8483,1.35453 3.82807,3.7773 4.4279,5.1495 0.59982,1.37219 1.12362,3.5104 0.46076,9.01881 -0.66289,5.50838 0.37673,7.5238 -4.62394,11.07353 -5.00065,3.54972 -7.53499,6.83813 -11.09664,6.62195 -3.56169,-0.21617 -6.72718,0.2596 -9.47104,-3.70877 -2.74386,-3.96838 -5.24759,-6.84326 -3.60698,-10.49417 1.64064,-3.65088 3.6561,-5.22398 8.52804,-8.06226 4.87194,-2.83824 10.20604,-8.57692 15.3819,-9.59859 z"
       id="path53" /><rect
       style="fill:#f8f8f8;fill-opacity:1;stroke:#211f7c;stroke-width:2.15029;stroke-linejoin:round;stroke-dasharray:none;stroke-opacity:1"
       id="rect53"
       width="34.661495"
       height="16.767708"
       x="133.10622"
       y="160.59254" /><text
       xml:space="preserve"
       style="font-size:11.4296px;writing-mode:lr-tb;direction:ltr;fill:#000000;fill-opacity:1;stroke:#211f7c;stroke-width:2.15029;stroke-linejoin:round;stroke-dasharray:none;stroke-opacity:0"
       x="135.66551"
       y="173.42601"
       id="text53"><tspan
         sodipodi:role="line"
         id="tspan53"
         style="fill:#000000;fill-opacity:1;stroke:#211f7c;stroke-width:2.15029;stroke-dasharray:none;stroke-opacity:0"
         x="135.66551"
         y="173.42601">￥980</tspan></text></g><g
     inkscape:label="Layer 1"
     id="g57"
     transform="matrix(0.21082295,0,0,0.25646574,138.50622,88.041844)"
     style="stroke-width:2.15029;stroke-dasharray:none"><rect
       style="fill:#f8f8f8;fill-opacity:1;stroke:#211f7c;stroke-width:2.15029;stroke-linejoin:round;stroke-dasharray:none"
       id="rect54"
       width="137.43956"
       height="81.360046"
       x="36.337051"
       y="103.11594"
       ry="2.8476019" /><path
       style="fill:#f8cfcf;fill-opacity:1;stroke:#211f7c;stroke-width:2.15029;stroke-linejoin:round;stroke-dasharray:none"
       d="m 60.875776,125.62547 c 22.874534,-18.07826 29.515527,-16.60249 47.409314,-14.38882 17.89379,2.21366 29.14658,-1.47578 43.35093,17.89379 14.20435,19.36956 28.03975,34.86521 -1.66025,46.30248 -29.7,11.43727 -42.42857,-0.7379 -73.050925,-4.79626 -30.622361,-4.05839 -35.972051,-10.51492 -34.127331,-21.2143 1.844723,-10.69938 18.078262,-23.79689 18.078262,-23.79689 z"
       id="path54" /><path
       style="fill:#f85e5e;fill-opacity:1;stroke:#211f7c;stroke-width:2.15029;stroke-linejoin:round;stroke-dasharray:none"
       d="m 49.259462,163.15509 c -2.79016,-7.3604 -0.767415,-13.21078 0.301664,-16.60413 1.069078,-3.39334 3.435275,-7.95062 12.960695,-16.11387 9.525422,-8.16324 10.825338,-13.42907 24.758815,-10.55952 13.933474,2.86953 23.265014,1.79797 29.006104,8.49598 5.74107,6.69802 11.86155,11.51836 10.48978,23.12582 -1.37177,11.60748 -1.48614,20.93369 -9.84696,24.20874 -8.36079,3.27501 -14.1936,2.35998 -26.823343,-1.48731 -12.629732,-3.84728 -30.467797,-3.5974 -40.846755,-11.06571 z"
       id="path55" /><path
       style="fill:#f85e5e;fill-opacity:1;stroke:#211f7c;stroke-width:2.15029;stroke-linejoin:round;stroke-dasharray:none"
       d="m 123.57683,128.41353 c 0.75142,-2.37122 2.44678,-3.3412 3.40316,-3.92628 0.95637,-0.58507 2.48172,-1.17011 6.58309,-1.07755 4.10136,0.0926 5.49249,-0.89283 8.52599,2.80277 3.03349,3.69558 5.66452,5.45105 5.80989,8.29962 0.14537,2.84859 0.76501,5.32764 -1.91465,7.82197 -2.67967,2.49431 -4.5769,4.7115 -7.39781,3.69512 -2.8209,-1.01638 -4.14809,-2.49462 -6.64818,-6.14399 -2.50008,-3.64936 -7.16938,-7.43741 -8.36149,-11.47166 z"
       id="path56" /><path
       style="fill:#f85e5e;fill-opacity:1;stroke:#211f7c;stroke-width:2.15029;stroke-linejoin:round;stroke-dasharray:none"
       d="m 152.96373,142.36037 c 2.8483,1.35453 3.82807,3.7773 4.4279,5.1495 0.59982,1.37219 1.12362,3.5104 0.46076,9.01881 -0.66289,5.50838 0.37673,7.5238 -4.62394,11.07353 -5.00065,3.54972 -7.53499,6.83813 -11.09664,6.62195 -3.56169,-0.21617 -6.72718,0.2596 -9.47104,-3.70877 -2.74386,-3.96838 -5.24759,-6.84326 -3.60698,-10.49417 1.64064,-3.65088 3.6561,-5.22398 8.52804,-8.06226 4.87194,-2.83824 10.20604,-8.57692 15.3819,-9.59859 z"
       id="path57" /><rect
       style="fill:#f8f8f8;fill-opacity:1;stroke:#211f7c;stroke-width:2.15029;stroke-linejoin:round;stroke-dasharray:none;stroke-opacity:1"
       id="rect57"
       width="34.661495"
       height="16.767708"
       x="133.10622"
       y="160.59254" /><text
       xml:space="preserve"
       style="font-size:11.4296px;writing-mode:lr-tb;direction:ltr;fill:#000000;fill-opacity:1;stroke:#211f7c;stroke-width:2.15029;stroke-linejoin:round;stroke-dasharray:none;stroke-opacity:0"
       x="135.66551"
       y="173.42601"
       id="text57"><tspan
         sodipodi:role="line"
         id="tspan57"
         style="fill:#000000;fill-opacity:1;stroke:#211f7c;stroke-width:2.15029;stroke-dasharray:none;stroke-opacity:0"
         x="135.66551"
         y="173.42601">￥980</tspan></text></g><g
     inkscape:label="Layer 1"
     id="g61"
     transform="matrix(0.21082295,0,0,0.25646574,122.10195,88.041844)"
     style="stroke-width:2.15029;stroke-dasharray:none"><rect
       style="fill:#f8f8f8;fill-opacity:1;stroke:#211f7c;stroke-width:2.15029;stroke-linejoin:round;stroke-dasharray:none"
       id="rect58"
       width="137.43956"
       height="81.360046"
       x="36.337051"
       y="103.11594"
       ry="2.8476019" /><path
       style="fill:#f8cfcf;fill-opacity:1;stroke:#211f7c;stroke-width:2.15029;stroke-linejoin:round;stroke-dasharray:none"
       d="m 60.875776,125.62547 c 22.874534,-18.07826 29.515527,-16.60249 47.409314,-14.38882 17.89379,2.21366 29.14658,-1.47578 43.35093,17.89379 14.20435,19.36956 28.03975,34.86521 -1.66025,46.30248 -29.7,11.43727 -42.42857,-0.7379 -73.050925,-4.79626 -30.622361,-4.05839 -35.972051,-10.51492 -34.127331,-21.2143 1.844723,-10.69938 18.078262,-23.79689 18.078262,-23.79689 z"
       id="path58" /><path
       style="fill:#f85e5e;fill-opacity:1;stroke:#211f7c;stroke-width:2.15029;stroke-linejoin:round;stroke-dasharray:none"
       d="m 49.259462,163.15509 c -2.79016,-7.3604 -0.767415,-13.21078 0.301664,-16.60413 1.069078,-3.39334 3.435275,-7.95062 12.960695,-16.11387 9.525422,-8.16324 10.825338,-13.42907 24.758815,-10.55952 13.933474,2.86953 23.265014,1.79797 29.006104,8.49598 5.74107,6.69802 11.86155,11.51836 10.48978,23.12582 -1.37177,11.60748 -1.48614,20.93369 -9.84696,24.20874 -8.36079,3.27501 -14.1936,2.35998 -26.823343,-1.48731 -12.629732,-3.84728 -30.467797,-3.5974 -40.846755,-11.06571 z"
       id="path59" /><path
       style="fill:#f85e5e;fill-opacity:1;stroke:#211f7c;stroke-width:2.15029;stroke-linejoin:round;stroke-dasharray:none"
       d="m 123.57683,128.41353 c 0.75142,-2.37122 2.44678,-3.3412 3.40316,-3.92628 0.95637,-0.58507 2.48172,-1.17011 6.58309,-1.07755 4.10136,0.0926 5.49249,-0.89283 8.52599,2.80277 3.03349,3.69558 5.66452,5.45105 5.80989,8.29962 0.14537,2.84859 0.76501,5.32764 -1.91465,7.82197 -2.67967,2.49431 -4.5769,4.7115 -7.39781,3.69512 -2.8209,-1.01638 -4.14809,-2.49462 -6.64818,-6.14399 -2.50008,-3.64936 -7.16938,-7.43741 -8.36149,-11.47166 z"
       id="path60" /><path
       style="fill:#f85e5e;fill-opacity:1;stroke:#211f7c;stroke-width:2.15029;stroke-linejoin:round;stroke-dasharray:none"
       d="m 152.96373,142.36037 c 2.8483,1.35453 3.82807,3.7773 4.4279,5.1495 0.59982,1.37219 1.12362,3.5104 0.46076,9.01881 -0.66289,5.50838 0.37673,7.5238 -4.62394,11.07353 -5.00065,3.54972 -7.53499,6.83813 -11.09664,6.62195 -3.56169,-0.21617 -6.72718,0.2596 -9.47104,-3.70877 -2.74386,-3.96838 -5.24759,-6.84326 -3.60698,-10.49417 1.64064,-3.65088 3.6561,-5.22398 8.52804,-8.06226 4.87194,-2.83824 10.20604,-8.57692 15.3819,-9.59859 z"
       id="path61" /><rect
       style="fill:#f8f8f8;fill-opacity:1;stroke:#211f7c;stroke-width:2.15029;stroke-linejoin:round;stroke-dasharray:none;stroke-opacity:1"
       id="rect61"
       width="34.661495"
       height="16.767708"
       x="133.10622"
       y="160.59254" /><text
       xml:space="preserve"
       style="font-size:11.4296px;writing-mode:lr-tb;direction:ltr;fill:#000000;fill-opacity:1;stroke:#211f7c;stroke-width:2.15029;stroke-linejoin:round;stroke-dasharray:none;stroke-opacity:0"
       x="135.66551"
       y="173.42601"
       id="text61"><tspan
         sodipodi:role="line"
         id="tspan61"
         style="fill:#000000;fill-opacity:1;stroke:#211f7c;stroke-width:2.15029;stroke-dasharray:none;stroke-opacity:0"
         x="135.66551"
         y="173.42601">￥980</tspan></text></g></svg>
