<?xml version="1.0" encoding="UTF-8" standalone="no"?>
<!-- Created with Inkscape (http://www.inkscape.org/) -->

<svg
   width="210mm"
   height="297mm"
   viewBox="0 0 210 297"
   version="1.1"
   id="svg1"
   inkscape:version="1.4.3 (0d15f75, 2025-12-25)"
   sodipodi:docname="sumaho_app.svg"
   xml:space="preserve"
   xmlns:inkscape="http://www.inkscape.org/namespaces/inkscape"
   xmlns:sodipodi="http://sodipodi.sourceforge.net/DTD/sodipodi-0.dtd"
   xmlns="http://www.w3.org/2000/svg"
   xmlns:svg="http://www.w3.org/2000/svg"><sodipodi:namedview
     id="namedview1"
     pagecolor="#ffffff"
     bordercolor="#000000"
     borderopacity="0.25"
     inkscape:showpageshadow="2"
     inkscape:pageopacity="0.0"
     inkscape:pagecheckerboard="0"
     inkscape:deskcolor="#d1d1d1"
     inkscape:document-units="mm"
     inkscape:zoom="1.0141844"
     inkscape:cx="396.87063"
     inkscape:cy="518.15035"
     inkscape:window-width="1920"
     inkscape:window-height="1001"
     inkscape:window-x="-9"
     inkscape:window-y="-9"
     inkscape:window-maximized="1"
     inkscape:current-layer="layer1" /><defs
     id="defs1" /><rect
     style="fill:#c7e9f6;fill-opacity:1;stroke:#211f7c;stroke-width:0;stroke-linejoin:round;stroke-opacity:0.916418"
     id="rect2"
     width="84.526047"
     height="137.48528"
     x="47.480682"
     y="58.17688"
     ry="1.8328569" /><g
     inkscape:label="Layer 1"
     inkscape:groupmode="layer"
     id="layer1"><path
       id="rect1"
       style="fill:#414141;stroke:#211f7c;stroke-width:1;stroke-linejoin:round;stroke-opacity:1;stroke-dasharray:none"
       d="M 52.188546 54.603902 C 47.394844 54.603902 43.535327 58.462902 43.535327 63.256604 L 43.535327 204.22784 C 43.535327 209.02155 47.394844 212.88055 52.188546 212.88055 L 126.74937 212.88055 C 131.54307 212.88055 135.40259 209.02155 135.40259 204.22784 L 135.40259 63.256604 C 135.40259 58.462902 131.54307 54.603902 126.74937 54.603902 L 52.188546 54.603902 z M 55.440027 59.768962 L 123.49789 59.768962 C 126.6183 59.768962 129.13062 62.281284 129.13062 65.401693 L 129.13062 187.69397 C 129.13062 190.81438 126.6183 193.3267 123.49789 193.3267 L 55.440027 193.3267 C 52.319618 193.3267 49.807296 190.81438 49.807296 187.69397 L 49.807296 65.401693 C 49.807296 62.281284 52.319618 59.768962 55.440027 59.768962 z " /><circle
       style="fill:#d6d6d6;fill-opacity:1;stroke:#211f7c;stroke-width:1;stroke-linejoin:round;stroke-opacity:0.916418;stroke-dasharray:none"
       id="path2"
       cx="89.468941"
       cy="203.28821"
       r="6.2720499" /></g><rect
     style="fill:#df5d5d;fill-opacity:1;stroke:#211f7c;stroke-width:0;stroke-linejoin:round;stroke-opacity:0.916418"
     id="rect3"
     width="16.957386"
     height="16.957386"
     x="55.205414"
     y="64.959831"
     ry="1.8328569" /><rect
     style="fill:#cedf5d;fill-opacity:1;stroke:#211f7c;stroke-width:0;stroke-linejoin:round;stroke-opacity:0.916418"
     id="rect3-6"
     width="16.957386"
     height="16.957386"
     x="55.205414"
     y="88.373917"
     ry="1.8328569" /><rect
     style="fill:#df5dce;fill-opacity:1;stroke:#211f7c;stroke-width:0;stroke-linejoin:round;stroke-opacity:0.916418"
     id="rect3-3"
     width="16.957386"
     height="16.957386"
     x="80.912544"
     y="88.373917"
     ry="1.8328569" /><rect
     style="fill:#5ddf5e;fill-opacity:1;stroke:#211f7c;stroke-width:0;stroke-linejoin:round;stroke-opacity:0.916418"
     id="rect3-32"
     width="16.957386"
     height="16.957386"
     x="106.77512"
     y="88.373917"
     ry="1.8328569" /><rect
     style="fill:#5db5df;fill-opacity:1;stroke:#211f7c;stroke-width:0;stroke-linejoin:round;stroke-opacity:0.916418"
     id="rect3-36"
     width="16.957386"
     height="16.957386"
     x="55.205414"
     y="111.788"
     ry="1.8328569" /><rect
     style="fill:#eda4a4;fill-opacity:1;stroke:#211f7c;stroke-width:0;stroke-linejoin:round;stroke-opacity:0.916418"
     id="rect3-21"
     width="16.957386"
     height="16.957386"
     x="80.912544"
     y="111.788"
     ry="1.8328569" /><rect
     style="fill:#1d2696;fill-opacity:1;stroke:#211f7c;stroke-width:0;stroke-linejoin:round;stroke-opacity:0.916418"
     id="rect3-9"
     width="16.957386"
     height="16.957386"
     x="106.77512"
     y="111.788"
     ry="1.8328569" /><rect
     style="fill:#cf95ea;fill-opacity:1;stroke:#211f7c;stroke-width:0;stroke-linejoin:round;stroke-opacity:0.916418"
     id="rect3-364"
     width="16.957386"
     height="16.957386"
     x="55.205414"
     y="135.20209"
     ry="1.8328569" /><rect
     style="fill:#32d650;fill-opacity:1;stroke:#211f7c;stroke-width:0;stroke-linejoin:round;stroke-opacity:0.916418"
     id="rect3-34"
     width="16.957386"
     height="16.957386"
     x="80.912544"
     y="135.20209"
     ry="1.8328569" /><rect
     style="fill:#5d68df;fill-opacity:1;stroke:#211f7c;stroke-width:0;stroke-linejoin:round;stroke-opacity:0.916418"
     id="rect3-2"
     width="16.957386"
     height="16.957386"
     x="80.912544"
     y="64.959831"
     ry="1.8328569" /><rect
     style="fill:#e59c80;fill-opacity:1;stroke:#211f7c;stroke-width:0;stroke-linejoin:round;stroke-opacity:0.916418"
     id="rect3-1"
     width="16.957386"
     height="16.957386"
     x="106.77512"
     y="64.959831"
     ry="1.8328569" /></svg>
